<svg width="15" height="14" viewBox="0 0 15 14" fill="none" xmlns="http://www.w3.org/2000/svg">
<path d="M9.00474 3.38148C9.58626 3.49494 10.1207 3.77935 10.5396 4.1983C10.9586 4.61725 11.243 5.15168 11.3565 5.7332M9.00474 1C10.2129 1.13422 11.3395 1.67526 12.1996 2.53428C13.0597 3.3933 13.6022 4.51925 13.7379 5.72725M13.1426 10.4783V12.2644C13.1432 12.4302 13.1093 12.5944 13.0429 12.7463C12.9764 12.8982 12.879 13.0346 12.7568 13.1467C12.6346 13.2588 12.4904 13.3441 12.3333 13.3972C12.1762 13.4504 12.0098 13.4701 11.8447 13.4552C10.0126 13.2561 8.25279 12.6301 6.70661 11.6274C5.26809 10.7133 4.04848 9.49367 3.13438 8.05515C2.12819 6.50195 1.50202 4.73357 1.30659 2.89328C1.29171 2.72864 1.31128 2.56271 1.36404 2.40604C1.41681 2.24938 1.50162 2.10542 1.61307 1.98333C1.72452 1.86124 1.86017 1.76369 2.01139 1.6969C2.1626 1.6301 2.32607 1.59553 2.49138 1.59537H4.27749C4.56643 1.59253 4.84654 1.69485 5.06562 1.88325C5.2847 2.07166 5.4278 2.3333 5.46824 2.61941C5.54362 3.19101 5.68343 3.75224 5.885 4.2924C5.9651 4.5055 5.98244 4.73709 5.93495 4.95974C5.88747 5.18239 5.77715 5.38676 5.61708 5.54864L4.86096 6.30476C5.7085 7.7953 6.94265 9.02944 8.43318 9.87699L9.18931 9.12086C9.35118 8.96079 9.55555 8.85048 9.7782 8.80299C10.0008 8.75551 10.2324 8.77284 10.4455 8.85295C10.9857 9.05451 11.5469 9.19432 12.1185 9.26971C12.4077 9.31051 12.6719 9.45618 12.8607 9.67902C13.0495 9.90186 13.1498 10.1863 13.1426 10.4783Z" stroke="#40658B" stroke-width="0.8" stroke-linecap="round" stroke-linejoin="round"/>
</svg>
