<svg width="18" height="18" viewBox="0 0 18 18" fill="none" xmlns="http://www.w3.org/2000/svg">
<path d="M13.705 13.455C12.4229 14.4323 10.8618 14.9737 9.25 15C4 15 1 9.00002 1 9.00002C1.93292 7.26144 3.22685 5.74247 4.795 4.54502M7.675 3.18002C8.19125 3.05918 8.7198 2.99877 9.25 3.00002C14.5 3.00002 17.5 9.00002 17.5 9.00002C17.0447 9.85172 16.5018 10.6536 15.88 11.3925M10.84 10.59C10.634 10.8111 10.3856 10.9884 10.1096 11.1114C9.83362 11.2343 9.53568 11.3005 9.23357 11.3058C8.93146 11.3111 8.63137 11.2555 8.35121 11.1424C8.07104 11.0292 7.81654 10.8608 7.60288 10.6471C7.38923 10.4335 7.22079 10.179 7.10763 9.89881C6.99447 9.61865 6.93889 9.31856 6.94423 9.01645C6.94956 8.71434 7.01568 8.4164 7.13866 8.1404C7.26163 7.86441 7.43894 7.61601 7.66 7.41002" stroke="#40658B" stroke-linecap="round" stroke-linejoin="round"/>
<path d="M1 0.75L17.5 17.25" stroke="#40658B" stroke-linecap="round" stroke-linejoin="round"/>
</svg>
