<svg width="10" height="10" viewBox="0 0 10 10" fill="none" xmlns="http://www.w3.org/2000/svg">
<path d="M1.04385 10.0035C0.778276 10.0035 0.512701 9.90567 0.303037 9.696C-0.102314 9.29065 -0.102314 8.61973 0.303037 8.21438L8.21438 0.303037C8.61973 -0.102314 9.29065 -0.102314 9.696 0.303037C10.1014 0.708388 10.1014 1.37931 9.696 1.78467L1.78466 9.696C1.58898 9.90567 1.30943 10.0035 1.04385 10.0035Z" fill="#0A2540"/>
<path d="M8.95519 10.0035C8.68961 10.0035 8.42404 9.90567 8.21438 9.696L0.303037 1.78467C-0.102314 1.37931 -0.102314 0.708388 0.303037 0.303037C0.708388 -0.102314 1.37931 -0.102314 1.78466 0.303037L9.696 8.21438C10.1014 8.61973 10.1014 9.29065 9.696 9.696C9.48634 9.90567 9.22076 10.0035 8.95519 10.0035Z" fill="#0A2540"/>
</svg>
