<svg width="18" height="18" viewBox="0 0 18 18" fill="none" xmlns="http://www.w3.org/2000/svg">
<path d="M12.5253 14.7976H5.47532C4.92032 14.7976 4.35782 14.4001 4.17032 13.8826L1.06532 5.19011C0.682817 4.09511 0.960317 3.59261 1.26032 3.36761C1.56032 3.14261 2.12282 3.00761 3.06782 3.68261L5.99282 5.77511C6.08282 5.82761 6.16532 5.85011 6.22532 5.83511C6.29282 5.81261 6.34532 5.75261 6.38282 5.64761L7.70282 2.13011C8.10032 1.08011 8.68532 0.922607 9.00032 0.922607C9.31532 0.922607 9.90032 1.08011 10.2978 2.13011L11.6178 5.64761C11.6553 5.74511 11.7078 5.81261 11.7753 5.83511C11.8428 5.85761 11.9253 5.83511 12.0078 5.76761L14.7528 3.81011C15.7578 3.09011 16.3428 3.23261 16.6653 3.46511C16.9803 3.70511 17.2728 4.23761 16.8603 5.40011L13.8303 13.8826C13.6428 14.4001 13.0803 14.7976 12.5253 14.7976ZM2.01032 4.35761C2.02532 4.46261 2.05532 4.61261 2.13032 4.80761L5.23532 13.5001C5.26532 13.5751 5.40032 13.6726 5.47532 13.6726H12.5253C12.6078 13.6726 12.7428 13.5751 12.7653 13.5001L15.7953 5.02511C15.9003 4.74011 15.9303 4.54511 15.9378 4.43261C15.8253 4.47011 15.6528 4.55261 15.4053 4.73261L12.6603 6.69011C12.2853 6.95261 11.8428 7.03511 11.4453 6.91511C11.0478 6.79511 10.7253 6.48011 10.5603 6.05261L9.24032 2.53511C9.14282 2.27261 9.05282 2.14511 9.00032 2.08511C8.94782 2.14511 8.85782 2.27261 8.76032 2.52761L7.44032 6.04511C7.28282 6.47261 6.96032 6.78761 6.55532 6.90761C6.15782 7.02761 5.70782 6.94511 5.34032 6.68261L2.41532 4.59011C2.24282 4.47011 2.10782 4.39511 2.01032 4.35761Z" fill="#0A2540"/>
<path d="M13.125 17.0625H4.875C4.5675 17.0625 4.3125 16.8075 4.3125 16.5C4.3125 16.1925 4.5675 15.9375 4.875 15.9375H13.125C13.4325 15.9375 13.6875 16.1925 13.6875 16.5C13.6875 16.8075 13.4325 17.0625 13.125 17.0625Z" fill="#0A2540"/>
<path d="M10.875 11.0625H7.125C6.8175 11.0625 6.5625 10.8075 6.5625 10.5C6.5625 10.1925 6.8175 9.9375 7.125 9.9375H10.875C11.1825 9.9375 11.4375 10.1925 11.4375 10.5C11.4375 10.8075 11.1825 11.0625 10.875 11.0625Z" fill="#0A2540"/>
</svg>
