<svg width="15" height="13" viewBox="0 0 15 13" fill="none" xmlns="http://www.w3.org/2000/svg">
<path d="M12.3216 11.6355C12.3216 12.1075 11.9404 12.4999 11.4597 12.4999H3.54026C3.06439 12.4999 2.67847 12.1134 2.67847 11.6355C2.67847 11.1671 3.05773 10.7725 3.54026 10.7725H11.4597C11.9356 10.7725 12.3216 11.159 12.3216 11.6355Z" fill="url(#paint0_linear_1146_4424)"/>
<path d="M13.2584 5.41025L13.0892 5.8577L11.4137 10.2924L11.2317 10.7718H3.76685L3.58496 10.2924L1.90939 5.85773L1.74023 5.41029C1.99236 5.31438 2.20618 5.14181 2.35299 4.92125C2.4998 4.99636 2.64662 5.06188 2.79343 5.12101C4.32534 5.7139 5.85087 5.27763 6.8546 3.43024C6.9296 3.29442 6.9998 3.15059 7.06842 2.99878C7.20407 3.04673 7.34927 3.07228 7.49928 3.07228C7.65086 3.07228 7.79768 3.04673 7.93172 2.99878C8.00034 3.15059 8.07053 3.29445 8.14554 3.43024C9.15088 5.27925 10.6748 5.7139 12.2067 5.12101C12.3535 5.06188 12.5003 4.99636 12.6471 4.92125C12.794 5.14177 13.0062 5.31276 13.2584 5.41025Z" fill="url(#paint1_linear_1146_4424)"/>
<path d="M8.78483 1.78612C8.78483 2.49642 8.20989 3.07354 7.49933 3.07354C6.79006 3.07354 6.21509 2.49642 6.21509 1.78612C6.21509 1.07582 6.79006 0.5 7.49933 0.5C8.20989 0.500035 8.78483 1.07582 8.78483 1.78612Z" fill="url(#paint2_linear_1146_4424)"/>
<path d="M2.56974 4.20629C2.56974 4.91659 1.99477 5.49371 1.28424 5.49371C0.574975 5.49371 0 4.91659 0 4.20629C0 3.49598 0.574975 2.92017 1.28424 2.92017C1.9948 2.92017 2.56974 3.49598 2.56974 4.20629Z" fill="url(#paint3_linear_1146_4424)"/>
<path d="M15.0002 4.20629C15.0002 4.91659 14.4252 5.49371 13.7147 5.49371C13.0054 5.49371 12.4304 4.91659 12.4304 4.20629C12.4304 3.49598 13.0054 2.92017 13.7147 2.92017C14.4252 2.92017 15.0002 3.49598 15.0002 4.20629Z" fill="url(#paint4_linear_1146_4424)"/>
<path d="M8.71415 7.69699C8.71415 8.66864 8.17001 9.45648 7.49979 9.45648C6.82957 9.45648 6.2854 8.66864 6.2854 7.69699C6.2854 6.72537 6.82954 5.9375 7.49979 5.9375C8.17001 5.9375 8.71415 6.72537 8.71415 7.69699Z" fill="url(#paint5_linear_1146_4424)"/>
<defs>
<linearGradient id="paint0_linear_1146_4424" x1="7.50001" y1="12.4999" x2="7.50001" y2="10.7725" gradientUnits="userSpaceOnUse">
<stop stop-color="#F9403E"/>
<stop offset="1" stop-color="#F77953"/>
</linearGradient>
<linearGradient id="paint1_linear_1146_4424" x1="7.49931" y1="10.7718" x2="7.49931" y2="2.99874" gradientUnits="userSpaceOnUse">
<stop stop-color="#F79808"/>
<stop offset="1" stop-color="#EDBB0B"/>
</linearGradient>
<linearGradient id="paint2_linear_1146_4424" x1="7.49996" y1="3.07354" x2="7.49996" y2="0.500035" gradientUnits="userSpaceOnUse">
<stop stop-color="#F79808"/>
<stop offset="1" stop-color="#EDBB0B"/>
</linearGradient>
<linearGradient id="paint3_linear_1146_4424" x1="1.28487" y1="5.49371" x2="1.28487" y2="2.92017" gradientUnits="userSpaceOnUse">
<stop stop-color="#F79808"/>
<stop offset="1" stop-color="#EDBB0B"/>
</linearGradient>
<linearGradient id="paint4_linear_1146_4424" x1="13.7153" y1="5.49371" x2="13.7153" y2="2.92017" gradientUnits="userSpaceOnUse">
<stop stop-color="#F79808"/>
<stop offset="1" stop-color="#EDBB0B"/>
</linearGradient>
<linearGradient id="paint5_linear_1146_4424" x1="7.49979" y1="9.45648" x2="7.49979" y2="5.9375" gradientUnits="userSpaceOnUse">
<stop offset="0.0168" stop-color="#CCCCCC"/>
<stop offset="1" stop-color="#F2F2F2"/>
</linearGradient>
</defs>
</svg>
