<svg width="18" height="18" viewBox="0 0 18 18" fill="none" xmlns="http://www.w3.org/2000/svg">
<path d="M14.25 8.0625H12.75C10.935 8.0625 9.9375 7.065 9.9375 5.25V3.75C9.9375 1.935 10.935 0.9375 12.75 0.9375H14.25C16.065 0.9375 17.0625 1.935 17.0625 3.75V5.25C17.0625 7.065 16.065 8.0625 14.25 8.0625ZM12.75 2.0625C11.565 2.0625 11.0625 2.565 11.0625 3.75V5.25C11.0625 6.435 11.565 6.9375 12.75 6.9375H14.25C15.435 6.9375 15.9375 6.435 15.9375 5.25V3.75C15.9375 2.565 15.435 2.0625 14.25 2.0625H12.75Z" fill="white"/>
<path d="M5.25 17.0625H3.75C1.935 17.0625 0.9375 16.065 0.9375 14.25V12.75C0.9375 10.935 1.935 9.9375 3.75 9.9375H5.25C7.065 9.9375 8.0625 10.935 8.0625 12.75V14.25C8.0625 16.065 7.065 17.0625 5.25 17.0625ZM3.75 11.0625C2.565 11.0625 2.0625 11.565 2.0625 12.75V14.25C2.0625 15.435 2.565 15.9375 3.75 15.9375H5.25C6.435 15.9375 6.9375 15.435 6.9375 14.25V12.75C6.9375 11.565 6.435 11.0625 5.25 11.0625H3.75Z" fill="white"/>
<path d="M4.5 8.0625C2.535 8.0625 0.9375 6.465 0.9375 4.5C0.9375 2.535 2.535 0.9375 4.5 0.9375C6.465 0.9375 8.0625 2.535 8.0625 4.5C8.0625 6.465 6.465 8.0625 4.5 8.0625ZM4.5 2.0625C3.1575 2.0625 2.0625 3.1575 2.0625 4.5C2.0625 5.8425 3.1575 6.9375 4.5 6.9375C5.8425 6.9375 6.9375 5.8425 6.9375 4.5C6.9375 3.1575 5.8425 2.0625 4.5 2.0625Z" fill="white"/>
<path d="M13.5 17.0625C11.535 17.0625 9.9375 15.465 9.9375 13.5C9.9375 11.535 11.535 9.9375 13.5 9.9375C15.465 9.9375 17.0625 11.535 17.0625 13.5C17.0625 15.465 15.465 17.0625 13.5 17.0625ZM13.5 11.0625C12.1575 11.0625 11.0625 12.1575 11.0625 13.5C11.0625 14.8425 12.1575 15.9375 13.5 15.9375C14.8425 15.9375 15.9375 14.8425 15.9375 13.5C15.9375 12.1575 14.8425 11.0625 13.5 11.0625Z" fill="white"/>
</svg>
