<svg width="758" height="383" viewBox="0 0 758 383" fill="none" xmlns="http://www.w3.org/2000/svg">
<path d="M316.27 354.808C291.53 327.204 286.874 243.278 308.565 213.058C327.649 179.4 386.738 176.198 409.362 207.596C442.377 252.258 445.997 375.131 367.994 376.447C346.002 377.641 328.761 370.428 316.27 354.808Z" fill="white"/>
<path d="M316.27 354.808C291.53 327.204 286.874 243.277 308.565 213.058C327.649 179.4 386.738 176.198 409.362 207.596C442.377 252.258 445.997 375.131 367.994 376.447C346.002 377.641 328.761 370.428 316.27 354.808Z" stroke="#0A2540" stroke-width="10" stroke-miterlimit="10"/>
<path d="M391.775 331.952C401.648 312.755 397.999 245.192 386.087 227.353C375.407 206.194 342.09 208.022 333.85 230.317C323.853 256.314 321.551 353.847 366.545 349.839C378.508 349.189 386.918 343.231 391.775 331.955V331.952Z" stroke="#0A2540" stroke-width="10" stroke-miterlimit="10"/>
<path d="M467.898 284H249.244V286.91H467.898V284Z" fill="#0A2540"/>
<path d="M614.595 286.263H587.915C587.424 286.321 587.777 284.528 587.674 284.32C587.623 283.622 614.354 284.32 614.595 284.08C615.085 284.022 614.732 285.815 614.835 286.023C614.835 286.154 614.726 286.263 614.595 286.263Z" fill="#0A2540"/>
<path d="M129.003 286.263H102.323C101.833 286.321 102.185 284.528 102.083 284.32C102.031 283.622 128.762 284.32 129.003 284.08C129.493 284.022 129.141 285.815 129.243 286.023C129.243 286.154 129.134 286.263 129.003 286.263Z" fill="#0A2540"/>
<path d="M591.237 329.467H564.397C564.063 329.506 564.31 328.312 564.236 328.171C564.191 327.719 591.083 328.161 591.237 328.011C591.57 327.972 591.323 329.166 591.397 329.307C591.397 329.397 591.326 329.467 591.237 329.467Z" fill="#C4CEFE"/>
<path d="M182.071 116.002C188.317 116.075 192.908 110.559 192.469 104.505C192.517 92.8092 182.433 83.3966 170.753 84.2386C167.957 56.2344 126.063 59.4135 127.666 87.6355C114.594 79.8332 96.2573 89.582 95.5839 104.921C95.0741 110.889 99.89 116.011 105.889 116.002H182.071Z" fill="#DAE0E7"/>
<path d="M663.923 145.824C685.184 143.686 677.944 113.482 655.285 122.12C650.652 91.4232 604.34 92.1307 600.678 122.991C595.564 120.468 588.956 119.802 583.326 121.307C569.257 124.925 572.21 145.828 586.737 145.828H663.923V145.824Z" fill="#DAE0E7"/>
<path d="M513.545 46.3431C534.8 44.2044 527.563 14.0103 504.911 22.645C500.281 -8.04218 453.978 -7.33463 450.32 23.5158C445.206 20.9962 438.601 20.327 432.974 21.8318C418.908 25.4496 421.861 46.3431 436.385 46.3431H513.545Z" fill="#DAE0E7"/>
<path d="M526.657 89.7585C535.096 98.6557 537.405 98.7166 546.315 90.29C537.405 98.7166 537.344 101.022 545.783 109.919C537.344 101.022 535.035 100.961 526.125 109.387C535.035 100.961 535.096 98.6557 526.657 89.7585Z" fill="#CCD2DA"/>
<path d="M218.239 20.8447C226.678 29.7419 228.987 29.8028 237.897 21.3762C228.987 29.8028 228.926 32.1079 237.365 41.0051C228.926 32.1079 226.617 32.0471 217.707 40.4736C226.617 32.0471 226.678 29.7419 218.239 20.8447Z" fill="#CCD2DA"/>
<path d="M134.696 147.954C143.135 156.851 145.444 156.912 154.354 148.485C145.444 156.912 145.383 159.217 153.822 168.114C145.383 159.217 143.074 159.156 134.164 167.583C143.074 159.156 143.135 156.851 134.696 147.954Z" fill="#CCD2DA"/>
<path d="M38.5322 88C46.9712 96.8972 49.2798 96.958 58.1901 88.5315C49.2798 96.958 49.2189 99.2632 57.6579 108.16C49.2189 99.2632 46.9103 99.2023 38 107.629C46.9103 99.2023 46.9712 96.8972 38.5322 88Z" fill="#CCD2DA"/>
<path d="M625.118 191.847C633.557 200.744 635.866 200.805 644.776 192.379C635.866 200.805 635.805 203.11 644.244 212.008C635.805 203.11 633.496 203.05 624.586 211.476C633.496 203.05 633.557 200.744 625.118 191.847Z" fill="#CCD2DA"/>
<path d="M365.266 29.002C366.37 28.6761 367.525 29.2484 367.949 30.29L368.024 30.5039L399.475 137.443V137.444C399.8 138.545 399.229 139.698 398.186 140.122L397.971 140.197H397.97L320.983 162.773H320.975L320.906 162.794C319.802 163.12 318.647 162.547 318.223 161.506L318.147 161.292L293.549 77.6475C293.4 77.14 293.437 76.6008 293.65 76.1221L293.753 75.9209L311.201 45.499L311.202 45.498C311.487 45.0007 311.955 44.6342 312.506 44.4717L312.505 44.4707L365.265 29.002H365.266Z" fill="white" stroke="#0A2540"/>
<path d="M321.054 163.274L398.111 140.677C399.554 140.254 400.381 138.743 399.955 137.302L368.504 30.3631C368.081 28.9223 366.567 28.0963 365.124 28.5221L312.365 43.9922C311.691 44.1907 311.117 44.6389 310.768 45.2504L293.319 75.6718C292.95 76.3154 292.861 77.0773 293.069 77.7881L317.668 161.433C318.091 162.873 319.604 163.699 321.047 163.274H321.054Z" stroke="#0A2540" stroke-width="3" stroke-linecap="round" stroke-linejoin="round"/>
<path d="M311.996 45.6504C320.993 78.0024 324.318 67.4756 293.566 77.9576L311.996 45.6504Z" fill="white"/>
<path d="M311.996 45.6504C320.993 78.0024 324.318 67.4756 293.566 77.9576" stroke="#0A2540" stroke-width="3" stroke-linecap="round" stroke-linejoin="round"/>
<path d="M322.821 127.989L327.186 126.709C327.262 126.687 327.34 126.73 327.362 126.804L332.752 145.127C332.774 145.201 332.731 145.28 332.656 145.302L328.291 146.582C328.216 146.604 328.137 146.561 328.115 146.487L322.725 128.164C322.703 128.09 322.746 128.011 322.821 127.989Z" fill="#0A2540" stroke="#0A2540"/>
<path d="M351.202 125.756C351.26 125.739 351.32 125.762 351.354 125.808C351.355 125.818 351.355 125.828 351.355 125.837C351.362 125.902 351.374 125.972 351.389 126.041C351.418 126.18 351.464 126.359 351.522 126.564C351.64 126.978 351.816 127.539 352.025 128.191C352.446 129.501 353.005 131.187 353.525 132.86C354.046 134.535 354.52 136.171 354.771 137.371C354.897 137.978 354.958 138.436 354.952 138.722C354.952 138.748 354.948 138.77 354.946 138.789L350.665 140.046C350.607 140.062 350.547 140.039 350.513 139.993C350.512 139.983 350.513 139.974 350.513 139.966C350.507 139.9 350.494 139.83 350.479 139.761C350.45 139.622 350.404 139.444 350.346 139.238C350.228 138.824 350.052 138.263 349.843 137.611C349.422 136.301 348.863 134.615 348.343 132.942C347.822 131.268 347.349 129.632 347.099 128.432C346.972 127.825 346.91 127.366 346.916 127.08C346.917 127.054 346.92 127.032 346.921 127.012L351.203 125.757L351.202 125.756Z" fill="#0A2540" stroke="#0A2540"/>
<path d="M356.388 118.141L360.753 116.86C360.828 116.838 360.906 116.882 360.928 116.955L366.318 135.279C366.34 135.352 366.298 135.431 366.222 135.453L361.857 136.734C361.782 136.756 361.704 136.712 361.682 136.639L356.291 118.315C356.27 118.242 356.312 118.163 356.388 118.141Z" fill="#0A2540" stroke="#0A2540"/>
<path d="M332.366 119.119L336.731 117.838C336.806 117.816 336.885 117.86 336.907 117.933L343.94 141.841C343.961 141.915 343.919 141.993 343.843 142.015L339.478 143.295C339.403 143.317 339.325 143.275 339.303 143.201L332.27 119.293C332.248 119.22 332.291 119.141 332.366 119.119Z" fill="#0A2540" stroke="#0A2540"/>
<path d="M310.777 89.3422L362.527 74.1699" stroke="#0A2540" stroke-width="2" stroke-linecap="round" stroke-linejoin="round"/>
<path d="M313.242 97.7238L364.989 82.5483" stroke="#0A2540" stroke-width="2" stroke-linecap="round" stroke-linejoin="round"/>
<path d="M315.705 106.102L367.455 90.927" stroke="#0A2540" stroke-width="2" stroke-linecap="round" stroke-linejoin="round"/>
<path d="M426.166 134.411C426.519 133.044 429.674 129.189 427.259 128.344L401.468 119.094L400.336 121.134L424.108 135.048C424.848 135.48 425.8 135.186 426.163 134.411H426.166Z" fill="#006AF2"/>
<path d="M374.003 93.7187C399.493 83.496 415.361 121.089 390.237 132.17C364.747 142.392 348.882 104.799 374.003 93.7187Z" fill="#EBEEF1"/>
<path d="M375.693 97.7272C395.87 89.6368 408.429 119.392 388.54 128.161C368.363 136.252 355.804 106.496 375.693 97.7272Z" fill="white"/>
<path d="M374.003 93.7187C399.493 83.496 415.361 121.089 390.237 132.17C364.747 142.392 348.882 104.799 374.003 93.7187Z" stroke="#006AF2" stroke-width="3" stroke-linecap="round" stroke-linejoin="round"/>
<path d="M382.217 104.934L382.092 115.124" stroke="#006AF2" stroke-width="3" stroke-linecap="round" stroke-linejoin="round"/>
<ellipse cx="382.019" cy="120.945" rx="1.28252" ry="1.28063" fill="#0A2540"/>
<path d="M382.025 120.945C382.025 120.945 382.01 120.936 382.01 120.945C382.01 120.954 382.025 120.954 382.025 120.945Z" fill="#0A2540" stroke="#006AF2" stroke-width="3" stroke-linecap="round" stroke-linejoin="round"/>
<path d="M604.065 279.532L583.51 283.656L591.769 324.71L547.756 333.54L539.497 292.486L458.852 308.667L452.445 276.824L501.733 151.123L554.704 140.494L575.885 245.759L596.441 241.635L604.065 279.532ZM520.377 197.485L497.08 261.568L531.869 254.589L520.377 197.482V197.485Z" fill="#DAE0E7"/>
<path d="M264.864 300.787L244.183 297.346L237.289 338.649L193.007 331.279L199.901 289.976L118.762 276.471L124.11 244.433L214.929 144.441L268.224 153.313L250.544 259.221L271.225 262.663L264.86 300.791L264.864 300.787ZM215.855 194.392L171.265 246.021L206.265 251.845L215.855 194.392Z" fill="#DAE0E7"/>
<path d="M758 286.953H0V383H758V286.953Z" fill="white"/>
<path d="M137.389 331.462H110.549C110.216 331.5 110.462 330.306 110.389 330.165C110.344 329.714 137.235 330.156 137.389 330.005C137.722 329.967 137.476 331.161 137.549 331.302C137.549 331.392 137.479 331.462 137.389 331.462Z" fill="#006AF2" fill-opacity="0.32"/>
<path d="M211.086 331.462H184.246C183.913 331.5 184.16 330.306 184.086 330.165C184.041 329.714 210.932 330.156 211.086 330.005C211.42 329.967 211.173 331.161 211.247 331.302C211.247 331.392 211.176 331.462 211.086 331.462Z" fill="#006AF2" fill-opacity="0.32"/>
<path d="M278.164 314.18H251.324C250.991 314.218 251.238 313.024 251.164 312.883C251.119 312.432 278.011 312.874 278.164 312.723C278.498 312.685 278.251 313.879 278.325 314.02C278.325 314.109 278.254 314.18 278.164 314.18Z" fill="#006AF2" fill-opacity="0.32"/>
<path d="M316.313 333.293H289.473C289.139 333.332 289.386 332.138 289.313 331.997C289.268 331.545 316.159 331.987 316.313 331.837C316.646 331.798 316.399 332.992 316.473 333.133C316.473 333.223 316.403 333.293 316.313 333.293Z" fill="#006AF2" fill-opacity="0.32"/>
<path d="M410.436 333.293H383.596C383.262 333.332 383.509 332.138 383.436 331.997C383.391 331.545 410.282 331.987 410.436 331.837C410.769 331.798 410.522 332.992 410.596 333.133C410.596 333.223 410.526 333.293 410.436 333.293Z" fill="#006AF2" fill-opacity="0.32"/>
<path d="M515.741 332.211H488.901C488.567 332.25 488.814 331.056 488.74 330.915C488.695 330.463 515.587 330.905 515.741 330.755C516.074 330.716 515.827 331.91 515.901 332.051C515.901 332.141 515.83 332.211 515.741 332.211Z" fill="#006AF2" fill-opacity="0.32"/>
<path d="M181.219 311.379H154.379C154.046 311.417 154.293 310.223 154.219 310.082C154.174 309.63 181.065 310.072 181.219 309.922C181.553 309.883 181.306 311.078 181.379 311.218C181.379 311.308 181.309 311.379 181.219 311.379Z" fill="#006AF2" fill-opacity="0.32"/>
<path d="M368.625 310.668H341.785C341.452 310.706 341.699 309.512 341.625 309.371C341.58 308.92 368.471 309.362 368.625 309.211C368.959 309.173 368.712 310.367 368.786 310.508C368.786 310.597 368.715 310.668 368.625 310.668Z" fill="#006AF2" fill-opacity="0.32"/>
<path d="M559.567 310.556H532.727C532.393 310.594 532.64 309.4 532.566 309.259C532.522 308.808 559.413 309.25 559.567 309.099C559.9 309.061 559.653 310.255 559.727 310.396C559.727 310.485 559.657 310.556 559.567 310.556Z" fill="#006AF2" fill-opacity="0.32"/>
<path d="M465.584 303.775H438.744C438.411 303.813 438.658 302.619 438.584 302.478C438.539 302.027 465.43 302.469 465.584 302.318C465.918 302.28 465.671 303.474 465.745 303.615C465.745 303.704 465.674 303.775 465.584 303.775Z" fill="#006AF2" fill-opacity="0.32"/>
</svg>
