<svg width="758" height="383" viewBox="0 0 758 383" fill="none" xmlns="http://www.w3.org/2000/svg">
<path fill-rule="evenodd" clip-rule="evenodd" d="M332.094 196.361C342.347 194.225 358.581 187.817 366.271 182.904H386.35V283.94H410.915V310H328.89V283.94H356.445V214.945C353.964 215.886 350.831 216.93 347.555 217.899C345.847 218.404 344.1 218.888 342.386 219.327C339.181 220.146 336.092 220.806 333.589 221.14L332.094 196.361ZM347.555 227.147C343.056 228.398 338.452 229.46 334.764 229.952L325.291 231.215L322.757 189.225L330.281 187.658C339.619 185.713 354.818 179.672 361.485 175.412L363.674 174.014H395.24V275.05H419.805V318.89H320V275.05H347.555V227.147Z" fill="black"/>
<path d="M467.898 284H249.244V286.91H467.898V284Z" fill="#0A2540"/>
<path d="M608.595 286.263H558.915C558.424 286.321 558.777 284.528 558.674 284.32C558.623 283.622 608.354 284.32 608.595 284.08C609.085 284.022 608.732 285.815 608.835 286.023C608.835 286.154 608.726 286.263 608.595 286.263Z" fill="#0A2540"/>
<path d="M162.003 286.263H102.323C101.833 286.321 102.185 284.528 102.083 284.32C102.031 283.622 161.762 284.32 162.003 284.08C162.493 284.022 162.141 285.815 162.243 286.023C162.243 286.154 162.134 286.263 162.003 286.263Z" fill="#0A2540"/>
<path d="M591.237 329.467H564.397C564.063 329.506 564.31 328.312 564.236 328.171C564.191 327.719 591.083 328.161 591.237 328.011C591.57 327.972 591.323 329.166 591.397 329.307C591.397 329.397 591.326 329.467 591.237 329.467Z" fill="#C4CEFE"/>
<path d="M182.071 116.002C188.317 116.075 192.908 110.559 192.469 104.505C192.517 92.8092 182.433 83.3966 170.753 84.2386C167.957 56.2344 126.063 59.4135 127.666 87.6355C114.594 79.8332 96.2573 89.582 95.5839 104.921C95.0741 110.889 99.89 116.011 105.889 116.002H182.071Z" fill="#DAE0E7"/>
<path d="M663.923 145.824C685.184 143.686 677.944 113.482 655.285 122.12C650.652 91.4232 604.34 92.1307 600.678 122.991C595.564 120.468 588.956 119.802 583.326 121.307C569.257 124.925 572.21 145.828 586.737 145.828H663.923V145.824Z" fill="#DAE0E7"/>
<path d="M513.545 46.3431C534.8 44.2044 527.563 14.0103 504.911 22.645C500.281 -8.04218 453.978 -7.33463 450.32 23.5158C445.206 20.9962 438.601 20.327 432.974 21.8318C418.908 25.4496 421.861 46.3431 436.385 46.3431H513.545Z" fill="#DAE0E7"/>
<path d="M526.657 89.7585C535.096 98.6557 537.405 98.7166 546.315 90.29C537.405 98.7166 537.344 101.022 545.783 109.919C537.344 101.022 535.035 100.961 526.125 109.387C535.035 100.961 535.096 98.6557 526.657 89.7585Z" fill="#CCD2DA"/>
<path d="M218.239 20.8445C226.678 29.7417 228.987 29.8025 237.897 21.3759C228.987 29.8025 228.926 32.1076 237.365 41.0048C228.926 32.1076 226.617 32.0468 217.707 40.4734C226.617 32.0468 226.678 29.7417 218.239 20.8445Z" fill="#CCD2DA"/>
<path d="M134.696 147.954C143.135 156.851 145.444 156.912 154.354 148.485C145.444 156.912 145.383 159.217 153.822 168.114C145.383 159.217 143.074 159.156 134.164 167.583C143.074 159.156 143.135 156.851 134.696 147.954Z" fill="#CCD2DA"/>
<path d="M38.5322 88C46.9712 96.8972 49.2798 96.958 58.1901 88.5315C49.2798 96.958 49.2189 99.2632 57.6579 108.16C49.2189 99.2632 46.9103 99.2023 38 107.629C46.9103 99.2023 46.9712 96.8972 38.5322 88Z" fill="#CCD2DA"/>
<path d="M625.118 191.847C633.557 200.744 635.866 200.805 644.776 192.379C635.866 200.805 635.805 203.11 644.244 212.008C635.805 203.11 633.496 203.05 624.586 211.476C633.496 203.05 633.557 200.744 625.118 191.847Z" fill="#CCD2DA"/>
<path d="M365.266 29.0017C366.37 28.6758 367.525 29.2481 367.949 30.2898L368.024 30.5037L399.475 137.443V137.444C399.8 138.545 399.229 139.698 398.186 140.122L397.971 140.197H397.97L320.983 162.773H320.975L320.906 162.794C319.802 163.12 318.647 162.547 318.223 161.506L318.147 161.292L293.549 77.6472C293.4 77.1398 293.437 76.6006 293.65 76.1218L293.753 75.9207L311.201 45.4988L311.202 45.4978C311.487 45.0004 311.955 44.634 312.506 44.4714L312.505 44.4705L365.265 29.0017H365.266Z" fill="white" stroke="#0A2540"/>
<path d="M321.054 163.273L398.111 140.677C399.554 140.254 400.381 138.743 399.955 137.302L368.504 30.3628C368.081 28.9221 366.567 28.0961 365.124 28.5219L312.365 43.9919C311.691 44.1904 311.117 44.6387 310.768 45.2502L293.319 75.6716C292.95 76.3151 292.861 77.0771 293.069 77.7878L317.668 161.432C318.091 162.873 319.604 163.699 321.047 163.273H321.054Z" stroke="#0A2540" stroke-width="3" stroke-linecap="round" stroke-linejoin="round"/>
<path d="M311.996 45.6501C320.993 78.0021 324.318 67.4753 293.566 77.9573L311.996 45.6501Z" fill="white"/>
<path d="M311.996 45.6501C320.993 78.0021 324.318 67.4753 293.566 77.9573" stroke="#0A2540" stroke-width="3" stroke-linecap="round" stroke-linejoin="round"/>
<path d="M322.821 127.989L327.186 126.709C327.262 126.687 327.34 126.73 327.362 126.804L332.752 145.127C332.774 145.201 332.731 145.28 332.656 145.302L328.291 146.582C328.216 146.604 328.137 146.561 328.115 146.487L322.725 128.164C322.703 128.09 322.746 128.011 322.821 127.989Z" fill="#0A2540" stroke="#0A2540"/>
<path d="M351.202 125.756C351.26 125.739 351.32 125.762 351.354 125.808C351.355 125.818 351.355 125.828 351.355 125.837C351.362 125.902 351.374 125.972 351.389 126.041C351.418 126.18 351.464 126.359 351.522 126.564C351.64 126.978 351.816 127.539 352.025 128.191C352.446 129.501 353.005 131.187 353.525 132.86C354.046 134.535 354.52 136.171 354.771 137.371C354.897 137.978 354.958 138.436 354.952 138.722C354.952 138.748 354.948 138.77 354.946 138.789L350.665 140.046C350.607 140.062 350.547 140.039 350.513 139.993C350.512 139.983 350.513 139.974 350.513 139.966C350.507 139.9 350.494 139.83 350.479 139.761C350.45 139.622 350.404 139.444 350.346 139.238C350.228 138.824 350.052 138.263 349.843 137.611C349.422 136.301 348.863 134.615 348.343 132.942C347.822 131.268 347.349 129.632 347.099 128.432C346.972 127.825 346.91 127.366 346.916 127.08C346.917 127.054 346.92 127.032 346.921 127.012L351.203 125.757L351.202 125.756Z" fill="#0A2540" stroke="#0A2540"/>
<path d="M356.388 118.141L360.753 116.86C360.828 116.838 360.906 116.882 360.928 116.955L366.318 135.279C366.34 135.352 366.298 135.431 366.222 135.453L361.857 136.734C361.782 136.756 361.704 136.712 361.682 136.639L356.291 118.315C356.27 118.242 356.312 118.163 356.388 118.141Z" fill="#0A2540" stroke="#0A2540"/>
<path d="M332.366 119.119L336.731 117.838C336.806 117.816 336.885 117.86 336.907 117.933L343.94 141.841C343.961 141.915 343.919 141.993 343.843 142.015L339.478 143.295C339.403 143.317 339.325 143.275 339.303 143.201L332.27 119.293C332.248 119.22 332.291 119.141 332.366 119.119Z" fill="#0A2540" stroke="#0A2540"/>
<path d="M310.777 89.3422L362.527 74.1699" stroke="#0A2540" stroke-width="2" stroke-linecap="round" stroke-linejoin="round"/>
<path d="M313.242 97.7238L364.989 82.5483" stroke="#0A2540" stroke-width="2" stroke-linecap="round" stroke-linejoin="round"/>
<path d="M315.705 106.102L367.455 90.927" stroke="#0A2540" stroke-width="2" stroke-linecap="round" stroke-linejoin="round"/>
<path d="M426.166 134.411C426.519 133.044 429.674 129.189 427.259 128.344L401.468 119.094L400.336 121.134L424.108 135.048C424.848 135.48 425.8 135.186 426.163 134.411H426.166Z" fill="#006AF2"/>
<path d="M374.003 93.7187C399.493 83.496 415.361 121.089 390.237 132.17C364.747 142.392 348.882 104.799 374.003 93.7187Z" fill="#EBEEF1"/>
<path d="M375.693 97.7272C395.87 89.6368 408.429 119.392 388.54 128.161C368.363 136.252 355.804 106.496 375.693 97.7272Z" fill="white"/>
<path d="M374.003 93.7187C399.493 83.496 415.361 121.089 390.237 132.17C364.747 142.392 348.882 104.799 374.003 93.7187Z" stroke="#006AF2" stroke-width="3" stroke-linecap="round" stroke-linejoin="round"/>
<path d="M382.217 104.934L382.092 115.124" stroke="#006AF2" stroke-width="3" stroke-linecap="round" stroke-linejoin="round"/>
<ellipse cx="382.019" cy="120.945" rx="1.28252" ry="1.28063" fill="#0A2540"/>
<path d="M382.025 120.945C382.025 120.945 382.01 120.936 382.01 120.945C382.01 120.954 382.025 120.954 382.025 120.945Z" fill="#0A2540" stroke="#006AF2" stroke-width="3" stroke-linecap="round" stroke-linejoin="round"/>
<path d="M497.265 308.531C488.258 308.928 479.423 308.016 470.76 305.797C462.09 303.425 454.053 299.802 446.65 294.927L459.963 258.55C465.626 262.125 471.479 264.773 477.52 266.496C483.707 268.059 489.853 268.706 495.96 268.438C506.341 267.981 513.919 264.665 518.695 258.49C523.471 252.314 525.603 243.425 525.093 231.823L524.69 222.664L528.583 222.492C527.464 228.354 525.167 233.502 521.691 237.938C518.361 242.214 514.151 245.612 509.062 248.13C504.118 250.489 498.517 251.806 492.258 252.081C483.709 252.458 475.822 250.51 468.598 246.24C461.368 241.816 455.517 235.726 451.046 227.969C446.568 220.059 444.107 211.067 443.664 200.991C443.174 189.847 445.183 179.893 449.692 171.129C454.194 162.212 460.612 155.123 468.946 149.862C477.433 144.594 487.248 141.715 498.392 141.225C520.223 140.264 537.408 146.697 549.946 160.523C562.485 174.349 569.336 194.467 570.498 220.877C571.27 238.433 568.882 253.681 563.333 266.62C557.778 279.407 549.347 289.414 538.04 296.642C526.886 303.863 513.294 307.826 497.265 308.531ZM504.136 214.391C507.189 214.256 509.827 213.375 512.05 211.748C514.272 210.121 515.937 207.983 517.044 205.334C518.145 202.532 518.614 199.299 518.453 195.635C518.292 191.972 517.54 188.793 516.198 186.098C514.856 183.404 513.009 181.421 510.659 180.147C508.302 178.722 505.597 178.076 502.544 178.21C499.49 178.345 496.853 179.225 494.63 180.853C492.4 182.327 490.735 184.466 489.635 187.267C488.535 190.069 488.065 193.302 488.226 196.965C488.388 200.629 489.139 203.808 490.481 206.502C491.817 209.044 493.663 211.028 496.02 212.453C498.377 213.879 501.082 214.525 504.136 214.391Z" fill="#DAE0E7"/>
<path d="M284.864 300.787L264.183 297.346L257.289 338.649L213.007 331.279L219.901 289.976L138.762 276.471L144.11 244.433L234.929 144.441L288.224 153.313L270.544 259.221L291.225 262.663L284.86 300.791L284.864 300.787ZM235.855 194.392L191.265 246.021L226.265 251.845L235.855 194.392Z" fill="#DAE0E7"/>
<path d="M758 286.953H0V383H758V286.953Z" fill="white"/>
<path d="M137.389 331.462H110.549C110.216 331.5 110.462 330.306 110.389 330.165C110.344 329.714 137.235 330.156 137.389 330.005C137.722 329.967 137.476 331.161 137.549 331.302C137.549 331.392 137.479 331.462 137.389 331.462Z" fill="#006AF2" fill-opacity="0.32"/>
<path d="M211.086 331.462H184.246C183.913 331.5 184.16 330.306 184.086 330.165C184.041 329.714 210.932 330.156 211.086 330.005C211.42 329.967 211.173 331.161 211.247 331.302C211.247 331.392 211.176 331.462 211.086 331.462Z" fill="#006AF2" fill-opacity="0.32"/>
<path d="M278.164 314.18H251.324C250.991 314.218 251.238 313.024 251.164 312.883C251.119 312.432 278.011 312.874 278.164 312.723C278.498 312.685 278.251 313.879 278.325 314.02C278.325 314.109 278.254 314.18 278.164 314.18Z" fill="#006AF2" fill-opacity="0.32"/>
<path d="M316.313 333.293H289.473C289.139 333.332 289.386 332.138 289.313 331.997C289.268 331.545 316.159 331.987 316.313 331.837C316.646 331.798 316.399 332.992 316.473 333.133C316.473 333.223 316.403 333.293 316.313 333.293Z" fill="#006AF2" fill-opacity="0.32"/>
<path d="M410.436 333.293H383.596C383.262 333.332 383.509 332.138 383.436 331.997C383.391 331.545 410.282 331.987 410.436 331.837C410.769 331.798 410.522 332.992 410.596 333.133C410.596 333.223 410.526 333.293 410.436 333.293Z" fill="#006AF2" fill-opacity="0.32"/>
<path d="M515.741 332.211H488.901C488.567 332.25 488.814 331.056 488.74 330.915C488.695 330.463 515.587 330.905 515.741 330.755C516.074 330.716 515.827 331.91 515.901 332.051C515.901 332.141 515.83 332.211 515.741 332.211Z" fill="#006AF2" fill-opacity="0.32"/>
<path d="M181.219 311.379H154.379C154.046 311.417 154.293 310.223 154.219 310.082C154.174 309.63 181.065 310.072 181.219 309.922C181.553 309.883 181.306 311.078 181.379 311.218C181.379 311.308 181.309 311.379 181.219 311.379Z" fill="#006AF2" fill-opacity="0.32"/>
<path d="M368.625 310.668H341.785C341.452 310.706 341.699 309.512 341.625 309.371C341.58 308.92 368.471 309.362 368.625 309.211C368.959 309.173 368.712 310.367 368.786 310.508C368.786 310.597 368.715 310.668 368.625 310.668Z" fill="#006AF2" fill-opacity="0.32"/>
<path d="M559.567 310.556H532.727C532.393 310.594 532.64 309.4 532.566 309.259C532.522 308.808 559.413 309.25 559.567 309.099C559.9 309.061 559.653 310.255 559.727 310.396C559.727 310.485 559.657 310.556 559.567 310.556Z" fill="#006AF2" fill-opacity="0.32"/>
<path d="M465.584 303.775H438.744C438.411 303.813 438.658 302.619 438.584 302.478C438.539 302.027 465.43 302.469 465.584 302.318C465.918 302.28 465.671 303.474 465.745 303.615C465.745 303.704 465.674 303.775 465.584 303.775Z" fill="#006AF2" fill-opacity="0.32"/>
</svg>
