<svg width="547" height="246" viewBox="0 0 547 246" fill="none" xmlns="http://www.w3.org/2000/svg">
<path d="M237.105 9.32959L210.328 29.1329L212.378 29.6029L237.105 32.8898V9.32959Z" fill="#006AF2"/>
<path d="M351.773 0H239.05C234.881 1.78141 204.201 25.1543 201.035 28.9828V208.898C201.035 211.654 203.28 213.898 206.036 213.898H351.773C354.53 213.898 356.775 211.657 356.775 208.898V4.9968C356.775 2.24124 354.53 0 351.773 0ZM210.328 29.1327L237.105 9.3294V32.8896L212.375 29.6027L210.1 29.2996L210.328 29.1327ZM349.549 206.684H208.257V36.3332L240.24 40.5841C240.401 40.6045 240.558 40.6148 240.718 40.6148C241.588 40.6148 242.434 40.3014 243.099 39.7224C243.884 39.0377 244.331 38.0499 244.331 37.0077V7.21419H349.549V206.684Z" fill="#0A2540"/>
<path d="M257.911 66.9953L252.886 62.4583L257.911 57.9213C258.897 57.0323 258.976 55.5098 258.082 54.5254C257.191 53.5411 255.666 53.4627 254.68 54.3551L249.294 59.2191L243.907 54.3551C242.921 53.4661 241.396 53.5411 240.506 54.5254C239.615 55.5098 239.69 57.0323 240.676 57.9213L245.701 62.4583L240.676 66.9953C239.69 67.8843 239.612 69.4068 240.506 70.3912C240.98 70.9158 241.635 71.1848 242.293 71.1848C242.87 71.1848 243.446 70.9805 243.907 70.5649L249.294 65.701L254.684 70.5649C255.144 70.9805 255.721 71.1848 256.297 71.1848C256.956 71.1848 257.611 70.9192 258.085 70.3912C258.976 69.4068 258.9 67.8843 257.915 66.9953H257.911Z" fill="#0A2540"/>
<path d="M318.94 65.0607L313.915 60.5238L318.94 55.9868C319.926 55.0978 320.005 53.5752 319.111 52.5909C318.221 51.6065 316.696 51.5281 315.71 52.4206L310.323 57.2845L304.936 52.4206C303.95 51.5316 302.425 51.6065 301.535 52.5909C300.644 53.5752 300.719 55.0978 301.705 55.9868L306.731 60.5238L301.705 65.0607C300.719 65.9497 300.641 67.4723 301.535 68.4566C302.009 68.9812 302.664 69.2503 303.322 69.2503C303.899 69.2503 304.476 69.0459 304.936 68.6304L310.326 63.7664L315.713 68.6304C316.174 69.0459 316.75 69.2503 317.327 69.2503C317.985 69.2503 318.64 68.9846 319.114 68.4566C320.005 67.4723 319.93 65.9497 318.944 65.0607H318.94Z" fill="#0A2540"/>
<path d="M253.297 130.69C254.737 132.192 256.429 132.921 258.462 132.921C262.317 132.921 264.344 131.225 265.695 126.865C267.162 122.124 267.516 114.937 267.97 105.836C268.069 103.846 268.171 101.813 268.287 99.6943C267.424 99.9123 266.561 100.154 265.695 100.423C263.764 101.016 261.932 101.701 260.212 102.433C260.291 102.661 260.339 102.903 260.342 103.158L260.864 123.602C260.898 124.93 259.847 126.034 258.517 126.068C258.496 126.068 258.476 126.068 258.455 126.068C257.156 126.068 256.081 125.033 256.05 123.725L255.562 104.654C252.437 106.312 249.855 108.026 247.924 109.439C247.873 114.644 248.719 125.922 253.301 130.694L253.297 130.69Z" fill="#006AF2"/>
<path d="M318.869 108.67C309.409 100.771 299.403 95.8693 289.124 94.1049C280.861 92.688 272.435 93.2875 264.084 95.8863C249.943 100.287 240.991 108.83 240.616 109.191C239.661 110.114 239.637 111.633 240.558 112.587C241.029 113.074 241.66 113.319 242.291 113.319C242.601 113.319 242.908 113.258 243.202 113.142C243.277 114.562 243.406 116.197 243.628 117.938C244.57 125.302 246.651 130.711 249.817 134.011C252.181 136.477 255.091 137.727 258.465 137.727C264.462 137.727 268.331 134.638 270.299 128.282C271.944 122.962 272.316 115.509 272.783 106.071C272.899 103.697 273.022 101.258 273.172 98.6964C287.896 96.4347 302.201 101.009 315.785 112.355C316.805 113.207 318.323 113.074 319.176 112.052C320.029 111.033 319.896 109.518 318.876 108.666L318.869 108.67ZM267.969 105.836C267.519 114.937 267.161 122.124 265.694 126.865C264.346 131.222 262.32 132.921 258.461 132.921C256.425 132.921 254.736 132.192 253.296 130.69C248.718 125.922 247.872 114.641 247.92 109.436C249.851 108.022 252.433 106.309 255.558 104.65L256.046 123.721C256.08 125.029 257.151 126.065 258.451 126.065C258.472 126.065 258.492 126.065 258.513 126.065C259.843 126.031 260.894 124.927 260.86 123.599L260.338 103.155C260.331 102.903 260.287 102.658 260.208 102.43C261.928 101.697 263.76 101.013 265.69 100.42C266.557 100.154 267.42 99.9124 268.283 99.691C268.167 101.81 268.065 103.843 267.966 105.832L267.969 105.836Z" fill="#0A2540"/>
<path d="M363.607 245.971L188.367 227.714L198.499 144.021L373.739 162.282L363.607 245.971Z" fill="url(#paint0_linear_2616_2270)"/>
<path d="M206.432 105.526C205.644 104.457 204.136 104.225 203.065 105.012C202.805 105.203 196.661 109.743 190.118 117.567C186.266 122.172 183.073 126.968 180.634 131.822C177.553 137.942 175.663 144.172 175.015 150.337C173.647 163.321 177.7 175.999 187.068 188.098C187.054 188.295 187.044 188.496 187.044 188.697C187.044 193.326 190.804 197.08 195.44 197.08C200.076 197.08 203.836 193.326 203.836 188.697C203.836 184.068 200.076 180.315 195.44 180.315C193.004 180.315 190.814 181.35 189.279 183.006C181.845 172.586 178.658 161.806 179.801 150.872C181.128 138.201 188.105 127.503 193.727 120.758C199.905 113.347 205.855 108.936 205.917 108.891C206.988 108.105 207.216 106.599 206.432 105.53V105.526Z" fill="#0A2540"/>
<path d="M382.636 150.333C381.988 144.168 380.098 137.938 377.018 131.818C374.575 126.964 371.385 122.168 367.533 117.563C360.99 109.739 354.846 105.199 354.587 105.008C353.516 104.221 352.008 104.453 351.22 105.522C350.432 106.592 350.664 108.097 351.735 108.884C351.793 108.928 357.664 113.264 363.835 120.645C369.488 127.403 376.509 138.129 377.847 150.834C378.921 161.035 376.226 171.101 369.833 180.863C368.898 180.505 367.885 180.307 366.824 180.307C362.188 180.307 358.428 184.061 358.428 188.69C358.428 193.319 362.188 197.072 366.824 197.072C371.46 197.072 375.22 193.319 375.22 188.69C375.22 186.874 374.64 185.192 373.654 183.819C380.825 173.022 383.844 161.795 382.636 150.333Z" fill="#0A2540"/>
<path d="M231.837 204.034L219.606 202.665C217.345 202.413 215.403 201.401 215.683 198.915L218.597 172.974C218.777 171.362 220.487 169.874 222.516 170.099L235.023 171.499C236.777 171.696 238.097 173.243 237.916 174.854C237.728 176.513 236.118 177.545 234.365 177.35L224.765 176.278L223.932 183.696L232.655 184.674C234.269 184.854 235.699 186.274 235.514 187.933C235.327 189.592 233.798 190.726 232 190.525L223.277 189.548L222.435 197.058L232.495 198.182C234.204 198.373 235.579 199.834 235.405 201.401C235.218 203.06 233.594 204.232 231.84 204.034H231.837Z" fill="#0A2540"/>
<path d="M257.161 192.824L262.418 203.022C263.684 205.495 261.145 207.685 259.071 207.454C257.918 207.324 257.004 206.708 256.509 205.72L250.116 192.736L246.977 192.385L245.794 202.937C245.613 204.548 243.931 205.808 242.174 205.611C240.468 205.42 239.145 203.874 239.332 202.215L242.31 175.674C242.512 173.876 244.299 172.537 246.189 172.749L254.22 173.648C262.896 174.618 265.113 179.857 264.567 184.697C264.056 189.258 261.275 191.98 257.161 192.828V192.824ZM253.377 179.479L248.485 178.931L247.626 186.581L252.794 187.16C255.977 187.517 257.836 186.37 258.102 183.975C258.321 182.04 257.574 179.949 253.374 179.479H253.377Z" fill="#0A2540"/>
<path d="M285.081 195.948L290.338 206.146C291.604 208.619 289.065 210.809 286.991 210.578C285.838 210.448 284.924 209.832 284.429 208.844L278.036 195.86L274.897 195.509L273.714 206.061C273.533 207.672 271.847 208.932 270.094 208.735C268.385 208.544 267.065 206.998 267.252 205.339L270.23 178.798C270.432 177 272.219 175.661 274.109 175.873L282.14 176.772C290.816 177.742 293.033 182.981 292.487 187.821C291.975 192.382 289.192 195.104 285.081 195.952V195.948ZM281.297 182.603L276.405 182.055L275.546 189.705L280.714 190.284C283.897 190.642 285.756 189.494 286.026 187.099C286.244 185.164 285.497 183.073 281.297 182.603Z" fill="#0A2540"/>
<path d="M295.587 199.317L296.611 190.195C297.344 183.652 301.336 178.502 309.963 179.466C318.595 180.43 321.341 186.336 320.607 192.879L319.584 202.001C318.83 208.728 314.207 213.67 306.224 212.775C298.241 211.882 294.83 206.041 295.587 199.314V199.317ZM303.072 190.917L302.049 200.039C301.636 203.725 303.099 206.501 306.883 206.926C310.666 207.349 312.71 204.964 313.126 201.279L314.149 192.157C314.569 188.424 313.372 185.771 309.308 185.318C305.249 184.865 303.492 187.188 303.072 190.917Z" fill="#0A2540"/>
<path d="M341.38 202.246L346.637 212.444C347.903 214.917 345.365 217.107 343.291 216.875C342.137 216.746 341.223 216.13 340.728 215.142L334.335 202.158L331.197 201.807L330.013 212.359C329.832 213.97 328.15 215.23 326.397 215.033C324.691 214.842 323.367 213.296 323.555 211.637L326.533 185.096C326.734 183.298 328.522 181.959 330.412 182.17L338.443 183.07C347.118 184.04 349.336 189.279 348.79 194.119C348.278 198.68 345.494 201.401 341.383 202.25L341.38 202.246ZM337.597 188.901L332.705 188.353L331.845 196.003L337.013 196.582C340.196 196.939 342.056 195.792 342.325 193.397C342.543 191.462 341.796 189.371 337.597 188.901Z" fill="#0A2540"/>
<path d="M134.039 155.041H121.419V97.3852C121.419 90.8454 115.224 85.525 107.606 85.525C99.9883 85.525 93.7964 90.624 93.7964 97.3852V155.041H32.2423L37.3391 143.283C46.7003 121.691 55.2974 102.15 63.6147 83.2532L63.6215 83.2361C71.9388 64.3355 80.5392 44.7877 89.88 23.2405L89.9107 23.1757C90.477 21.9018 90.477 21.1014 90.477 19.5039C90.477 16.5951 88.9213 13.5057 86.2092 11.0329C83.439 8.50892 79.8706 7 76.6637 7C71.2906 7 66.2722 10.0315 64.4607 14.3709L64.4129 14.4799L2.48359 157.146L2.44265 157.238C1.11557 160.113 0.170576 164.139 0 165.263C0.153518 171.772 5.56419 178.444 14.4546 178.444H93.7964V213.248C93.7964 220.01 99.7324 225.108 107.606 225.108C115.48 225.108 121.419 220.01 121.419 213.248V178.444H134.039C141.421 178.444 147.207 173.236 147.207 166.584C147.207 159.932 141.302 155.048 134.039 155.048V155.041Z" fill="#DAE0E7"/>
<path d="M533.832 156.57H521.212V98.914C521.212 92.3742 515.017 87.0539 507.399 87.0539C499.781 87.0539 493.589 92.1528 493.589 98.914V156.57H432.035L437.132 144.812C446.49 123.224 455.097 103.666 463.418 84.7547L463.425 84.7343C471.739 65.8404 480.336 46.3063 489.669 24.7693L489.704 24.6943C490.267 23.4307 490.267 22.6302 490.267 21.0327C490.267 18.1239 488.711 15.0345 485.999 12.5617C483.229 10.0377 479.66 8.52881 476.453 8.52881C471.08 8.52881 466.062 11.5603 464.25 15.8997L464.202 16.0087L402.277 158.668L402.236 158.756C400.905 161.631 399.964 165.657 399.793 166.781C399.946 173.29 405.357 179.963 414.248 179.963H493.589V214.767C493.589 221.528 499.525 226.627 507.399 226.627C515.273 226.627 521.212 221.528 521.212 214.767V179.963H533.832C541.214 179.963 547 174.752 547 168.103C547 161.454 541.095 156.566 533.832 156.566V156.57Z" fill="#DAE0E7"/>
<defs>
<linearGradient id="paint0_linear_2616_2270" x1="281.053" y1="144.021" x2="281.053" y2="245.971" gradientUnits="userSpaceOnUse">
<stop stop-color="#D5F8F8"/>
<stop offset="1" stop-color="#EDFEE1"/>
</linearGradient>
</defs>
</svg>
