<svg width="8" height="13" viewBox="0 0 8 13" fill="none" xmlns="http://www.w3.org/2000/svg">
<path d="M7.3125 0V2.59961H5.31836C5.14205 2.59961 4.97233 2.66814 4.84766 2.79004C4.72303 2.91193 4.65332 3.07764 4.65332 3.25V5.2002H7.3125L6.64746 7.7998H4.65332V13H1.99414V7.7998H0V5.2002H1.99414V3.25C1.99414 2.38812 2.34453 1.56163 2.96777 0.952148C3.59112 0.342655 4.43682 0 5.31836 0H7.3125Z" fill="black"/>
<path d="M7.3125 0V2.59961H5.31836C5.14205 2.59961 4.97233 2.66814 4.84766 2.79004C4.72303 2.91193 4.65332 3.07764 4.65332 3.25V5.2002H7.3125L6.64746 7.7998H4.65332V13H1.99414V7.7998H0V5.2002H1.99414V3.25C1.99414 2.38812 2.34453 1.56163 2.96777 0.952148C3.59112 0.342655 4.43682 0 5.31836 0H7.3125Z" stroke="black"/>
</svg>
