<svg width="219" height="329" viewBox="0 0 219 329" fill="none" xmlns="http://www.w3.org/2000/svg">
<ellipse cx="109.775" cy="325" rx="109" ry="4" fill="#F0F2F4"/>
<path opacity="0.4" d="M12.1162 0L28.0913 324.275H195.822L211.797 0H12.1162Z" fill="#C5F1FC"/>
<path opacity="0.5" d="M27.9316 318.525L28.0917 324.275H195.823L195.983 318.205C171.909 313.491 143.389 306.064 112.117 306.064C80.8455 306.064 52.0682 313.776 27.9316 318.525Z" fill="#C5F1FC"/>
<g style="mix-blend-mode:screen" opacity="0.5">
<path d="M169.957 0L156.686 324.275H177.921L191.193 0H169.957Z" fill="#C5F1FC"/>
</g>
<g style="mix-blend-mode:multiply" opacity="0.4">
<path d="M12.1162 0L28.0913 324.275H70.5824L54.6073 0H12.1162Z" fill="#C5F1FC"/>
</g>
<path d="M18.2158 7.84814H204.827L196.107 177.891H26.936L18.2158 7.84814Z" fill="white" fill-opacity="0.2"/>
<path d="M26.9365 169.609L32.8571 287.097C33.5225 300.658 44.6537 311.309 58.1607 311.309H164.883C178.39 311.309 189.524 300.658 190.186 287.097L196.107 173.5L26.9365 169.609Z" fill="#26DBF0"/>
<g style="mix-blend-mode:screen">
<path d="M144.722 248.561C146.946 246.326 146.946 242.701 144.722 240.466C142.498 238.231 138.892 238.231 136.668 240.466C134.444 242.701 134.444 246.326 136.668 248.561C138.892 250.797 142.498 250.797 144.722 248.561Z" fill="#7FDAEF"/>
</g>
<g style="mix-blend-mode:screen">
<path d="M141.789 245.395C143.119 245.395 144.198 244.311 144.198 242.973C144.198 241.636 143.119 240.551 141.789 240.551C140.458 240.551 139.379 241.636 139.379 242.973C139.379 244.311 140.458 245.395 141.789 245.395Z" fill="#7FDAEF"/>
</g>
<g style="mix-blend-mode:screen">
<path d="M87.2259 228.801C87.8392 226.189 86.2298 223.572 83.6312 222.956C81.0327 222.339 78.4289 223.957 77.8156 226.569C77.2023 229.181 78.8116 231.798 81.4102 232.414C84.0088 233.03 86.6125 231.413 87.2259 228.801Z" fill="#7FDAEF"/>
</g>
<g style="mix-blend-mode:screen">
<path d="M85.4973 226.375C85.4973 227.509 84.58 228.43 83.4523 228.43C82.3245 228.43 81.4072 227.509 81.4072 226.375C81.4072 225.242 82.3245 224.32 83.4523 224.32C84.58 224.32 85.4973 225.242 85.4973 226.375Z" fill="#7FDAEF"/>
</g>
<g style="mix-blend-mode:screen">
<path d="M140.004 282.159C141.814 282.159 143.282 280.684 143.282 278.864C143.282 277.044 141.814 275.569 140.004 275.569C138.193 275.569 136.726 277.044 136.726 278.864C136.726 280.684 138.193 282.159 140.004 282.159Z" fill="#7FDAEF"/>
</g>
<g style="mix-blend-mode:screen">
<path d="M142.022 277.98C142.022 278.751 141.402 279.374 140.635 279.374C139.868 279.374 139.248 278.751 139.248 277.98C139.248 277.209 139.868 276.586 140.635 276.586C141.402 276.586 142.022 277.209 142.022 277.98Z" fill="#7FDAEF"/>
</g>
<path d="M22.7559 89.1616H199.851L197.775 128.914H24.7559L22.7559 89.1616Z" fill="#26DBF0"/>
<path d="M200.275 83.6618L199.775 90.6618L23.0446 92.1618L22.7754 89.1618C48.506 85.9652 81.3378 67.4736 111.895 78.4361C155.671 94.1412 180.603 88.9642 200.275 83.6618Z" fill="#26DBF0"/>
<path d="M24.7754 129H197.775L196.032 174H26.9542L24.7754 129Z" fill="white"/>
</svg>
