<svg width="200" height="128" viewBox="0 0 200 128" fill="none" xmlns="http://www.w3.org/2000/svg">
<ellipse cx="18.2219" cy="54.3313" rx="18.2219" ry="0.668693" fill="#F0F2F4"/>
<path opacity="0.4" d="M1.89551 0L4.56611 54.2102H32.6063L35.2769 0H1.89551Z" fill="#C5F1FC"/>
<path opacity="0.5" d="M4.54004 53.2489L4.56679 54.2103H32.6069L32.6337 53.1954C28.6092 52.4074 23.8414 51.1658 18.6136 51.1658C13.3858 51.1658 8.57502 52.4551 4.54004 53.2489Z" fill="#C5F1FC"/>
<g style="mix-blend-mode:screen" opacity="0.5">
<path d="M28.2822 0L26.0635 54.2102H29.6134L31.8321 0H28.2822Z" fill="#C5F1FC"/>
</g>
<g style="mix-blend-mode:multiply" opacity="0.4">
<path d="M1.89551 0L4.56611 54.2102H11.6695L8.99889 0H1.89551Z" fill="#C5F1FC"/>
</g>
<g style="mix-blend-mode:screen">
<path d="M30.4824 9.41586C30.585 8.97924 30.3159 8.54175 29.8815 8.4387C29.4471 8.33565 29.0118 8.60606 28.9093 9.04268C28.8068 9.4793 29.0758 9.91679 29.5102 10.0198C29.9446 10.1229 30.3799 9.85248 30.4824 9.41586Z" fill="#7FDAEF"/>
</g>
<g style="mix-blend-mode:screen">
<path d="M30.1935 9.01036C30.1935 9.19986 30.0402 9.35398 29.8516 9.35398C29.6631 9.35398 29.5098 9.19986 29.5098 9.01036C29.5098 8.82087 29.6631 8.66675 29.8516 8.66675C30.0402 8.66675 30.1935 8.82087 30.1935 9.01036Z" fill="#7FDAEF"/>
</g>
<g style="mix-blend-mode:screen">
<path d="M23.2746 47.1695C23.5772 47.1695 23.8226 46.9229 23.8226 46.6187C23.8226 46.3145 23.5772 46.0679 23.2746 46.0679C22.9719 46.0679 22.7266 46.3145 22.7266 46.6187C22.7266 46.9229 22.9719 47.1695 23.2746 47.1695Z" fill="#7FDAEF"/>
</g>
<g style="mix-blend-mode:screen">
<path d="M23.6122 46.4709C23.6122 46.5997 23.5085 46.7039 23.3803 46.7039C23.2521 46.7039 23.1484 46.5997 23.1484 46.4709C23.1484 46.342 23.2521 46.2378 23.3803 46.2378C23.5085 46.2378 23.6122 46.342 23.6122 46.4709Z" fill="#7FDAEF"/>
</g>
<g style="mix-blend-mode:screen">
<path d="M13.2746 14.1695C13.5772 14.1695 13.8226 13.9229 13.8226 13.6187C13.8226 13.3145 13.5772 13.0679 13.2746 13.0679C12.9719 13.0679 12.7266 13.3145 12.7266 13.6187C12.7266 13.9229 12.9719 14.1695 13.2746 14.1695Z" fill="#7FDAEF"/>
</g>
<g style="mix-blend-mode:screen">
<path d="M13.6122 13.4709C13.6122 13.5997 13.5085 13.7039 13.3803 13.7039C13.2521 13.7039 13.1484 13.5997 13.1484 13.4709C13.1484 13.342 13.2521 13.2378 13.3803 13.2378C13.5085 13.2378 13.6122 13.342 13.6122 13.4709Z" fill="#7FDAEF"/>
</g>
<ellipse cx="72.6652" cy="54.3313" rx="18.2219" ry="0.668693" fill="#F0F2F4"/>
<path opacity="0.4" d="M56.3389 0L59.0095 54.2102H87.0496L89.7202 0H56.3389Z" fill="#C5F1FC"/>
<path opacity="0.5" d="M58.9834 53.2489L59.0102 54.2103H87.0503L87.0771 53.1954C83.0525 52.4074 78.2848 51.1658 73.057 51.1658C67.8292 51.1658 63.0184 52.4551 58.9834 53.2489Z" fill="#C5F1FC"/>
<g style="mix-blend-mode:screen" opacity="0.5">
<path d="M82.7256 0L80.5068 54.2102H84.0568L86.2755 0H82.7256Z" fill="#C5F1FC"/>
</g>
<g style="mix-blend-mode:multiply" opacity="0.4">
<path d="M56.3389 0L59.0095 54.2102H66.1128L63.4422 0H56.3389Z" fill="#C5F1FC"/>
</g>
<g style="mix-blend-mode:screen">
<path d="M84.9258 9.41586C85.0283 8.97924 84.7593 8.54175 84.3249 8.4387C83.8904 8.33565 83.4552 8.60606 83.3526 9.04268C83.2501 9.4793 83.5192 9.91679 83.9536 10.0198C84.388 10.1229 84.8233 9.85248 84.9258 9.41586Z" fill="#7FDAEF"/>
</g>
<g style="mix-blend-mode:screen">
<path d="M84.6369 9.01036C84.6369 9.19986 84.4835 9.35398 84.295 9.35398C84.1065 9.35398 83.9531 9.19986 83.9531 9.01036C83.9531 8.82087 84.1065 8.66675 84.295 8.66675C84.4835 8.66675 84.6369 8.82087 84.6369 9.01036Z" fill="#7FDAEF"/>
</g>
<g style="mix-blend-mode:screen">
<path d="M77.7179 47.1695C78.0206 47.1695 78.2659 46.9229 78.2659 46.6187C78.2659 46.3145 78.0206 46.0679 77.7179 46.0679C77.4153 46.0679 77.1699 46.3145 77.1699 46.6187C77.1699 46.9229 77.4153 47.1695 77.7179 47.1695Z" fill="#7FDAEF"/>
</g>
<g style="mix-blend-mode:screen">
<path d="M78.0556 46.4709C78.0556 46.5997 77.9519 46.7039 77.8237 46.7039C77.6955 46.7039 77.5918 46.5997 77.5918 46.4709C77.5918 46.342 77.6955 46.2378 77.8237 46.2378C77.9519 46.2378 78.0556 46.342 78.0556 46.4709Z" fill="#7FDAEF"/>
</g>
<g style="mix-blend-mode:screen">
<path d="M67.7179 14.1695C68.0206 14.1695 68.2659 13.9229 68.2659 13.6187C68.2659 13.3145 68.0206 13.0679 67.7179 13.0679C67.4153 13.0679 67.1699 13.3145 67.1699 13.6187C67.1699 13.9229 67.4153 14.1695 67.7179 14.1695Z" fill="#7FDAEF"/>
</g>
<g style="mix-blend-mode:screen">
<path d="M68.0556 13.4709C68.0556 13.5997 67.9519 13.7039 67.8237 13.7039C67.6955 13.7039 67.5918 13.5997 67.5918 13.4709C67.5918 13.342 67.6955 13.2378 67.8237 13.2378C67.9519 13.2378 68.0556 13.342 68.0556 13.4709Z" fill="#7FDAEF"/>
</g>
<ellipse cx="127.11" cy="54.3313" rx="18.2219" ry="0.668693" fill="#F0F2F4"/>
<path opacity="0.4" d="M110.783 0L113.454 54.2102H141.494L144.165 0H110.783Z" fill="#C5F1FC"/>
<path opacity="0.5" d="M113.428 53.2489L113.454 54.2103H141.495L141.521 53.1954C137.497 52.4074 132.729 51.1658 127.501 51.1658C122.274 51.1658 117.463 52.4551 113.428 53.2489Z" fill="#C5F1FC"/>
<g style="mix-blend-mode:screen" opacity="0.5">
<path d="M137.17 0L134.951 54.2102H138.501L140.72 0H137.17Z" fill="#C5F1FC"/>
</g>
<g style="mix-blend-mode:multiply" opacity="0.4">
<path d="M110.783 0L113.454 54.2102H120.557L117.887 0H110.783Z" fill="#C5F1FC"/>
</g>
<g style="mix-blend-mode:screen">
<path d="M139.37 9.41586C139.473 8.97924 139.204 8.54175 138.769 8.4387C138.335 8.33565 137.9 8.60606 137.797 9.04268C137.694 9.4793 137.963 9.91679 138.398 10.0198C138.832 10.1229 139.268 9.85248 139.37 9.41586Z" fill="#7FDAEF"/>
</g>
<g style="mix-blend-mode:screen">
<path d="M139.08 9.01036C139.08 9.19986 138.927 9.35398 138.738 9.35398C138.55 9.35398 138.396 9.19986 138.396 9.01036C138.396 8.82087 138.55 8.66675 138.738 8.66675C138.927 8.66675 139.08 8.82087 139.08 9.01036Z" fill="#7FDAEF"/>
</g>
<g style="mix-blend-mode:screen">
<path d="M132.163 47.1695C132.466 47.1695 132.711 46.9229 132.711 46.6187C132.711 46.3145 132.466 46.0679 132.163 46.0679C131.861 46.0679 131.615 46.3145 131.615 46.6187C131.615 46.9229 131.861 47.1695 132.163 47.1695Z" fill="#7FDAEF"/>
</g>
<g style="mix-blend-mode:screen">
<path d="M132.501 46.4709C132.501 46.5997 132.397 46.7039 132.269 46.7039C132.141 46.7039 132.037 46.5997 132.037 46.4709C132.037 46.342 132.141 46.2378 132.269 46.2378C132.397 46.2378 132.501 46.342 132.501 46.4709Z" fill="#7FDAEF"/>
</g>
<g style="mix-blend-mode:screen">
<path d="M122.163 14.1695C122.466 14.1695 122.711 13.9229 122.711 13.6187C122.711 13.3145 122.466 13.0679 122.163 13.0679C121.861 13.0679 121.615 13.3145 121.615 13.6187C121.615 13.9229 121.861 14.1695 122.163 14.1695Z" fill="#7FDAEF"/>
</g>
<g style="mix-blend-mode:screen">
<path d="M122.501 13.4709C122.501 13.5997 122.397 13.7039 122.269 13.7039C122.141 13.7039 122.037 13.5997 122.037 13.4709C122.037 13.342 122.141 13.2378 122.269 13.2378C122.397 13.2378 122.501 13.342 122.501 13.4709Z" fill="#7FDAEF"/>
</g>
<ellipse cx="181.553" cy="54.3313" rx="18.2219" ry="0.668693" fill="#F0F2F4"/>
<path opacity="0.4" d="M165.227 0L167.897 54.2102H195.937L198.608 0H165.227Z" fill="#C5F1FC"/>
<path opacity="0.5" d="M167.871 53.2489L167.898 54.2103H195.938L195.965 53.1954C191.94 52.4074 187.172 51.1658 181.945 51.1658C176.717 51.1658 171.906 52.4551 167.871 53.2489Z" fill="#C5F1FC"/>
<g style="mix-blend-mode:screen" opacity="0.5">
<path d="M191.613 0L189.395 54.2102H192.944L195.163 0H191.613Z" fill="#C5F1FC"/>
</g>
<g style="mix-blend-mode:multiply" opacity="0.4">
<path d="M165.227 0L167.897 54.2102H175.001L172.33 0H165.227Z" fill="#C5F1FC"/>
</g>
<g style="mix-blend-mode:screen">
<path d="M193.813 9.41586C193.916 8.97924 193.647 8.54175 193.213 8.4387C192.778 8.33565 192.343 8.60606 192.24 9.04268C192.138 9.4793 192.407 9.91679 192.841 10.0198C193.276 10.1229 193.711 9.85248 193.813 9.41586Z" fill="#7FDAEF"/>
</g>
<g style="mix-blend-mode:screen">
<path d="M193.524 9.01036C193.524 9.19986 193.37 9.35398 193.182 9.35398C192.993 9.35398 192.84 9.19986 192.84 9.01036C192.84 8.82087 192.993 8.66675 193.182 8.66675C193.37 8.66675 193.524 8.82087 193.524 9.01036Z" fill="#7FDAEF"/>
</g>
<g style="mix-blend-mode:screen">
<path d="M186.607 47.1695C186.909 47.1695 187.155 46.9229 187.155 46.6187C187.155 46.3145 186.909 46.0679 186.607 46.0679C186.304 46.0679 186.059 46.3145 186.059 46.6187C186.059 46.9229 186.304 47.1695 186.607 47.1695Z" fill="#7FDAEF"/>
</g>
<g style="mix-blend-mode:screen">
<path d="M186.944 46.4709C186.944 46.5997 186.841 46.7039 186.712 46.7039C186.584 46.7039 186.48 46.5997 186.48 46.4709C186.48 46.342 186.584 46.2378 186.712 46.2378C186.841 46.2378 186.944 46.342 186.944 46.4709Z" fill="#7FDAEF"/>
</g>
<g style="mix-blend-mode:screen">
<path d="M176.607 14.1695C176.909 14.1695 177.155 13.9229 177.155 13.6187C177.155 13.3145 176.909 13.0679 176.607 13.0679C176.304 13.0679 176.059 13.3145 176.059 13.6187C176.059 13.9229 176.304 14.1695 176.607 14.1695Z" fill="#7FDAEF"/>
</g>
<g style="mix-blend-mode:screen">
<path d="M176.944 13.4709C176.944 13.5997 176.841 13.7039 176.712 13.7039C176.584 13.7039 176.48 13.5997 176.48 13.4709C176.48 13.342 176.584 13.2378 176.712 13.2378C176.841 13.2378 176.944 13.342 176.944 13.4709Z" fill="#7FDAEF"/>
</g>
<ellipse cx="45.4436" cy="127.331" rx="18.2219" ry="0.668693" fill="#F0F2F4"/>
<path opacity="0.4" d="M29.1172 73L31.7878 127.21H59.8279L62.4985 73H29.1172Z" fill="#C5F1FC"/>
<path opacity="0.5" d="M31.7617 126.249L31.7885 127.21H59.8286L59.8554 126.195C55.8309 125.407 51.0631 124.166 45.8353 124.166C40.6075 124.166 35.7967 125.455 31.7617 126.249Z" fill="#C5F1FC"/>
<g style="mix-blend-mode:screen" opacity="0.5">
<path d="M55.5039 73L53.2852 127.21H56.8351L59.0538 73H55.5039Z" fill="#C5F1FC"/>
</g>
<g style="mix-blend-mode:multiply" opacity="0.4">
<path d="M29.1172 73L31.7878 127.21H38.8912L36.2206 73H29.1172Z" fill="#C5F1FC"/>
</g>
<path d="M31.5947 102.739L32.5845 120.995C32.6958 123.262 34.5566 125.042 36.8146 125.042H54.6556C56.9137 125.042 58.7751 123.262 58.8857 120.995L59.8755 102.739H31.5947Z" fill="#26DBF0"/>
<path d="M30.2217 79H61.2217L59.8606 103H31.6045L30.2217 79Z" fill="#26DBF0"/>
<g style="mix-blend-mode:screen">
<path d="M51.2853 114.553C51.6572 114.179 51.6572 113.573 51.2853 113.2C50.9135 112.826 50.3107 112.826 49.9389 113.2C49.567 113.573 49.567 114.179 49.9389 114.553C50.3107 114.927 50.9135 114.927 51.2853 114.553Z" fill="#7FDAEF"/>
</g>
<g style="mix-blend-mode:screen">
<path d="M50.7954 114.024C51.0179 114.024 51.1982 113.842 51.1982 113.619C51.1982 113.395 51.0179 113.214 50.7954 113.214C50.5729 113.214 50.3926 113.395 50.3926 113.619C50.3926 113.842 50.5729 114.024 50.7954 114.024Z" fill="#7FDAEF"/>
</g>
<g style="mix-blend-mode:screen">
<path d="M41.6738 111.249C41.7764 110.813 41.5073 110.375 41.0729 110.272C40.6385 110.169 40.2032 110.44 40.1007 110.876C39.9982 111.313 40.2672 111.75 40.7016 111.853C41.136 111.956 41.5713 111.686 41.6738 111.249Z" fill="#7FDAEF"/>
</g>
<g style="mix-blend-mode:screen">
<path d="M41.3849 110.844C41.3849 111.033 41.2316 111.187 41.043 111.187C40.8545 111.187 40.7012 111.033 40.7012 110.844C40.7012 110.654 40.8545 110.5 41.043 110.5C41.2316 110.5 41.3849 110.654 41.3849 110.844Z" fill="#7FDAEF"/>
</g>
<g style="mix-blend-mode:screen">
<path d="M47.7041 102.416C47.8066 101.979 47.5376 101.542 47.1032 101.439C46.6688 101.336 46.2335 101.606 46.131 102.043C46.0284 102.479 46.2975 102.917 46.7319 103.02C47.1663 103.123 47.6016 102.852 47.7041 102.416Z" fill="#7FDAEF"/>
</g>
<g style="mix-blend-mode:screen">
<path d="M47.4142 102.01C47.4142 102.2 47.2609 102.354 47.0723 102.354C46.8838 102.354 46.7305 102.2 46.7305 102.01C46.7305 101.821 46.8838 101.667 47.0723 101.667C47.2609 101.667 47.4142 101.821 47.4142 102.01Z" fill="#7FDAEF"/>
</g>
<g style="mix-blend-mode:screen">
<path d="M57.7041 82.4159C57.8066 81.9792 57.5376 81.5418 57.1032 81.4387C56.6688 81.3356 56.2335 81.6061 56.131 82.0427C56.0284 82.4793 56.2975 82.9168 56.7319 83.0198C57.1663 83.1229 57.6016 82.8525 57.7041 82.4159Z" fill="#7FDAEF"/>
</g>
<g style="mix-blend-mode:screen">
<path d="M57.4142 82.0104C57.4142 82.1999 57.2609 82.354 57.0723 82.354C56.8838 82.354 56.7305 82.1999 56.7305 82.0104C56.7305 81.8209 56.8838 81.6667 57.0723 81.6667C57.2609 81.6667 57.4142 81.8209 57.4142 82.0104Z" fill="#7FDAEF"/>
</g>
<g style="mix-blend-mode:screen">
<path d="M50.4972 120.169C50.7999 120.169 51.0452 119.923 51.0452 119.619C51.0452 119.314 50.7999 119.068 50.4972 119.068C50.1946 119.068 49.9492 119.314 49.9492 119.619C49.9492 119.923 50.1946 120.169 50.4972 120.169Z" fill="#7FDAEF"/>
</g>
<g style="mix-blend-mode:screen">
<path d="M50.8349 119.471C50.8349 119.6 50.7312 119.704 50.603 119.704C50.4748 119.704 50.3711 119.6 50.3711 119.471C50.3711 119.342 50.4748 119.238 50.603 119.238C50.7312 119.238 50.8349 119.342 50.8349 119.471Z" fill="#7FDAEF"/>
</g>
<g style="mix-blend-mode:screen">
<path d="M40.4972 87.1695C40.7999 87.1695 41.0452 86.9229 41.0452 86.6187C41.0452 86.3145 40.7999 86.0679 40.4972 86.0679C40.1946 86.0679 39.9492 86.3145 39.9492 86.6187C39.9492 86.9229 40.1946 87.1695 40.4972 87.1695Z" fill="#7FDAEF"/>
</g>
<g style="mix-blend-mode:screen">
<path d="M40.8349 86.4709C40.8349 86.5997 40.7312 86.7039 40.603 86.7039C40.4748 86.7039 40.3711 86.5997 40.3711 86.4709C40.3711 86.342 40.4748 86.2378 40.603 86.2378C40.7312 86.2378 40.8349 86.342 40.8349 86.4709Z" fill="#7FDAEF"/>
</g>
<ellipse cx="99.8869" cy="127.331" rx="18.2219" ry="0.668693" fill="#F0F2F4"/>
<path opacity="0.4" d="M83.5605 73L86.2311 127.21H114.271L116.942 73H83.5605Z" fill="#C5F1FC"/>
<path opacity="0.5" d="M86.2051 126.249L86.2318 127.21H114.272L114.299 126.195C110.274 125.407 105.506 124.166 100.279 124.166C95.0509 124.166 90.2401 125.455 86.2051 126.249Z" fill="#C5F1FC"/>
<g style="mix-blend-mode:screen" opacity="0.5">
<path d="M109.947 73L107.729 127.21H111.278L113.497 73H109.947Z" fill="#C5F1FC"/>
</g>
<g style="mix-blend-mode:multiply" opacity="0.4">
<path d="M83.5605 73L86.2311 127.21H93.3345L90.6639 73H83.5605Z" fill="#C5F1FC"/>
</g>
<path d="M86.0381 102.739L87.0279 120.995C87.1391 123.262 89 125.042 91.258 125.042H109.099C111.357 125.042 113.218 123.262 113.329 120.995L114.319 102.739H86.0381Z" fill="#26DBF0"/>
<path d="M84.665 79H115.665L114.304 103H86.0479L84.665 79Z" fill="#26DBF0"/>
<g style="mix-blend-mode:screen">
<path d="M105.729 114.553C106.101 114.179 106.101 113.573 105.729 113.2C105.357 112.826 104.754 112.826 104.382 113.2C104.01 113.573 104.01 114.179 104.382 114.553C104.754 114.927 105.357 114.927 105.729 114.553Z" fill="#7FDAEF"/>
</g>
<g style="mix-blend-mode:screen">
<path d="M105.239 114.024C105.461 114.024 105.642 113.842 105.642 113.619C105.642 113.395 105.461 113.214 105.239 113.214C105.016 113.214 104.836 113.395 104.836 113.619C104.836 113.842 105.016 114.024 105.239 114.024Z" fill="#7FDAEF"/>
</g>
<g style="mix-blend-mode:screen">
<path d="M96.1172 111.249C96.2197 110.813 95.9507 110.375 95.5163 110.272C95.0819 110.169 94.6466 110.44 94.544 110.876C94.4415 111.313 94.7106 111.75 95.145 111.853C95.5794 111.956 96.0147 111.686 96.1172 111.249Z" fill="#7FDAEF"/>
</g>
<g style="mix-blend-mode:screen">
<path d="M95.8283 110.844C95.8283 111.033 95.6749 111.187 95.4864 111.187C95.2979 111.187 95.1445 111.033 95.1445 110.844C95.1445 110.654 95.2979 110.5 95.4864 110.5C95.6749 110.5 95.8283 110.654 95.8283 110.844Z" fill="#7FDAEF"/>
</g>
<g style="mix-blend-mode:screen">
<path d="M102.147 102.416C102.25 101.979 101.981 101.542 101.547 101.439C101.112 101.336 100.677 101.606 100.574 102.043C100.472 102.479 100.741 102.917 101.175 103.02C101.61 103.123 102.045 102.852 102.147 102.416Z" fill="#7FDAEF"/>
</g>
<g style="mix-blend-mode:screen">
<path d="M101.858 102.01C101.858 102.2 101.704 102.354 101.516 102.354C101.327 102.354 101.174 102.2 101.174 102.01C101.174 101.821 101.327 101.667 101.516 101.667C101.704 101.667 101.858 101.821 101.858 102.01Z" fill="#7FDAEF"/>
</g>
<g style="mix-blend-mode:screen">
<path d="M112.147 82.4159C112.25 81.9792 111.981 81.5418 111.547 81.4387C111.112 81.3356 110.677 81.6061 110.574 82.0427C110.472 82.4793 110.741 82.9168 111.175 83.0198C111.61 83.1229 112.045 82.8525 112.147 82.4159Z" fill="#7FDAEF"/>
</g>
<g style="mix-blend-mode:screen">
<path d="M111.858 82.0104C111.858 82.1999 111.704 82.354 111.516 82.354C111.327 82.354 111.174 82.1999 111.174 82.0104C111.174 81.8209 111.327 81.6667 111.516 81.6667C111.704 81.6667 111.858 81.8209 111.858 82.0104Z" fill="#7FDAEF"/>
</g>
<g style="mix-blend-mode:screen">
<path d="M104.941 120.169C105.243 120.169 105.489 119.923 105.489 119.619C105.489 119.314 105.243 119.068 104.941 119.068C104.638 119.068 104.393 119.314 104.393 119.619C104.393 119.923 104.638 120.169 104.941 120.169Z" fill="#7FDAEF"/>
</g>
<g style="mix-blend-mode:screen">
<path d="M105.278 119.471C105.278 119.6 105.175 119.704 105.046 119.704C104.918 119.704 104.814 119.6 104.814 119.471C104.814 119.342 104.918 119.238 105.046 119.238C105.175 119.238 105.278 119.342 105.278 119.471Z" fill="#7FDAEF"/>
</g>
<g style="mix-blend-mode:screen">
<path d="M94.9406 87.1695C95.2432 87.1695 95.4886 86.9229 95.4886 86.6187C95.4886 86.3145 95.2432 86.0679 94.9406 86.0679C94.6379 86.0679 94.3926 86.3145 94.3926 86.6187C94.3926 86.9229 94.6379 87.1695 94.9406 87.1695Z" fill="#7FDAEF"/>
</g>
<g style="mix-blend-mode:screen">
<path d="M95.2782 86.4709C95.2782 86.5997 95.1746 86.7039 95.0464 86.7039C94.9181 86.7039 94.8145 86.5997 94.8145 86.4709C94.8145 86.342 94.9181 86.2378 95.0464 86.2378C95.1746 86.2378 95.2782 86.342 95.2782 86.4709Z" fill="#7FDAEF"/>
</g>
<ellipse cx="154.331" cy="127.331" rx="18.2219" ry="0.668693" fill="#F0F2F4"/>
<path opacity="0.4" d="M138.005 73L140.675 127.21H168.716L171.386 73H138.005Z" fill="#C5F1FC"/>
<path opacity="0.5" d="M140.649 126.249L140.676 127.21H168.716L168.743 126.195C164.719 125.407 159.951 124.166 154.723 124.166C149.495 124.166 144.684 125.455 140.649 126.249Z" fill="#C5F1FC"/>
<g style="mix-blend-mode:screen" opacity="0.5">
<path d="M164.392 73L162.173 127.21H165.723L167.942 73H164.392Z" fill="#C5F1FC"/>
</g>
<g style="mix-blend-mode:multiply" opacity="0.4">
<path d="M138.005 73L140.675 127.21H147.779L145.108 73H138.005Z" fill="#C5F1FC"/>
</g>
<path d="M140.482 102.739L141.472 120.995C141.583 123.262 143.444 125.042 145.702 125.042H163.543C165.801 125.042 167.663 123.262 167.773 120.995L168.763 102.739H140.482Z" fill="#26DBF0"/>
<path d="M139.109 79H170.109L168.748 103H140.492L139.109 79Z" fill="#26DBF0"/>
<g style="mix-blend-mode:screen">
<path d="M160.173 114.553C160.545 114.179 160.545 113.573 160.173 113.2C159.801 112.826 159.198 112.826 158.827 113.2C158.455 113.573 158.455 114.179 158.827 114.553C159.198 114.927 159.801 114.927 160.173 114.553Z" fill="#7FDAEF"/>
</g>
<g style="mix-blend-mode:screen">
<path d="M159.683 114.024C159.906 114.024 160.086 113.842 160.086 113.619C160.086 113.395 159.906 113.214 159.683 113.214C159.461 113.214 159.28 113.395 159.28 113.619C159.28 113.842 159.461 114.024 159.683 114.024Z" fill="#7FDAEF"/>
</g>
<g style="mix-blend-mode:screen">
<path d="M150.562 111.249C150.664 110.813 150.395 110.375 149.961 110.272C149.526 110.169 149.091 110.44 148.988 110.876C148.886 111.313 149.155 111.75 149.589 111.853C150.024 111.956 150.459 111.686 150.562 111.249Z" fill="#7FDAEF"/>
</g>
<g style="mix-blend-mode:screen">
<path d="M150.273 110.844C150.273 111.033 150.119 111.187 149.931 111.187C149.742 111.187 149.589 111.033 149.589 110.844C149.589 110.654 149.742 110.5 149.931 110.5C150.119 110.5 150.273 110.654 150.273 110.844Z" fill="#7FDAEF"/>
</g>
<g style="mix-blend-mode:screen">
<path d="M156.592 102.416C156.694 101.979 156.425 101.542 155.991 101.439C155.556 101.336 155.121 101.606 155.019 102.043C154.916 102.479 155.185 102.917 155.62 103.02C156.054 103.123 156.489 102.852 156.592 102.416Z" fill="#7FDAEF"/>
</g>
<g style="mix-blend-mode:screen">
<path d="M156.303 102.01C156.303 102.2 156.15 102.354 155.961 102.354C155.772 102.354 155.619 102.2 155.619 102.01C155.619 101.821 155.772 101.667 155.961 101.667C156.15 101.667 156.303 101.821 156.303 102.01Z" fill="#7FDAEF"/>
</g>
<g style="mix-blend-mode:screen">
<path d="M166.592 82.4159C166.694 81.9792 166.425 81.5418 165.991 81.4387C165.556 81.3356 165.121 81.6061 165.019 82.0427C164.916 82.4793 165.185 82.9168 165.62 83.0198C166.054 83.1229 166.489 82.8525 166.592 82.4159Z" fill="#7FDAEF"/>
</g>
<g style="mix-blend-mode:screen">
<path d="M166.303 82.0104C166.303 82.1999 166.15 82.354 165.961 82.354C165.772 82.354 165.619 82.1999 165.619 82.0104C165.619 81.8209 165.772 81.6667 165.961 81.6667C166.15 81.6667 166.303 81.8209 166.303 82.0104Z" fill="#7FDAEF"/>
</g>
<g style="mix-blend-mode:screen">
<path d="M159.384 120.169C159.687 120.169 159.932 119.923 159.932 119.619C159.932 119.314 159.687 119.068 159.384 119.068C159.081 119.068 158.836 119.314 158.836 119.619C158.836 119.923 159.081 120.169 159.384 120.169Z" fill="#7FDAEF"/>
</g>
<g style="mix-blend-mode:screen">
<path d="M159.722 119.471C159.722 119.6 159.618 119.704 159.49 119.704C159.362 119.704 159.258 119.6 159.258 119.471C159.258 119.342 159.362 119.238 159.49 119.238C159.618 119.238 159.722 119.342 159.722 119.471Z" fill="#7FDAEF"/>
</g>
<g style="mix-blend-mode:screen">
<path d="M149.384 87.1695C149.687 87.1695 149.932 86.9229 149.932 86.6187C149.932 86.3145 149.687 86.0679 149.384 86.0679C149.081 86.0679 148.836 86.3145 148.836 86.6187C148.836 86.9229 149.081 87.1695 149.384 87.1695Z" fill="#7FDAEF"/>
</g>
<g style="mix-blend-mode:screen">
<path d="M149.722 86.4709C149.722 86.5997 149.618 86.7039 149.49 86.7039C149.362 86.7039 149.258 86.5997 149.258 86.4709C149.258 86.342 149.362 86.2378 149.49 86.2378C149.618 86.2378 149.722 86.342 149.722 86.4709Z" fill="#7FDAEF"/>
</g>
</svg>
