<svg width="315" height="342" viewBox="0 0 315 342" fill="none" xmlns="http://www.w3.org/2000/svg">
<g clip-path="url(#clip0_1153_4868)">
<path d="M142.906 7.00275C145.775 4.87227 148.247 2.28056 150.999 0C148.13 3.68624 148.559 8.25468 148.09 12.5998C148.537 11.864 148.989 11.1283 149.436 10.3925C154.583 19.9943 166.467 25.8256 177.157 23.783C174.688 23.1168 172.113 23.5487 169.614 23.1241C161.095 21.7733 153.035 16.297 149.568 8.28396C148.908 6.90757 149.561 5.41771 149.939 4.06328C150.118 5.846 149.946 7.80076 151.061 9.33456C155.963 16.8827 164.959 21.1291 173.826 21.4512C173.533 20.0089 173.213 18.5739 172.96 17.128C175.242 19.4378 177.59 22.3334 181.105 22.5274C186.509 22.8935 192.364 23.9733 196.426 27.8316C199.196 30.4416 200.08 34.2706 200.531 37.8983C201.356 37.2614 202.189 36.6281 203.055 36.046C202.244 37.8141 200.538 38.7988 198.887 39.6554C197.856 34.278 195.78 27.7291 189.826 26.1185C195.053 29.2922 197.236 35.27 198.238 40.9952C202.868 40.3033 203.745 35.6214 203.792 31.7485C204.97 34.0254 205.524 36.6354 205.216 39.1942C204.842 42.0458 200.711 42.5656 201.133 45.5893C201.378 52.3687 200.201 59.1006 198.194 65.5579C204.794 67.9117 206.218 77.0083 201.353 81.7524C198.953 84.044 195.534 84.8823 192.317 84.1501C188.424 95.4834 177.502 103.079 165.99 105.199C165.872 107.765 165.887 110.331 166.015 112.897C176.713 110.093 186.612 105.107 196.484 100.282C191.686 104.441 185.709 106.868 180.169 109.859C191.961 107.179 202.534 101.084 213.309 95.8714C205.139 102.127 195.512 106.257 185.882 109.749C177.44 112.571 168.767 115.005 159.852 115.631C161.026 114.994 162.233 114.42 163.458 113.882C163.634 111.187 163.634 108.486 163.528 105.792C158.351 106.15 153.145 106.213 147.987 105.557C147.888 107.951 147.859 110.349 147.939 112.751C150.676 113.962 153.556 114.83 156.223 116.202C139.53 113.662 123.839 105.762 110.789 95.1869C107.095 92.1083 103.525 88.7881 100.752 84.8383C113.834 96.5413 128.576 107.088 145.822 111.579C145.804 109.427 145.756 107.278 145.698 105.125C134.57 102.698 123.986 95.3333 120.244 84.249C117.155 85.0323 114.201 83.9744 111.428 82.7115C106.134 82.1295 101.794 78.7654 96.7527 77.3121C85.9041 73.6295 73.5991 71.0927 62.5451 75.3793C51.4031 79.7062 44.5572 93.1406 48.7762 104.54C50.02 108.856 54.6426 112.227 53.4723 117.085C52.3166 121.906 52.0304 126.873 52.2763 131.815C53.9162 127.865 55.9157 123.974 59.0084 120.947C65.6856 114.094 75.3344 111.301 84.6127 110.324C73.3276 108.852 61.815 109.306 50.6033 107.314C72.4581 106.491 94.5074 107.406 116.043 111.458C120.123 112.121 124.125 113.171 128.234 113.629C116.072 108.753 103.716 104.203 90.9267 101.209C86.7443 100.11 82.4261 99.5723 78.3061 98.2252C84.8769 98.0019 91.2422 99.8542 97.6772 100.81C90.6589 96.9696 83.0278 94.1363 76.5048 89.4471C80.2139 90.4464 83.5781 92.3536 87.0891 93.8617C106.919 102.995 127.6 110.119 148.42 116.638C151.751 117.703 155.207 118.593 158.733 118.439C174.494 117.663 189.826 113.519 204.809 108.834C223.013 103.412 241.581 97.1892 260.849 98.4082C264.265 90.3988 259.297 81.196 251.762 77.7111C243.437 73.5856 233.653 74.0908 224.848 76.2908C214.648 78.6446 205.414 83.6889 196.128 88.3123C197.919 86.6796 199.933 85.3179 201.976 84.022C213.918 76.8106 227.75 71.5613 241.915 72.4984C249.149 72.9194 256.608 75.8479 260.992 81.8403C264.558 86.5478 265.861 93.5872 262.456 98.7194C261.091 100.883 258.112 99.8761 256.171 101.095C253.424 102.827 250.841 105.532 250.591 108.918C250.312 112.432 251.593 115.789 252.525 119.12C254.587 126.137 255.526 133.693 253.783 140.879C251.604 150.283 245.653 158.201 242.689 167.319C241.863 170.006 241.276 173.169 242.858 175.702C244.567 178.437 247.502 180.007 249.938 182.002C243.551 185.135 236.973 188.426 232.156 193.8C230.116 196.037 228.593 199.178 229.588 202.223C230.842 207.055 235.322 210.072 237.285 214.472C239.152 227.954 228.028 239.338 216.186 243.753C210.44 245.967 204.236 246.323 198.172 246.916C198.139 250.144 197.97 253.369 197.798 256.594C197.508 259.735 199.775 262.224 200.839 264.995C205.414 275.721 207.835 287.263 209.178 298.805C209.45 305.236 210.95 311.756 209.872 318.166C218.156 320.893 225.9 325.256 232.68 330.703C220.019 326.966 206.698 327.936 193.67 327.68C195.934 329.602 198.029 331.977 198.509 335.012C196.682 332.859 195.032 330.443 192.456 329.111C191.576 331.538 191.143 334.122 189.976 336.443C190.178 331.999 191.583 327.753 192.566 323.448C187.312 320.289 184.876 314.483 182.477 309.153C181.688 307.228 180.599 305.28 180.775 303.139C180.991 303.084 181.42 302.967 181.633 302.905C176.225 291.97 171.181 280.557 169.794 268.319C168.983 263.776 166.511 259.75 165.094 255.383C157.867 255.723 150.632 255.983 143.394 256.023C142.014 261.1 139.156 265.724 138.588 271.013C136.948 281.241 133.378 291.033 129.262 300.496C129.027 301.049 128.796 301.601 128.568 302.162C129.566 303.179 131.169 304.329 130.524 305.972C128.396 311.902 124.257 316.819 120.335 321.651C118.908 323.298 118.431 325.465 118.387 327.599C117.606 327.994 116.824 328.383 116.039 328.774C116.421 331.468 117.059 334.122 117.433 336.824C122.449 337.322 127.541 336.879 132.523 337.71C102.428 339.412 72.2196 338.848 42.1101 337.728C43.6913 337.34 45.3239 337.249 46.9529 337.241C69.7873 336.538 92.6437 335.971 115.489 336.736C114.957 334.28 114.344 331.849 113.688 329.429C101.353 330.674 88.1714 328.478 76.5891 333.8C83.1159 326.629 91.5907 321.211 100.741 318.012C101.614 311.965 101.834 305.844 102.755 299.8C103.1 297.253 103.91 294.694 103.411 292.106C100.77 300.393 101.17 309.314 100.003 317.88C99.2034 317.148 98.1651 316.416 98.2459 315.197C97.7689 307.645 98.3633 300.064 99.3465 292.578C101.008 282.025 103.958 271.573 109.003 262.103C110.422 259.658 109.953 256.759 109.817 254.079C99.9041 252.619 92.163 246.099 84.4476 240.301C73.8229 232.877 60.4099 232.105 47.9031 231.186C53.1054 225.109 57.2438 216.8 54.8664 208.68C52.7459 200.268 44.5829 194.422 44.1096 185.483C44.0656 178.074 47.1106 171.126 48.6368 163.97C51.2233 153.724 51.1133 143.035 50.086 132.591C49.5504 127.397 49.8439 122.125 51.304 117.096C52.3349 113.75 49.3486 111.217 47.9434 108.519C40.3271 96.6475 46.2045 79.5341 58.9204 73.937C67.6814 69.8188 77.8439 70.3716 87.0598 72.5057C95.3329 74.0981 102.769 78.1138 110.378 81.4999C106.321 76.2835 107.572 67.6042 114.289 65.3273C113.695 62.666 113.13 59.9938 112.774 57.2886C111.732 50.2785 112.748 42.9134 116.025 36.5915C109.857 29.3947 107.829 19.0425 110.914 10.0777C112.206 12.4461 113.244 14.9353 114.605 17.2708C119.521 7.68728 129.669 0.483201 140.682 0.541771C138.657 1.92548 135.785 2.56243 134.534 4.7771C134.236 11.9043 138.415 18.8668 144.454 22.5494C142.638 19.1084 139.729 16.0371 139.369 12.0031C139.134 9.67134 141.357 8.30227 142.906 7.00275Z" fill="#454256"/>
<path d="M186.311 5.95588C192.291 2.654 199.559 1.43136 206.276 2.76748C199.478 2.76382 192.849 4.26833 186.311 5.95588Z" fill="#454256"/>
<path d="M115.988 20.7702C116.692 17.0327 118.996 13.7199 121.671 11.0916C119.492 14.1555 117.87 17.5306 115.988 20.7702Z" fill="#FDFCFD"/>
<path d="M217.33 13.5479C218.489 13.9578 219.385 14.8071 219.674 16.0224C218.64 15.4624 217.858 14.5801 217.33 13.5479Z" fill="#454256"/>
<path d="M111.446 14.895C113.548 20.0894 117.621 23.9477 121.201 28.1135C117.544 25.5913 114.608 22.1467 112.147 18.4751C111.952 22.3407 112.903 26.1002 113.82 29.823C111.439 25.2582 111.252 19.9284 111.446 14.895Z" fill="#FDFCFD"/>
<path d="M217.297 31.3971C219.421 29.274 221.344 26.9348 222.191 23.9954C222.745 27.3192 220.309 30.3063 217.297 31.3971Z" fill="#454256"/>
<path d="M91.4842 36.6537C97.3909 33.3994 104.875 30.3684 111.461 33.3665C95.7987 32.2683 83.9816 43.8798 72.0214 52.0539C67.9088 44.1506 59.9255 38.9233 51.1829 37.5579C60.2557 37.0857 68.9837 42.7413 72.7589 50.8898C78.7096 45.7906 84.708 40.6511 91.4842 36.6537Z" fill="#454256"/>
<path d="M180.433 38.85C182.136 38.1837 183.878 37.6017 185.698 37.3674C175.638 43.3049 163.278 45.1352 151.74 44.081C161.539 44.2787 171.291 42.2983 180.433 38.85Z" fill="#FDFCFD"/>
<path d="M36.6912 38.5718C38.72 47.9796 36.7316 57.9547 39.9234 67.2344C34.5119 58.7564 36.8966 48.0564 36.6912 38.5718Z" fill="#454256"/>
<path d="M115.526 63.0505C113.886 55.1326 114.161 46.2739 118.164 39.0698C115.284 46.7315 114.884 54.9642 115.526 63.0505Z" fill="#FDFCFD"/>
<path d="M158.637 50.2969C168.238 48.9278 177.194 45.1281 186.021 41.3284C177.942 46.5887 168.242 49.6197 158.637 50.2969Z" fill="#FDFCFD"/>
<path d="M117.573 67.0733C118.941 58.4123 121.851 49.5609 127.563 42.7852C133.242 48.1736 140.657 51.6036 148.467 52.3723C161.734 53.7048 175.282 50.121 186.652 43.305C186.384 46.3945 185.401 49.3633 185.104 52.4345C187.65 55.2678 191.021 57.2702 194.026 59.602C193.967 62.223 193.729 64.833 193.692 67.4577C197.192 66.2021 201.122 68.0653 202.064 71.7113C204.28 77.367 198.755 84.1208 192.749 82.792C192.731 80.0978 194.577 76.0528 192.375 74.2335C191.487 81.6096 189.202 89.2493 183.273 94.2277C171.192 105.136 152.437 106.213 137.865 100.041C127.607 95.7103 120.17 85.5411 120.218 74.2664C119.932 74.2262 119.36 74.1456 119.073 74.1017C118.846 77.0229 118.971 79.9697 119.712 82.8139C112.587 84.4795 106.908 75.3756 111.153 69.654C112.451 67.3442 115.074 66.5169 117.573 67.0733Z" fill="#FDFCFD"/>
<path d="M198.689 42.3679C200.157 49.9015 198.561 57.9731 195.897 65.1259C197.636 57.6546 198.873 50.0625 198.689 42.3679Z" fill="#FDFCFD"/>
<path d="M170.935 56.0916C174.189 54.1662 177.792 56.67 179.516 59.4594C177.851 58.676 176.09 57.1459 174.153 58.0171C169.024 59.9463 163.741 63.7021 158.028 61.923C162.578 60.5503 166.91 58.6394 170.935 56.0916Z" fill="#454256"/>
<path d="M130.968 60.2427C132.685 57.878 135.774 55.7365 138.705 57.4387C142.344 59.0238 146.967 63.0577 150.68 59.5326C150.14 62.5636 146.607 63.1236 144.087 62.4611C139.666 61.7033 135.487 57.274 130.968 60.2427Z" fill="#454256"/>
<path d="M233.275 59.6716C235.307 61.1286 236.72 63.2517 237.769 65.4883C235.982 63.7935 234.375 61.879 233.275 59.6716Z" fill="#454256"/>
<path d="M170.557 63.4823C172.593 62.9442 174.648 65.0857 173.907 67.0954C173.276 69.5699 169.398 69.6029 168.495 67.315C167.666 65.73 168.84 63.7349 170.557 63.4823Z" fill="#454256"/>
<path d="M139.453 63.7532C142.81 62.062 145.342 67.487 141.908 68.933C138.602 70.5985 136.045 65.1735 139.453 63.7532Z" fill="#454256"/>
<path d="M156.451 70.8438C156.667 73.2012 156.957 75.5367 157.456 77.8465C156.576 78.9703 154.242 78.7507 154.22 77.0851C155.647 75.2804 156.256 73.1133 156.451 70.8438Z" fill="#454256"/>
<path d="M62.5414 75.3941C73.5954 71.1112 85.8968 73.6443 96.749 77.3269C101.79 78.7838 106.126 82.1443 111.424 82.7263C114.198 83.9892 117.151 85.0471 120.24 84.2638C123.982 95.3481 134.57 102.713 145.694 105.14C145.756 107.293 145.8 109.441 145.819 111.594C128.572 107.102 113.831 96.5561 100.748 84.8531C103.522 88.8029 107.091 92.1231 110.786 95.2017C123.832 105.777 139.523 113.677 156.22 116.217C153.552 114.845 150.672 113.973 147.936 112.765C147.855 110.368 147.884 107.966 147.983 105.572C153.142 106.227 158.348 106.162 163.524 105.806C163.631 108.501 163.631 111.202 163.454 113.896C162.229 114.435 161.022 115.006 159.848 115.646C168.759 115.02 177.436 112.586 185.878 109.764C195.508 106.271 205.135 102.142 213.306 95.8862C202.53 101.095 191.953 107.194 180.166 109.873C185.702 106.879 191.682 104.456 196.481 100.297C186.604 105.118 176.71 110.108 166.012 112.912C165.883 110.346 165.868 107.78 165.986 105.213C177.495 103.094 188.42 95.4982 192.313 84.1649C195.534 84.897 198.95 84.0588 201.349 81.7672C201.558 82.5213 201.767 83.2791 201.98 84.0368C199.933 85.3327 197.922 86.6944 196.132 88.327C205.414 83.7037 214.652 78.6594 224.851 76.3056C233.656 74.1056 243.441 73.6004 251.765 77.7259C259.301 81.2108 264.268 90.4136 260.853 98.423C241.584 97.204 223.017 103.427 204.816 108.852C189.833 113.538 174.501 117.685 158.74 118.458C155.214 118.611 151.758 117.722 148.427 116.657C127.607 110.137 106.926 103.013 87.0965 93.8802C83.5891 92.372 80.2212 90.4648 76.5121 89.4655C83.0388 94.1547 90.6662 96.988 97.6845 100.828C91.2495 99.8726 84.8842 98.0203 78.3135 98.2436C82.4298 99.5907 86.7516 100.129 90.934 101.227C103.723 104.221 116.076 108.772 128.242 113.647C124.133 113.19 120.126 112.139 116.05 111.477C94.5147 107.424 72.4654 106.513 50.6106 107.333C61.8224 109.328 73.3349 108.87 84.6201 110.342C75.3418 111.319 65.6892 114.116 59.0158 120.965C55.923 123.992 53.9235 127.884 52.2836 131.833C52.0378 126.892 52.3239 121.924 53.4796 117.103C54.6499 112.245 50.0273 108.874 48.7836 104.558C44.5535 93.1554 51.3994 79.7209 62.5414 75.3941Z" fill="#FDFCFD"/>
<path d="M171.221 75.705C175.572 73.6844 182.624 72.4032 184.366 78.3736C182.048 80.3467 179.674 82.6675 176.434 82.7298C173.642 84.0439 169.897 84.5198 167.721 81.8476C166.026 79.1826 168.796 76.5067 171.221 75.705Z" fill="#F6E7DD"/>
<path d="M128.898 76.7153C131.452 76.8837 134.013 77.334 136.39 78.3114C133.84 78.0917 131.32 77.539 128.898 76.7153Z" fill="#454256"/>
<path d="M154.594 76.6497C155.332 76.6936 156.08 76.7522 156.821 76.829C155.944 77.7881 155.031 78.2091 154.594 76.6497Z" fill="#FDFCFD"/>
<path d="M170.781 80.0943C173.621 78.48 176.695 77.1438 179.938 76.6167C177.062 78.1651 173.954 79.3109 170.781 80.0943Z" fill="#454256"/>
<path d="M124.595 79.3254C127.13 79.4023 129.684 79.6549 132.105 80.4456C129.559 80.4456 127.038 79.999 124.595 79.3254Z" fill="#454256"/>
<path d="M146.585 81.6829C150.863 84.5967 155.834 86.05 161.051 85.446C156.385 87.6277 148.702 87.0969 146.585 81.6829Z" fill="#454256"/>
<path d="M195.332 113.878C214.718 108.881 233.671 101.051 253.871 100.107C251.831 101.809 249.487 103.581 248.889 106.33C248.012 110.214 249.582 114.05 250.426 117.798C252.624 126.031 253.086 134.93 250.375 143.101C247.348 152.838 240.829 161.502 240.025 171.877C239.658 176.306 243.474 179.231 246.754 181.442C240.799 183.836 235.219 187.379 230.923 192.175C228.491 194.895 226.619 198.57 227.467 202.304C228.491 206.77 231.899 210.101 235.061 213.205C236.646 214.622 235.722 216.946 235.612 218.769C234.544 227.825 227.948 235.256 220.28 239.693C213.643 243.727 205.682 244.43 198.11 245.016C198.154 234.268 196.393 223.608 193.982 213.161C197.68 214.863 202.574 216.141 205.682 212.638C214.74 203.603 222.591 192.596 225.677 180.04C227.243 172.601 224.338 165.211 221.175 158.603C216.85 149.873 211.996 141.409 208.1 132.474C205.062 125.555 201.532 118.512 195.332 113.878Z" fill="#F76B6B"/>
<path d="M69.5195 116.803C84.0735 109.818 100.785 112.234 116.05 115.159C110.056 119.288 104.718 124.662 101.863 131.449C99.8748 136.285 96.8261 140.579 93.3738 144.477C86.6232 152.388 80.5735 161.883 80.6395 172.649C80.0378 178.934 82.9471 184.78 86.161 189.971C91.5504 198.391 97.8827 206.36 105.653 212.718C108.427 215.229 112.374 214.677 115.764 214.175C111.875 226.409 109.942 239.181 109.619 251.993C100.315 250.434 93.1646 243.918 85.8528 238.518C75.4995 231.175 62.369 229.656 50.0016 229.879C55.1379 224.183 58.8214 216.28 56.7815 208.52C55.2957 201.319 49.8366 195.964 47.096 189.327C44.4692 181.438 48.7286 173.594 50.695 166.064C53.8282 156.663 53.4796 146.652 52.9513 136.911C54.6133 127.99 61.5252 120.709 69.5195 116.803Z" fill="#F76B6B"/>
<path d="M189.319 115.342C191.011 114.859 192.372 116.29 193.626 117.191C200.014 122.517 204.053 130.014 207.498 137.441C202.769 137.496 198.337 135.779 194.078 133.931C197.798 137.313 202.985 138.865 207.968 138.452C212.73 148.723 218.145 158.709 222.07 169.344C225.699 177.587 221.337 186.475 217.477 193.8C213.603 200.459 209.035 206.766 203.525 212.18C201.984 214.04 199.482 212.762 197.574 212.319C195.861 211.653 193.3 211.375 192.929 209.186C191.935 205.375 190.633 201.648 189.745 197.812C193.461 196.447 197.427 195.733 201.389 196.158C202.398 189.265 202.758 182.189 205.26 175.607C206.661 171.796 210.547 169.966 213.878 168.158C212.278 168.095 210.704 168.436 209.186 168.904C204.391 159.182 199.313 149.606 194.665 139.81C194.118 138.075 192.13 138.269 190.695 137.906C187.18 147.936 176.471 152.992 166.375 153.16C173.096 154.503 180.833 153.453 185.948 148.555C188.255 146.509 189.543 143.664 191.187 141.12C187.048 152.86 184.161 165.006 181.941 177.25C177.429 176.584 172.857 176.511 168.312 176.174C167.424 175.131 166.305 174.194 164.845 174.245C159.089 173.905 153.285 173.905 147.539 174.446C146.145 174.454 145.125 175.417 144.329 176.449C138.643 177.035 132.93 177.379 127.233 177.858C124.47 165.723 121.829 153.515 117.657 141.768C117.096 139.978 118.497 138.353 118.901 136.665C117.855 137.562 116.993 138.642 116.348 139.854C111.057 149.595 105.561 159.233 100.704 169.201C108.089 175.31 108.379 185.772 110.657 194.378C116.003 194.038 121.249 196.304 125.101 199.921C124.866 205.543 122.082 211.99 115.639 212.348C110.217 214.636 105.528 210.91 102.153 207.066C103.547 205.558 104.985 204.039 105.877 202.165C104.263 203.351 102.997 204.91 101.683 206.396C94.412 199.141 88.2815 190.575 84.2128 181.134C81.8832 175.709 83.0462 169.585 85.1667 164.296C88.4943 156.125 93.6856 148.899 98.9723 141.904C99.3942 141.234 100.117 140.879 100.887 140.783C106.541 139.762 112.147 137.606 116.52 133.799C111.263 135.703 106.343 138.624 100.755 139.554C104.817 131.778 109.472 123.923 116.791 118.761C118.204 117.901 119.635 116.415 121.44 116.847C133.242 119.405 145.411 119.581 157.441 119.292C168.176 119.365 178.9 117.908 189.319 115.342Z" fill="#FDFCFD"/>
<path d="M210.503 119.6C217.36 116.382 226.432 116.056 232.6 120.928C225.724 117.367 217.804 117.751 210.503 119.6Z" fill="#454256"/>
<path d="M267.978 117.469C271.096 123.421 271.199 130.783 268.891 137.031C269.775 130.497 269.805 123.86 267.978 117.469Z" fill="#454256"/>
<path d="M217.532 123.264C223.648 123.194 230.398 124.292 234.856 128.846C229.555 125.863 223.673 123.842 217.528 123.795C217.532 123.663 217.532 123.399 217.532 123.264Z" fill="#454256"/>
<path d="M76.2002 140.355C81.5859 133.038 89.4481 127.177 98.3118 124.889C90.0461 128.649 82.3931 133.671 76.2002 140.355Z" fill="#454256"/>
<path d="M146.912 126.459C153.061 126.082 159.327 126.039 165.472 126.372C169.035 128.729 171.911 132.042 175.132 134.861C169.207 139.934 163.073 144.766 156.924 149.562C150.122 145.004 143.339 140.41 136.768 135.523C140.022 132.404 143.045 128.78 146.912 126.459Z" fill="#454256"/>
<path d="M139.222 135.351C142.792 132.466 145.701 127.144 150.962 127.887C154.561 127.971 158.16 127.843 161.759 127.774C166.727 127.104 169.229 132.313 172.777 134.798C167.758 138.935 162.662 142.987 157.533 146.992C156.796 147.757 155.867 146.908 155.174 146.52C149.906 142.731 144.465 139.184 139.222 135.351Z" fill="#FDFCFD"/>
<path d="M310.238 128.678C316.512 136.643 316.541 149.269 310.572 157.392C315.029 148.386 314.835 137.591 310.238 128.678Z" fill="#454256"/>
<path d="M142.088 135.175C144.043 133.469 145.723 131.313 148.016 130.072C152.72 129.615 157.478 129.985 162.203 129.772C165.678 129.377 167.413 133.012 169.952 134.703C165.538 138.356 161.037 141.911 156.524 145.447C151.854 141.827 146.71 138.862 142.088 135.175Z" fill="#454256"/>
<path d="M12.3235 131.116C16.0656 129.765 21.0148 131.511 22.6767 135.183C19.5656 133.045 16.2417 131.072 12.3235 131.116Z" fill="#454256"/>
<path d="M76.7249 155.558C80.6688 146.22 86.1536 136.764 94.5257 130.75C87.1735 137.928 81.8611 146.761 76.7249 155.558Z" fill="#454256"/>
<path d="M144.78 135.19C146.354 133.744 147.668 131.379 150.093 131.464C154.132 131.427 158.175 131.456 162.214 131.365C164.548 131.13 165.817 133.44 167.406 134.725C163.601 137.244 160.523 140.758 156.539 142.994C152.397 140.787 148.75 137.705 144.78 135.19Z" fill="#FDFCFD"/>
<path d="M119.066 137.661C121.293 141.003 122.962 144.872 126.312 147.31C131.943 151.82 139.446 152.252 146.351 152.527C141.699 154.192 136.511 153.921 131.808 152.6C125.105 150.605 120.511 144.279 119.066 137.661Z" fill="#454256"/>
<path d="M1.50426 159.815C-1.15559 153.867 -0.227394 146.121 3.80825 141C1.26212 146.915 0.0954575 153.46 1.50426 159.815Z" fill="#454256"/>
<path d="M193.292 144.096C197.163 151.872 201.466 159.412 205.553 167.074C200.039 174.641 198.946 184.297 198.733 193.39C195.38 193.566 192.045 194.093 188.886 195.268C185.658 189.817 190.053 181.687 184.293 177.203C186.725 166.031 189.426 154.866 193.292 144.096Z" fill="#F76B6B"/>
<path d="M104.215 169.625C108.177 161.492 112.103 153.336 115.742 145.048C118.706 155.309 121.374 165.657 123.857 176.043C124.32 177.331 123.443 178.459 122.929 179.564C120.691 184.268 121.216 189.55 121.216 194.576C118.497 193.324 115.661 192.211 112.616 192.233C111.538 184.25 109.938 175.724 104.215 169.625Z" fill="#F76B6B"/>
<path d="M7.52467 149.851C7.75213 147.142 10.7238 146.062 12.9618 145.414C11.4209 147.01 8.45286 148.02 8.58127 150.63C9.21963 153.087 11.8575 154.152 13.3873 155.986C10.6981 155.023 7.44395 153.105 7.52467 149.851Z" fill="#454256"/>
<path d="M279.611 149.375C281.926 156.118 285.008 162.674 286.347 169.706C287.106 172.927 284.7 175.83 281.702 176.687C283.438 175.062 285.962 173.37 285.466 170.629C284.23 163.366 280.29 156.751 279.611 149.375Z" fill="#454256"/>
<path d="M271.778 154.024C273.903 157.853 277.23 163.062 274.211 167.242C275.458 162.593 272.651 158.431 271.778 154.024Z" fill="#454256"/>
<path d="M156.341 159.189C157.082 162.663 157.038 166.298 156.374 169.786C155.68 166.294 155.963 162.696 156.341 159.189Z" fill="#454256"/>
<path d="M5.74536 165.668C10.3056 167.777 15.053 169.589 19.3565 172.206C14.4697 171.035 9.49484 169.102 5.74536 165.668Z" fill="#454256"/>
<path d="M90.8936 167.978C95.3768 168.128 101.203 169.08 103.199 173.689C99.1263 171.741 95.3511 169.135 90.8936 167.978Z" fill="#454256"/>
<path d="M146.549 176.5C152.936 175.775 159.466 175.625 165.85 176.361C166.496 180.362 166.155 184.495 165.923 188.532C165.975 190.085 164.137 190.088 163.032 190.308C157.775 190.872 152.463 190.813 147.183 190.608C146.721 185.922 146.439 181.208 146.549 176.5Z" fill="#FDFCFD"/>
<path d="M168.106 177.792C172.601 178.03 177.095 178.334 181.575 178.766C186.949 179.088 185.346 186.274 185.856 189.989C179.839 190.18 173.841 189.451 167.824 189.455C168.062 185.567 168.059 181.68 168.106 177.792Z" fill="#E5F5E5"/>
<path d="M124.826 179.685C131.364 179.022 138.012 179.143 144.564 178.301C144.938 182.229 144.923 186.182 145.221 190.117C137.806 190.894 130.347 191.139 122.907 191.509C122.911 187.54 122.977 183.29 124.826 179.685Z" fill="#E5F5E5"/>
<path d="M164.592 191.776C168.613 190.634 172.784 191.629 176.875 191.571C176.702 191.721 176.35 192.021 176.17 192.175C176.405 192.515 176.64 192.856 176.875 193.214C185.28 206.18 188.516 221.555 191.432 236.487C191.399 234.491 191.271 232.504 190.988 230.531C192.005 230.465 193.017 230.406 194.037 230.344C194.907 239.507 195.472 248.728 195.079 257.93C195.05 260.01 196.198 261.836 196.91 263.725C199.775 270.852 202.138 278.185 203.87 285.674C205.161 289.404 202.208 292.706 200.608 295.832C197.669 300.65 192.265 304.468 186.421 303.948C183.746 303.798 183.335 300.789 182.459 298.841C178.162 288.947 173.903 278.869 172.234 268.147C171.639 264.058 169.728 260.35 168.393 256.481C164.548 246.129 161.319 235.462 159.936 224.48C161.4 224.447 162.875 224.428 164.331 224.209C163.564 222.554 160.963 222.697 159.455 221.789C162.31 220.479 165.663 219.435 167.215 216.459C162.269 219.08 156.84 220.665 151.303 221.427C151.37 218.747 151.586 216.071 151.355 213.399C149.979 216.554 149.407 219.97 148.662 223.312C146.046 236.578 142.935 249.8 138.316 262.532C136.617 266.317 136.229 270.486 135.161 274.458C132.798 283.859 129.507 293.047 125.563 301.883C121.909 303.143 117.518 302.623 113.794 301.47C108.61 299.702 105.319 294.705 103.654 289.748C105.154 279.085 109.425 269.04 113.156 259.025C112.371 244.489 114.157 229.901 117.309 215.709C117.36 213.71 119.095 212.843 120.71 212.173C124.987 210.288 125.791 205.159 126.429 201.063C126.866 198.405 124.144 196.963 122.5 195.407C123.421 194.243 124.191 192.424 125.971 192.629C132.307 192.768 138.628 192.424 144.949 192.01C151.469 192.577 158.105 192.881 164.592 191.776Z" fill="#FDFCFD"/>
<path d="M270.336 191.011C272.545 193.456 274.897 195.766 277.058 198.255C273.921 196.959 271.617 194.071 270.336 191.011Z" fill="#454256"/>
<path d="M176.875 191.571C179.997 192.153 185.32 190.052 186.263 194.305C190.207 205.972 192.5 218.139 194.037 230.344C193.017 230.403 192.005 230.465 190.989 230.531C189.382 220.318 186.869 210.137 182.345 200.788C180.83 197.915 179.315 194.873 176.673 192.856L176.875 193.214C176.644 192.856 176.405 192.515 176.17 192.175C176.35 192.021 176.702 191.721 176.875 191.571Z" fill="#E5F5E5"/>
<path d="M176.673 192.856C179.314 194.869 180.83 197.915 182.345 200.788C186.868 210.137 189.385 220.318 190.988 230.531C191.275 232.504 191.399 234.492 191.432 236.487C188.516 221.551 185.28 206.18 176.875 193.214L176.673 192.856Z" fill="#454256"/>
<path d="M297.229 202.849C299.327 199.632 301.095 196.234 302.878 192.837C302.255 196.699 300.398 200.455 297.229 202.849Z" fill="#454256"/>
<path d="M304.14 193.767C308.282 196.234 308.774 201.582 308.323 205.913C307.677 201.637 307.145 197.146 304.14 193.767Z" fill="#454256"/>
<path d="M31.4854 196.611C36.4345 198.595 39.2264 204.178 39.1384 209.328C37.9534 204.386 35.3559 199.935 31.4854 196.611Z" fill="#454256"/>
<path d="M107.091 209.42C107.018 205.818 108.173 202.19 110.283 199.265C109.524 202.728 108.709 206.246 107.091 209.42Z" fill="#454256"/>
<path d="M200.887 200.883C202.666 202.527 204.038 204.588 204.974 206.817C203.139 205.221 201.749 203.149 200.887 200.883Z" fill="#454256"/>
<path d="M199.698 201.945C201.379 203.552 202.861 205.415 203.694 207.608C201.995 206.008 200.678 204.05 199.698 201.945Z" fill="#454256"/>
<path d="M298.872 224.084C301.488 220.281 304.386 216.672 306.822 212.733C305.344 217.129 302.717 221.398 298.872 224.084Z" fill="#454256"/>
<path d="M73.5476 220.929C78.9554 217.894 85.3757 217.202 91.4842 217.14C85.4564 218.187 79.4066 219.135 73.5476 220.929Z" fill="#454256"/>
<path d="M151.014 224.315C152.859 224.066 154.715 223.835 156.568 223.597C157.764 233.891 160.769 243.859 164.35 253.549C157.599 253.9 150.837 254.131 144.072 254.017C147.191 244.324 149.509 234.382 151.014 224.315Z" fill="#F76B6B"/>
<path d="M231.976 248.124C240.619 242.267 248.764 234.678 251.574 224.256C250.177 235.015 241.32 243.497 231.976 248.124Z" fill="#454256"/>
<path d="M220.786 259.248C232.383 254.812 242.491 247.168 250.364 237.636C243.723 248.072 232.757 256.107 220.786 259.248Z" fill="#454256"/>
<path d="M16.6232 274.418C13.9377 265.841 17.5587 253.439 27.0718 250.997C18.7034 255.364 15.8014 265.596 16.6232 274.418Z" fill="#454256"/>
<path d="M71.8931 252.341C79.7075 251.612 84.1577 259.516 88.7767 264.501C82.9947 260.65 79.4507 253.245 71.8931 252.341Z" fill="#454256"/>
<path d="M118.017 259.212C119.715 262.51 122.43 265.728 126.525 265.566C122.265 267.576 118.472 263.136 118.017 259.212Z" fill="#454256"/>
<path d="M220.885 271.295C228.274 269.051 235.146 265.526 241.782 261.661C232.702 270.582 219.513 272.383 208.268 277.321C211.812 274.154 216.523 272.902 220.885 271.295Z" fill="#454256"/>
<path d="M178.841 263.586C182.734 265.252 187.169 265.877 190.948 263.531C188.362 267.854 181.872 266.935 178.841 263.586Z" fill="#454256"/>
<path d="M17.9072 275.842C23.2379 274.894 28.6787 274.776 34.0755 274.41C28.9906 276.416 23.2673 276.57 17.9072 275.842Z" fill="#454256"/>
<path d="M262.185 287.867C264.859 289.485 266.664 292.366 267.134 295.437C265.541 292.875 263.854 290.378 262.185 287.867Z" fill="#454256"/>
<path d="M188.34 290.817C191.37 290.587 194.364 290.103 197.328 289.434C194.771 291.308 191.344 291.824 188.34 290.817Z" fill="#454256"/>
<path d="M204.522 290.063C206.999 298.845 207.975 308.084 208.015 317.199C206.709 312.012 207.069 306.543 205.895 301.301C205.495 297.557 203.668 293.867 204.522 290.063Z" fill="#FDFCFD"/>
<path d="M112.892 292.648C115.948 292.622 118.872 291.802 121.7 290.719C119.33 292.853 115.94 293.647 112.892 292.648Z" fill="#454256"/>
<path d="M247.143 296.103C251.64 298.406 253.677 304.413 251.211 308.893C252.037 304.171 250.404 299.544 247.143 296.103Z" fill="#454256"/>
<path d="M120.222 312.781C121.693 309.472 122.955 305.731 125.809 303.337C124.092 306.558 122.474 309.889 120.222 312.781Z" fill="#FDFCFD"/>
<path d="M255.922 318.704C260.343 314.11 264.382 309.15 267.416 303.516C265.963 309.907 261.245 315.124 255.922 318.704Z" fill="#454256"/>
<path d="M182.044 304.336C183.585 306.207 184.663 308.403 185.562 310.636C183.963 308.813 182.796 306.638 182.044 304.336Z" fill="#FDFCFD"/>
<path d="M124.246 313.506C125.695 310.584 126.539 307.308 128.506 304.684C128.117 307.996 126.139 310.852 124.246 313.506Z" fill="#FDFCFD"/>
<path d="M68.7342 325.238C63.598 323.847 60.4575 317.54 61.2463 312.477C61.9727 317.635 65.0801 321.757 68.7342 325.238Z" fill="#454256"/>
<path d="M67.0979 314.19C70.3558 312.803 76.2735 314.296 75.1435 318.781C74.2043 315.138 70.3448 314.344 67.0979 314.19Z" fill="#454256"/>
<path d="M134.042 327.482C148.867 326.113 163.865 326.183 178.695 327.46C163.84 328.573 148.9 328.478 134.042 327.482Z" fill="#454256"/>
<path d="M191.087 337.073C209.978 336.399 228.964 336.136 247.803 337.688C229.654 338.841 211.431 338.815 193.252 338.361C191.421 338.365 189.547 338.391 187.815 337.713C188.875 337.388 189.972 337.135 191.087 337.073Z" fill="#454256"/>
<path d="M108.937 340.854C146.993 339.152 185.177 339.43 223.237 340.873C188.266 342.392 153.171 342.205 118.16 341.316C115.082 341.18 111.974 341.444 108.937 340.854Z" fill="#454256"/>
</g>
<defs>
<clipPath id="clip0_1153_4868">
<rect width="315" height="342" fill="white"/>
</clipPath>
</defs>
</svg>
