<svg width="381" height="315" viewBox="0 0 381 315" fill="none" xmlns="http://www.w3.org/2000/svg">
<g clip-path="url(#clip0_277_45365)">
<path d="M190.501 315C295.711 315 381.001 310.658 381.001 305.301C381.001 299.944 295.711 295.602 190.501 295.602C85.29 295.602 0 299.944 0 305.301C0 310.658 85.29 315 190.501 315Z" fill="#DAEFE0"/>
<path d="M203.173 1.54922C196.682 -4.17924 133.583 7.171 126.404 16.1474C121.384 22.4227 125.421 59.0575 130.485 64.5467C131.29 65.4198 133.593 66.0454 136.917 66.4628C135.634 73.5977 129.919 75.9353 130.097 76.5132C130.384 77.4402 141.581 78.2884 146.762 70.1261C147.427 69.0779 147.944 68.0743 148.361 67.1132C169.412 67.3887 201.82 64.3189 206.615 60.9591C213.521 56.1203 209.662 7.27768 203.172 1.54922H203.173Z" fill="#DAEFE0"/>
<path d="M148.082 60.2474C146.368 60.2474 144.955 59.9667 144.047 59.4053C143.853 59.2842 143.793 59.0284 143.913 58.8347C144.034 58.64 144.289 58.582 144.483 58.7C146.152 59.7357 150.051 59.6477 154.179 58.4794C159.421 56.9994 164.007 54.1771 167.168 50.5936C163.865 50.6609 160.7 49.8821 158.11 48.2975C150.062 54.3346 144.48 51.3952 142.345 49.7309C138.485 46.7242 136.767 41.2578 138.59 37.7944C140.006 35.1057 141.632 33.9157 143.056 33.4434C143.713 30.5103 145.784 26.294 151.753 22.0963C152.98 18.375 155.051 15.2762 157.797 13.2131C162.906 9.37377 168.678 8.39917 173.634 10.54C176.23 11.6606 178.298 13.5394 179.535 15.792C181.727 16.7573 183.286 18.0819 184.33 19.2316C185.589 20.6173 186.562 22.2527 187.238 24.0227C187.971 22.9 188.563 21.4573 189.011 19.6997C189.067 19.4781 189.286 19.3424 189.515 19.4004C189.736 19.4563 189.869 19.6821 189.814 19.9048C189.275 22.0207 188.526 23.7193 187.574 24.989C188.118 26.7207 188.39 28.5601 188.38 30.4078C189.812 30.1416 191 30.4378 191.884 30.8594C194.602 32.154 196.501 35.7437 196.503 39.5883C196.504 43.554 194.612 46.7325 191.309 48.3089C187.508 50.1234 184 48.0106 180.288 45.7704C177.804 47.7268 174.925 49.1654 171.817 49.9525C170.641 50.2508 169.464 50.4445 168.306 50.5356C165.029 54.5251 160.09 57.6716 154.407 59.2759C152.122 59.9211 149.929 60.2463 148.083 60.2463L148.082 60.2474ZM142.882 34.4025C141.537 35.0094 140.318 36.2895 139.323 38.1807C137.702 41.2568 139.352 46.3483 142.854 49.0763C144.811 50.6019 149.906 53.2657 157.371 47.8107C153.374 44.9428 150.682 38.508 150.483 31.284C150.407 28.4949 150.714 25.8321 151.366 23.3982C146.518 27.0397 144.639 30.6129 143.96 33.228C144.596 33.1338 145.165 33.17 145.619 33.2467C147.955 33.6402 150.042 35.6329 150.369 37.7799C150.644 39.581 150.086 41.0527 148.841 41.8181C147.644 42.5524 146.048 42.4375 144.774 41.5229C143.732 40.7752 142.445 38.1486 142.849 34.6573C142.859 34.5744 142.87 34.4885 142.882 34.4015V34.4025ZM158.813 47.7516C161.405 49.2555 164.566 49.9297 167.888 49.735C168.711 48.6952 169.419 47.6004 169.992 46.4612C170.784 44.8869 171.35 43.4266 171.741 42.0822C168.388 41.6162 164.627 42.5762 160.209 46.5627C159.736 46.9894 159.27 47.384 158.813 47.7516ZM172.561 42.2241C172.156 43.642 171.565 45.179 170.731 46.835C170.245 47.8014 169.667 48.7366 169.006 49.6345C169.87 49.532 170.741 49.3704 171.614 49.1498C174.505 48.4166 177.19 47.0992 179.526 45.3126C177.365 44.02 175.08 42.7451 172.561 42.2241ZM180.968 45.2131C184.529 47.3591 187.632 49.1447 190.952 47.559C193.954 46.1266 195.675 43.2215 195.674 39.5893C195.673 36.0524 193.968 32.7702 191.529 31.6082C190.533 31.1328 189.467 31.0209 188.354 31.2654C188.224 33.7355 187.585 36.1963 186.413 38.4148C185.03 41.0362 183.171 43.3354 180.969 45.2131H180.968ZM152.456 22.6131C151.627 25.2303 151.226 28.1634 151.311 31.2612C151.506 38.3641 154.157 44.6487 158.067 47.2856C158.586 46.8796 159.114 46.4353 159.654 45.9475C164.396 41.6711 168.406 40.6985 171.966 41.2381C172.126 40.5877 172.244 39.9663 172.326 39.3749C169.328 40.1289 166.343 40.3381 163.731 39.727C160.438 38.9575 158.055 37.0011 156.643 33.9147C154.197 28.5663 156.588 24.2537 159.642 22.0031C163.103 19.4511 168.799 18.5459 172.533 21.8985C174.762 23.9005 176.853 25.3173 178.752 26.1304C179.674 23.9699 180.16 21.7172 179.927 19.6666C179.801 18.5449 179.463 17.4574 178.944 16.4476C175.233 14.9013 169.657 14.4549 161.587 17.7847C157.814 19.3424 154.824 20.9798 152.455 22.6152L152.456 22.6131ZM172.781 41.3883C175.477 41.9745 177.914 43.3758 180.218 44.7616C182.434 42.9201 184.302 40.6395 185.681 38.0285C186.75 36.0027 187.355 33.7676 187.514 31.515C186.673 31.8288 185.814 32.3384 184.949 33.0426C181.806 35.5977 177.522 37.9094 173.191 39.1439C173.106 39.8524 172.973 40.6001 172.781 41.3883ZM143.768 34.1053C143.728 34.3321 143.697 34.5475 143.673 34.7536C143.311 37.8762 144.405 40.2366 145.258 40.8487C146.258 41.5675 147.495 41.6721 148.407 41.1097C149.355 40.5276 149.773 39.3594 149.55 37.9042C149.309 36.3123 147.719 34.4408 145.481 34.0628C144.9 33.9644 144.327 33.9799 143.768 34.1042V34.1053ZM166.567 20.5428C164.234 20.5428 161.881 21.3827 160.134 22.6711C156.519 25.336 155.496 29.4104 157.397 33.5688C158.696 36.4107 160.891 38.2108 163.921 38.9192C166.491 39.523 169.455 39.2869 172.428 38.5049C172.528 37.3511 172.494 36.3206 172.379 35.4185C170.234 36.8468 168.217 37.2714 166.643 36.6085C163.727 35.3802 163.167 32.9287 163.616 31.0448C164.112 28.963 165.778 27.4913 167.498 27.6052C169.041 27.7129 170.701 29.0148 171.83 31.0023C172.185 31.6279 172.644 32.617 172.956 33.9603C175.045 32.2607 177.076 29.6787 178.415 26.8781C176.426 26.0268 174.265 24.5644 171.983 22.5158C170.434 21.1248 168.507 20.5428 166.567 20.5428ZM173.135 34.8748C173.291 35.8566 173.362 36.9876 173.274 38.2667C177.377 37.0466 181.431 34.8354 184.427 32.3984C185.553 31.4818 186.599 30.9236 187.553 30.617C187.583 28.9609 187.377 27.3111 186.939 25.7409C186.129 26.5892 185.196 27.1754 184.143 27.4954C182.673 27.9428 181.002 27.83 179.173 27.1754C177.704 30.2721 175.435 33.1079 173.134 34.8727L173.135 34.8748ZM167.297 28.4265C166.029 28.4265 164.808 29.6062 164.421 31.2364C164.242 31.9904 163.894 34.5506 166.964 35.8432C168.345 36.4242 170.206 35.9529 172.23 34.5133C171.944 33.083 171.47 32.0463 171.109 31.4114C169.919 29.3183 168.388 28.499 167.439 28.4317C167.391 28.4286 167.344 28.4265 167.297 28.4265ZM179.511 26.4255C181.141 26.9962 182.617 27.0946 183.902 26.7031C184.949 26.3862 185.865 25.7554 186.65 24.8192C186.007 22.9528 185.023 21.2294 183.717 19.7898C182.883 18.8711 181.701 17.8365 180.101 16.9893C180.43 17.8189 180.651 18.6847 180.752 19.5723C181 21.7504 180.487 24.1387 179.512 26.4245L179.511 26.4255ZM168.222 10.2583C164.915 10.2583 161.476 11.4866 158.293 13.876C155.941 15.6429 154.108 18.2197 152.91 21.3154C155.168 19.8509 157.919 18.3999 161.273 17.0162C168.899 13.8656 174.404 14.0054 178.257 15.299C177.088 13.6025 175.378 12.1961 173.305 11.3012C171.686 10.6031 169.972 10.2583 168.221 10.2583H168.222Z" fill="#4D545E"/>
<path d="M249.298 128.774C251.515 128.459 253.05 128.005 253.621 127.39C257.586 123.123 265.356 95.7587 261.755 90.6268C254.493 80.276 205.752 75.9778 198.486 82.1133C193.328 86.4695 188.875 120.583 194.247 124.376C197.979 127.011 223.248 129.497 239.67 129.34C239.993 130.091 240.392 130.876 240.908 131.695C244.927 138.076 253.663 137.447 253.89 136.725C254.026 136.289 250.257 134.14 249.298 128.774Z" fill="#DAEFE0"/>
<path d="M231.924 123.471C226.016 123.471 219.928 121.086 215.836 117.53C210.531 112.917 205.798 113.786 204.013 114.373C201.789 115.105 200.126 116.597 199.772 118.174C199.72 118.407 199.495 118.557 199.256 118.503C199.023 118.45 198.876 118.219 198.928 117.986C199.347 116.117 201.237 114.377 203.743 113.552C205.668 112.919 210.76 111.971 216.403 116.876C222.867 122.494 234.483 125.098 241.987 119.506C247.739 115.217 249.469 110.038 249.906 106.448C250.578 100.945 248.723 96.44 246.931 94.2537C243.364 89.9037 238.541 87.1912 233.701 86.8142C229.008 86.459 224.278 88.2508 220.046 92.0259C215.076 96.4608 213.338 103.642 215.725 109.895C218.06 116.014 223.827 119.664 231.155 119.664H231.201C239.699 119.646 243.679 115.593 245.522 112.195C248.38 106.925 247.632 100.694 245.415 97.2603C242.955 93.45 239.485 90.9125 235.644 90.1171C231.947 89.3517 228.024 90.2611 224.303 92.7509C219.542 95.9377 216.987 102.033 218.229 107.243C219.413 112.21 223.76 115.393 230.468 116.208C238.412 117.172 242.432 112.451 243.536 107.707C244.724 102.611 242.83 96.2412 237.606 94.4039C233.55 92.9798 230.09 92.9881 227.322 94.4277C223.85 96.235 222.403 99.8175 221.85 101.793C221.146 104.302 221.659 106.95 223.257 109.06C225.161 111.574 228.266 113.015 231.779 113.015H231.781C235.565 113.015 237.73 111.325 238.879 109.907C240.409 108.019 241.06 105.43 240.581 103.149C240.085 100.784 238.734 98.8822 236.778 97.7958C234.858 96.729 232.586 96.5882 230.378 97.396C226.876 98.6772 225.279 100.984 225.496 104.448C225.578 105.748 226.461 107.698 228.208 108.908C229.378 109.719 231.39 110.491 234.316 109.597C237.552 108.604 238.276 105.694 237.581 103.411C236.971 101.411 235.132 99.6176 232.532 100.408C230.246 101.103 229.589 102.901 229.723 104.231C229.844 105.445 230.672 106.739 232.246 106.888C233.594 107.004 234.156 106.403 234.376 106.03C234.667 105.532 234.672 104.898 234.388 104.485C234.155 104.147 233.771 104.009 233.264 104.097C233.025 104.131 232.806 103.978 232.766 103.742C232.726 103.507 232.885 103.283 233.12 103.243C233.948 103.105 234.673 103.375 235.098 103.994C235.574 104.685 235.583 105.678 235.121 106.469C234.569 107.409 233.497 107.876 232.165 107.75C230.378 107.58 229.05 106.2 228.862 104.318C228.696 102.662 229.492 100.427 232.281 99.5813C235.445 98.6119 237.676 100.761 238.406 103.16C239.249 105.926 238.201 109.311 234.571 110.424C231.307 111.426 229.045 110.539 227.717 109.62C225.724 108.24 224.733 106.055 224.634 104.503C224.393 100.658 226.226 97.9946 230.081 96.584C232.53 95.6892 235.055 95.8507 237.197 97.0408C239.375 98.2515 240.877 100.359 241.427 102.974C241.957 105.503 241.238 108.37 239.548 110.455C238.281 112.019 235.905 113.883 231.78 113.883H231.778C227.993 113.883 224.634 112.317 222.567 109.585C220.804 107.259 220.239 104.334 221.016 101.561C221.608 99.4519 223.162 95.6208 226.921 93.6613C229.91 92.1077 233.6 92.0829 237.89 93.5898C243.573 95.5877 245.651 102.438 244.376 107.905C243.185 113.013 238.876 118.107 230.363 117.068C220.791 115.906 218.124 110.54 217.386 107.445C216.063 101.895 218.769 95.4137 223.821 92.0331C227.738 89.4118 231.88 88.4579 235.817 89.2709C239.886 90.114 243.551 92.7851 246.138 96.7922C248.493 100.439 249.298 107.044 246.279 112.609C243.516 117.703 238.161 120.515 231.201 120.529H231.152C223.451 120.529 217.383 116.672 214.916 110.205C212.403 103.618 214.233 96.0537 219.47 91.3796C223.879 87.444 228.811 85.5476 233.766 85.9526C238.839 86.3482 243.879 89.1736 247.597 93.7037C249.497 96.0227 251.467 100.779 250.763 106.553C250.304 110.31 248.498 115.728 242.5 120.2C239.433 122.487 235.714 123.471 231.921 123.471H231.924Z" fill="#4D545E"/>
<path d="M361.682 304.094L349.559 252.211H356.829L365.953 303.518C366.402 306.911 362.599 308.181 361.682 304.094Z" fill="#CC8862"/>
<path d="M279.782 304.094L291.905 252.211H284.635L275.511 303.518C275.062 306.911 278.865 308.181 279.782 304.094Z" fill="#CC8862"/>
<path d="M335.915 304.195L323.768 252.21H331.037L340.199 303.641C340.648 307.034 336.832 308.281 335.915 304.195Z" fill="#A35E40"/>
<path d="M253.142 302.986L266.411 242.69L259.935 240.942L248.754 302.813C248.305 306.206 252.345 306.659 253.142 302.986Z" fill="#A35E40"/>
<path d="M329.958 205.379L328.051 178.126C307.799 167.203 270.638 167.637 254.451 181.952C243.912 191.272 249.981 207.324 249.981 207.324L329.958 205.378V205.379Z" fill="#FCF7F7"/>
<path d="M320.835 198.106C320.835 198.106 308.221 137.786 315.412 120.767C320.424 108.904 329.864 104.928 338.84 105.427C351.549 106.133 361.576 112.99 368.997 133.042C378.203 157.913 379.792 221.144 363.667 247.641C354.394 262.879 295.823 265.191 280.496 259.039C260.118 250.859 254.589 240.105 250.397 228.979C245.258 215.341 250.605 204.826 250.605 204.826L320.835 198.105V198.106Z" fill="#FCF7F7"/>
<path d="M340.639 85.034C338.361 83.1045 336.005 80.2697 335.343 76.186C334.911 73.518 333.912 71.9935 332.485 71.2042C332.864 70.8594 333.461 70.5196 334.402 70.0691C336.66 68.9889 336.069 66.5716 335.445 64.7135C334.819 62.8544 335.164 61.4801 336.018 59.7422C336.79 58.1689 336.614 55.5559 333.869 54.9966C331.444 54.5025 330.208 53.9422 328.479 51.7155C326.348 48.9698 324.007 48.7213 321.774 50.1982C320.539 51.0164 319.252 51.9609 316.777 51.7082C313.788 51.4027 312.347 53.1261 312.6 55.2897C312.854 57.4533 312.667 58.4475 311.376 59.7691C309.994 61.1828 309.28 62.3822 310.346 64.4349C310.682 65.0812 310.799 65.6643 310.832 66.2225C308.321 66.4494 306.028 67.5679 304.815 69.3089C303.079 71.7977 301.281 72.9204 297.467 74.1073C293.654 75.2942 292.494 77.695 292.372 79.9797C292.22 82.8279 293.81 88.3948 291.29 92.8462C289.131 96.6597 289.002 99.7689 290.929 103.311C292.295 105.824 294.686 107.147 295.962 107.708C295.963 107.717 295.965 107.723 295.966 107.732C296.186 109.699 294.78 110.256 294.409 111.832C294.037 113.407 295.439 115.264 296.726 115.347C296.726 115.347 294.628 113.152 297.06 111.168C298.217 110.223 298.923 109.318 299.258 108.51C304.485 109.501 316.605 111.66 323.971 112.217C324.052 112.288 324.184 112.464 324.308 112.607C325.457 113.943 324.333 115.185 324.73 116.546C325.126 117.907 327.036 118.471 328.116 117.943C328.116 117.943 325.096 117.346 326.534 114.877C327.081 113.937 327.317 113.126 327.355 112.446C328.077 112.438 328.68 112.393 329.128 112.302C334.464 111.212 337.477 106.36 337.512 102.343C337.533 100.02 337.955 98.0776 340.477 94.8369C343.459 91.0068 343.274 87.2649 340.64 85.035L340.639 85.034Z" fill="#895259"/>
<path d="M324.143 125.229C324.143 125.229 319.297 134.417 310.786 134.542C302.284 134.659 306.337 124.66 306.337 124.66C306.337 124.66 307.554 123.725 308.586 121.241C309.053 120.14 309.477 118.74 309.735 116.972C310.093 114.629 310.169 111.651 309.677 107.917L324.31 110.36C324.31 110.36 324.1 111.447 323.902 115.8C323.588 122.742 324.145 125.23 324.145 125.23L324.143 125.229Z" fill="#FCA79A"/>
<path d="M324.308 110.359C324.308 110.359 321.767 116.471 314.555 119.748C312.274 120.781 310.142 121.141 308.584 121.24C309.05 120.139 309.475 118.739 309.733 116.971L324.307 110.359H324.308Z" fill="#EF8E84"/>
<path d="M332.314 71.6766C332.244 71.661 332.18 71.6217 332.136 71.5606C332.115 71.5316 329.946 68.672 323.158 66.6503C316.383 64.6317 311.143 66.4059 311.091 66.4235C310.933 66.4784 310.762 66.3955 310.706 66.2371C310.652 66.0796 310.734 65.9067 310.893 65.8518C311.113 65.7751 316.362 63.9948 323.331 66.0703C330.341 68.1583 332.534 71.08 332.624 71.2032C332.722 71.3379 332.692 71.5264 332.558 71.6258C332.484 71.6797 332.395 71.6952 332.314 71.6776V71.6766Z" fill="#703A44"/>
<path d="M328.39 97.7896C328.39 97.7896 332.341 97.3857 332.593 101.036C332.9 105.472 327.733 108.366 325.699 107.818L328.39 97.7886V97.7896Z" fill="#FCA79A"/>
<path d="M324.248 110.785C324.248 110.785 315.575 121.031 306.199 119.594C301.833 118.606 298.826 113.647 297.248 109.264C296.536 107.288 296.162 105.76 296.079 105.4C296.072 105.35 296.069 105.32 296.069 105.32C295.998 104.901 295.94 104.475 295.887 104.064C293.977 88.7883 303.199 77.1843 315.661 79.64C327.966 82.3556 332.593 97.0211 324.248 110.785Z" fill="#FCA79A"/>
<path d="M299.149 108.006C298.839 108.737 298.119 109.175 297.249 109.265C296.675 107.874 296.02 105.698 295.888 104.064C296.315 104.103 296.761 104.217 297.197 104.421C298.798 105.159 299.677 106.765 299.15 108.006H299.149Z" fill="#F4958C"/>
<path d="M317.559 110.925C319.251 110.416 320.31 108.96 319.923 107.673C319.537 106.386 317.852 105.756 316.16 106.265C314.468 106.775 313.409 108.231 313.796 109.517C314.182 110.804 315.867 111.434 317.559 110.925Z" fill="#F4958C"/>
<path d="M301.427 111.248C301.427 111.248 303.011 112.358 305.709 112.693C308.482 113.038 310.386 112.363 310.386 112.363C310.386 112.363 308.299 114.423 305.553 114.081C302.978 113.761 301.427 111.248 301.427 111.248Z" fill="#ED847E"/>
<path d="M304.015 114.716C304.557 114.923 305.024 115.097 305.507 115.155C305.746 115.195 305.987 115.196 306.237 115.173C306.49 115.16 306.74 115.094 307.034 115.053C306.856 115.287 306.617 115.482 306.335 115.584C306.057 115.703 305.742 115.731 305.442 115.693C305.141 115.647 304.851 115.542 304.606 115.373C304.361 115.206 304.146 114.991 304.016 114.717L304.015 114.716Z" fill="#ED847E"/>
<path d="M305.531 108.129C305.011 108.037 304.469 107.778 304.129 107.363C303.816 106.98 303.453 106.17 304.532 105.031C306.683 102.761 306.112 99.2728 306.105 99.2386C306.083 99.1092 306.178 98.9901 306.319 98.9724C306.458 98.9569 306.59 99.047 306.612 99.1765C306.638 99.3287 307.226 102.918 304.922 105.349C304.48 105.815 304.054 106.496 304.535 107.083C304.954 107.596 305.888 107.815 306.33 107.629C306.457 107.575 306.611 107.629 306.672 107.748C306.734 107.867 306.681 108.008 306.553 108.062C306.283 108.176 305.913 108.196 305.531 108.129Z" fill="#EF8E84"/>
<path d="M297.185 94.3139C297.067 93.8852 298.729 92.9758 300.506 92.8173C302.529 92.6361 303.878 92.9064 303.69 93.8085C303.582 94.3274 302.417 94.2466 300.484 94.3139C298.675 94.3771 297.243 94.5221 297.185 94.3139Z" fill="#895259"/>
<path d="M318.513 96.8827C318.748 96.4643 317.239 95.0806 315.418 94.454C313.344 93.7414 311.861 93.6751 311.824 94.6694C311.804 95.2411 313.046 95.4576 315.055 96.0293C316.935 96.5637 318.399 97.0867 318.514 96.8827H318.513Z" fill="#895259"/>
<path d="M330.726 100.944C330.699 100.816 330.573 100.734 330.445 100.763C327.043 101.493 327.021 104.878 327.021 104.912C327.021 105.034 327.116 105.135 327.235 105.146C327.243 105.146 327.25 105.147 327.258 105.147C327.389 105.147 327.494 105.041 327.493 104.909C327.493 104.897 327.5 104.379 327.716 103.73C327.728 103.707 328.185 102.892 329.562 103.322C329.686 103.362 329.818 103.291 329.858 103.167C329.897 103.043 329.828 102.909 329.703 102.871C329.021 102.657 328.51 102.705 328.136 102.842C328.572 102.152 329.303 101.49 330.545 101.224C330.672 101.197 330.754 101.071 330.726 100.943V100.944Z" fill="#EF8E84"/>
<path d="M327.391 83.6534C320.55 73.7345 307.043 70.5725 298.33 78.448C293.065 83.207 291.181 91.821 294.061 98.0103C294.061 98.0103 292.712 90.8961 296.678 90.2809C301.22 89.5756 302.93 88.5419 303.718 84.4167C304.108 82.3764 305.187 81.4639 306.715 81.2485C308.503 80.9968 309.887 82.3091 310.537 82.3505C311.375 82.4044 313.614 81.8244 315.27 82.2366C317.22 82.7223 318.814 84.7057 318.576 87.0598C318.159 91.1861 318.108 93.2865 322.162 95.4552C325.701 97.3485 325.057 100.055 322.932 102.306C320.895 104.464 320.701 106.642 321.202 108.313C321.419 109.035 321.64 108.766 321.675 108.391C321.939 105.59 322.851 104.653 325.496 102.432C331.28 97.5712 331.413 89.4823 327.391 83.6503V83.6534Z" fill="#895259"/>
<path d="M314.055 101.711C314.534 100.502 314.235 99.2494 313.388 98.9125C312.541 98.5755 311.465 99.2819 310.986 100.49C310.507 101.699 310.805 102.951 311.652 103.288C312.5 103.625 313.575 102.919 314.055 101.711Z" fill="#4C2928"/>
<path d="M300.923 102.08C301.833 102.018 302.499 100.916 302.411 99.6193C302.324 98.3221 301.515 97.3205 300.606 97.3821C299.696 97.4437 299.03 98.5452 299.117 99.8424C299.205 101.14 300.013 102.141 300.923 102.08Z" fill="#4C2928"/>
<path d="M330.361 95.7898C330.315 95.7867 330.269 95.7722 330.227 95.7473C330.085 95.6603 330.039 95.4739 330.126 95.332C330.146 95.2989 332.116 92.0043 331.44 89.4482C331.19 88.5057 330.601 87.7694 329.689 87.2608C325.891 85.1459 325.348 84.4095 324.415 80.0927C323.47 75.7231 318.57 76.6055 318.363 76.6459C318.197 76.678 318.04 76.5693 318.009 76.4056C317.978 76.242 318.085 76.0835 318.249 76.0514C318.305 76.04 323.935 75.0147 325.006 79.9643C325.906 84.1258 326.325 84.6944 329.982 86.7316C331.045 87.323 331.732 88.1857 332.025 89.2949C332.767 92.1017 330.73 95.5029 330.644 95.6459C330.583 95.7463 330.473 95.7981 330.363 95.7898H330.361Z" fill="#703A44"/>
<path d="M334.567 84.015C334.533 84.015 334.498 84.0098 334.464 83.9974C329.559 82.2885 328.887 79.8173 328.175 77.2022C327.842 75.9759 327.497 74.7072 326.669 73.4861C325.698 72.0537 324.462 71.2003 322.994 70.9486C319.912 70.4173 316.774 72.7021 316.743 72.7259C316.604 72.8284 316.409 72.7984 316.307 72.6596C316.204 72.5208 316.233 72.3251 316.373 72.2225C316.51 72.1221 319.752 69.7576 323.096 70.3313C324.739 70.612 326.116 71.5555 327.186 73.135C328.073 74.442 328.432 75.7615 328.778 77.0375C329.474 79.5957 330.075 81.8059 334.67 83.4071C334.834 83.464 334.919 83.6422 334.863 83.8058C334.818 83.9342 334.697 84.0161 334.568 84.0161L334.567 84.015Z" fill="#703A44"/>
<path d="M296.073 84.5413C295.324 84.5413 294.8 84.3953 294.759 84.3839C294.593 84.3362 294.497 84.1633 294.544 83.9975C294.591 83.8318 294.764 83.7355 294.93 83.7821C294.948 83.7873 296.704 84.2689 298.324 83.344C299.487 82.6812 300.31 81.4611 300.772 79.7191C301.633 76.4742 303.833 75.1185 305.605 74.931C307.13 74.7715 308.488 75.4074 309.07 76.554C309.149 76.7083 309.087 76.8968 308.934 76.9745C308.779 77.0521 308.591 76.991 308.514 76.8377C308.05 75.9243 306.937 75.4199 305.672 75.5535C304.107 75.7192 302.157 76.9424 301.378 79.8806C300.87 81.7946 299.944 83.1452 298.626 83.8929C297.719 84.4077 296.793 84.5423 296.074 84.5423L296.073 84.5413Z" fill="#703A44"/>
<path d="M210.781 256.138C210.781 256.138 207.723 260.926 204.73 264.117C201.736 267.308 197.369 271.405 191.814 274.521C187.574 276.899 186.478 282.004 193.901 281.198C201.323 280.391 210.767 276.401 212.489 274.171C214.21 271.941 212.854 269.371 214.671 266.349C216.488 263.326 218.565 260.725 218.565 260.725L210.782 256.139L210.781 256.138Z" fill="#FCA79A"/>
<path d="M248.02 279.25C248.02 279.25 248.056 282.983 246.816 287.471C245.645 291.706 242.97 295.09 236.287 297.19C231.668 298.641 229.455 303.142 236.735 304.847C242.802 306.268 255.578 303.368 257.043 300.326C258.271 297.774 256.278 293.943 256.531 288.954C256.767 284.258 257.615 280.206 257.615 280.206L248.02 279.25Z" fill="#FCA79A"/>
<path d="M339.611 201.05C339.611 201.05 341.033 228.962 314.556 229.063C288.634 229.161 277.998 216.175 268.818 210.846C259.637 205.516 256.897 206.702 256.399 207.093C255.903 207.485 253.49 221.827 241.241 236.382C228.992 250.937 217.329 264.487 217.329 264.487C217.329 264.487 214.889 264.098 211.741 262.225C209.529 260.908 207.686 258.476 207.686 258.476C209.673 253.709 217.426 236.085 223.634 222.806C231.894 205.14 235.205 195.267 241.36 191.407C247.516 187.545 267.118 183.824 297.482 190.122L339.611 201.05Z" fill="#454256"/>
<path d="M313.014 228.502C313.014 228.502 311.571 228.712 308.84 228.866C308.84 228.866 285.938 233.005 271.704 225.987C271.704 225.987 273.346 238.087 269.887 250.33C266.857 260.986 259.393 282.054 257.616 287.045C257.616 287.045 256.088 288.275 251.699 288.035C247.904 287.826 245.255 286.837 245.255 286.837C245.255 286.837 247.766 240.623 248.78 226.946C248.791 226.869 248.802 226.77 248.813 226.648C248.956 224.673 249.133 222.831 249.342 221.132V221.121C249.794 217.426 250.422 214.36 251.325 211.933C252.822 207.918 255.07 205.613 258.584 205.028C271.308 202.9 296.534 224.53 313.014 228.5V228.502Z" fill="#454256"/>
<path d="M237.893 297.886C238.522 298.508 239.353 299.54 239.92 301.059C239.92 301.059 244.208 302.006 250.074 300.117C255.94 298.228 257.313 296.591 257.313 296.591C257.313 296.591 257.925 298.326 258.055 300.549C258.19 302.832 257.615 304.857 253.193 305.356C248.774 305.855 248.265 305.403 243.546 306.065C239.324 306.657 231.64 307.413 229.211 305.769C226.825 304.152 227.496 301.728 229.156 300.224C230.502 299.003 233.489 297.579 235.908 297.23C236.636 297.125 237.159 297.161 237.893 297.886Z" fill="#454256"/>
<path d="M194.482 273.829C195.182 274.365 196.133 275.28 196.882 276.715C196.882 276.715 200.574 277.102 206.162 274.467C211.749 271.833 213.588 270.026 213.588 270.026C213.588 270.026 214.576 271.207 214.747 273.428C214.924 275.732 215.265 277.915 210.482 278.829C205.699 279.743 204.054 279.723 199.744 281.811C195.898 283.674 189.448 284.092 186.837 282.776C184.272 281.482 184.641 278.99 186.103 277.282C187.289 275.898 190.078 274.098 192.433 273.437C193.142 273.238 193.666 273.206 194.483 273.83L194.482 273.829Z" fill="#454256"/>
<path d="M308.834 228.867L308.827 228.874C308.154 228.905 307.404 228.943 306.569 228.966C303.011 227.924 295.044 225.158 286.42 220.569C282.639 218.553 279.464 216.569 276.388 214.646C271.78 211.764 267.801 209.274 263.034 207.482C255.809 204.762 252.454 209.788 250.801 214.959C249.493 219.054 248.813 226.65 248.813 226.65L248.142 226.687C248.142 226.387 248.516 218.271 251.112 211.872C252.615 208.166 256.653 204.272 263.31 206.77C268.147 208.586 272.156 211.092 276.794 213.996C279.855 215.912 283.023 217.888 286.781 219.888C296.485 225.061 306.234 228.217 308.836 228.869L308.834 228.867Z" fill="#2B293A"/>
<path d="M272.651 226.433C272.174 226.23 271.704 225.988 271.704 225.988C271.186 224.929 270.393 223.473 269.391 222.48L269.931 221.939C271.533 223.529 272.167 225.352 272.651 226.432V226.433Z" fill="#2B293A"/>
<path d="M307.68 123.017C307.68 123.017 295.814 125.456 287.247 137.692C278.399 150.325 275.062 173.293 274.319 183.313L284.91 185.041C287.166 183.956 291.537 173.515 294.138 165.752L307.68 123.017Z" fill="#FF869F"/>
<path d="M347.701 159.047C347.685 169.782 347.15 179.451 345.061 188.631C345.023 188.838 344.969 189.045 344.924 189.251C344.893 189.382 344.863 189.511 344.832 189.634C344.793 189.81 344.748 189.986 344.701 190.163C344.663 190.309 344.625 190.454 344.586 190.6C344.517 190.898 344.441 191.197 344.357 191.488C343.201 195.849 341.663 200.101 339.635 204.315C339.635 204.315 326.618 206.652 310.402 197.91C295.618 189.933 287.842 188.899 287.842 188.899C287.842 188.899 288.959 179.053 288.065 172.11C287.169 165.176 286.412 160.571 287.621 149.706C288.639 140.657 291.371 135.309 295.924 130.159C300.301 125.217 307.669 123.026 307.669 123.026C307.669 123.026 305.636 131.715 309.194 132.542C313.533 133.554 323.917 123.255 323.917 123.255C323.917 123.255 337.294 126.405 342.98 137.584C345.849 143.231 347.709 150.971 347.702 159.046L347.701 159.047Z" fill="#FF869F"/>
<path d="M288.176 175.748C287.983 175.744 287.821 175.592 287.804 175.396C287.795 175.282 286.916 163.879 288.586 154.609C289.78 147.984 293.676 140.184 293.716 140.105C293.811 139.916 294.039 139.841 294.23 139.935C294.419 140.031 294.494 140.26 294.399 140.45C294.36 140.527 290.513 148.23 289.34 154.745C287.688 163.917 288.559 175.222 288.568 175.334C288.585 175.546 288.428 175.73 288.217 175.747C288.203 175.747 288.19 175.748 288.177 175.747L288.176 175.748Z" fill="#E56584"/>
<path d="M280.432 166.402C280.432 166.402 277.219 162.241 274.9 162.248C272.581 162.255 267.505 165.006 267.111 166.378C266.82 167.392 268.353 169.12 268.353 169.12L280.432 166.402Z" fill="#FCA79A"/>
<path d="M276.121 153.515C275.722 153.939 272.387 164.737 272.524 165.195L273.766 164.877C274.076 164.574 277.448 154.338 277.4 153.944C277.351 153.55 276.445 153.171 276.121 153.515Z" fill="#454256"/>
<path d="M272.36 165.382C272.064 165.415 271.747 165.434 271.406 165.432C271.229 165.431 271.086 165.286 271.087 165.109C271.088 164.932 271.232 164.79 271.41 164.79C273.7 164.805 274.876 163.798 274.887 163.787C275.022 163.671 275.223 163.684 275.339 163.816C275.456 163.949 275.445 164.151 275.312 164.268C275.266 164.309 274.284 165.165 272.36 165.382Z" fill="#EF8E84"/>
<path d="M261.846 167.552C261.846 167.552 262.255 166.695 262.56 166.581C262.865 166.466 269.089 165.931 273.264 165.715C277.439 165.498 284.428 165.55 284.744 165.653C285.061 165.755 291.545 174.114 294.849 178.927C298.153 183.741 303.053 191.531 303.091 191.726C303.13 191.922 302.751 192.712 302.751 192.712L284.17 167.133L261.846 167.553V167.552Z" fill="#FCF7F7"/>
<path d="M278.374 191.789C278.374 191.789 261.57 168.756 261.847 167.552C262.124 166.348 283.139 165.77 284.471 166.38C285.803 166.991 302.78 192.064 302.752 192.711C302.724 193.358 279.653 192.458 278.374 191.788V191.789Z" fill="#E56C6A"/>
<path d="M308.682 190.559C308.682 190.559 304.462 190.094 303.22 189.877C301.978 189.659 299.49 190.83 295.775 189.456C292.059 188.082 291.388 187.96 289.687 187.887C287.987 187.815 285.139 187.715 284.625 187.033C284.111 186.35 285.046 185.526 287.378 185.496C289.709 185.466 291.35 185.47 291.35 185.47C291.35 185.47 290.239 184.911 288.083 184.899C285.75 184.887 283.69 185.119 282.498 184.835C281.087 184.498 281.196 183.066 283.819 182.728C286.443 182.392 289.67 182.286 290.795 182.552C290.795 182.552 289.46 181.849 286.632 181.856C283.976 181.864 281.51 181.976 280.808 181.521C280.107 181.064 279.924 180.016 281.766 179.529C283.608 179.041 290.198 179.042 290.198 179.042C290.198 179.042 288.416 178.446 286.134 178.426C284.305 178.411 282.468 178.635 281.583 178.48C280.699 178.326 280.045 177.102 282.13 176.565C284.216 176.027 288.554 175.681 290.029 175.76C291.504 175.839 294.505 175.898 297.448 177.49C300.392 179.082 303.728 182.504 304.227 182.668C304.725 182.833 308.994 182.491 308.994 182.491C308.994 182.491 307.747 185.636 308.682 190.56V190.559Z" fill="#FCA79A"/>
<path d="M323.914 123.255C323.914 123.255 337.913 123.639 347.168 140.426C354.9 154.452 354.935 179.198 347.88 188.109C339.962 198.11 307.287 191.283 307.287 191.283C307.287 191.283 305.435 185.131 307.562 181.565C307.562 181.565 328.235 178.643 332.863 173.468C338.336 167.348 323.914 123.254 323.914 123.254V123.255Z" fill="#FF869F"/>
<path d="M344.332 191.584C342.634 192.166 336.598 193.88 326.749 193.88C325.647 193.88 324.499 193.857 323.297 193.803C310.524 193.275 307.188 191.803 307.051 191.735L306.898 191.665L306.852 191.512C306.776 191.289 305.092 186.11 307.212 181.406L307.312 181.198L307.541 181.183C307.702 181.176 323.895 180.218 329.229 175.46C335.764 169.636 329.558 147.937 329.49 147.714C329.436 147.515 329.551 147.301 329.75 147.239C329.957 147.185 330.171 147.3 330.225 147.5C330.493 148.411 336.63 169.89 329.743 176.034C324.501 180.709 309.938 181.796 307.818 181.935C306.157 185.85 307.267 190.203 307.528 191.099C308.309 191.382 312.234 192.578 323.33 193.038C337.006 193.604 344.471 190.809 344.547 190.778C344.547 190.778 344.418 191.293 344.334 191.584H344.332Z" fill="#E56584"/>
<path d="M357.759 247.682L357.016 202.345C342.203 198.684 298.622 200.39 287.303 218.964C277.204 235.538 278.147 252.478 278.147 252.478L357.759 247.683V247.682Z" fill="#FCF7F7"/>
<path d="M279.156 246.599C278.871 246.599 278.629 246.378 278.608 246.089C278.598 245.948 277.679 231.831 287.894 217.247C299.112 201.232 330.974 200.407 337.248 200.404H337.288C347.158 200.404 357.077 202.066 359.454 202.491C370.474 148.567 348.769 118.482 348.548 118.183C348.365 117.939 348.417 117.594 348.661 117.413C348.906 117.233 349.251 117.282 349.431 117.527C349.655 117.83 371.792 148.51 360.422 203.242L360.313 203.775L359.78 203.671C359.668 203.649 348.441 201.506 337.29 201.506H337.248C333.461 201.508 299.931 201.982 288.795 217.88C278.804 232.145 279.696 245.87 279.706 246.007C279.729 246.311 279.501 246.575 279.198 246.598C279.184 246.599 279.17 246.6 279.156 246.6V246.599Z" fill="#E8D4D4"/>
<path d="M16.9328 304.074L29.0662 252.149H21.7903L12.6577 303.497C12.2088 306.893 16.0153 308.163 16.9318 304.074H16.9328Z" fill="#C98F67"/>
<path d="M98.9444 304.162L86.7666 252.056H94.0425L103.211 303.572C103.66 306.967 99.8609 308.252 98.9444 304.162Z" fill="#C98F67"/>
<path d="M42.6923 304.178L54.8794 252.035H47.6035L38.4347 303.55C37.9858 306.945 41.7758 308.268 42.6923 304.179V304.178Z" fill="#9C664B"/>
<path d="M124.738 303.821L112.048 248.922L118.291 243.609L128.942 303.246C129.391 306.641 125.655 307.911 124.738 303.821Z" fill="#9C664B"/>
<path d="M48.6826 205.28L50.7338 174.993C71.0646 162.752 111.567 165.132 127.697 180.951C138.199 191.251 134.085 206.495 134.085 206.495L48.6826 205.28Z" fill="#FCF7F7"/>
<path d="M57.813 198C57.813 198 70.4366 137.632 63.2404 120.598C58.2247 108.726 48.7766 104.747 39.794 105.246C27.0742 105.953 17.0396 112.815 9.61171 132.883C0.398444 157.774 -0.723863 221.849 15.4146 248.368C24.6951 263.619 83.4657 265.531 100.375 257.715C120.325 248.495 125.494 240.251 129.689 229.116C134.832 215.467 134.071 206.774 134.071 206.774L57.813 198Z" fill="#FCF7F7"/>
<path d="M117.888 114.253C113.358 94.6245 104.892 77.7187 100.069 70.8966C94.666 63.2541 87.5339 60.7726 82.0951 63.8548C82.1582 62.4111 82.7251 61.4075 83.3612 60.6825C83.6053 60.4049 83.7708 60.0973 83.2671 60.1118C80.887 60.1802 79.023 62.6472 78.5224 64.6057C68.2457 60.8523 59.2683 66.7268 56.3358 78.2521C53.8285 88.1078 55.258 93.6457 40.3805 108.47C29.5732 119.239 24.5047 130.707 27.7537 143.755C30.9003 156.393 44.3184 171.85 77.6183 165.921C110.051 160.146 126.437 151.303 117.888 114.252V114.253Z" fill="#46374C"/>
<path d="M119.726 276.672C119.726 276.672 114.199 285.816 116.847 290.235C116.847 290.235 113.334 293.87 108.602 291.999C105.867 290.917 104.563 286.274 104.563 286.274C108.981 283.127 109.988 273.532 109.988 273.532L119.726 276.671V276.672Z" fill="#FCA192"/>
<path d="M149.364 274.67C149.364 274.67 146.941 285.161 150.193 290.255C150.193 290.255 147.309 293.459 141.98 292.345C138.899 291.701 136.583 289.325 136.583 289.325C141.061 283.736 139.509 273.461 139.509 273.461L149.364 274.669V274.67Z" fill="#FCA192"/>
<path d="M76.1734 192.599L102.056 189.501C129.478 190.124 152.174 202.901 155.076 210.442C157.964 217.943 157.904 228.928 154.634 251.359C152.427 266.492 149.628 280.621 149.628 280.621C149.628 280.621 145.42 281.776 139.045 279.476C139.045 279.476 139.675 267.72 137.855 250.085C136.684 238.742 138.931 228.936 138.964 225.428L76.1724 192.599H76.1734Z" fill="#454256"/>
<path d="M137.729 241.083C130.229 255.909 121.123 276.608 117.812 283.213C117.812 283.213 111.695 284.999 107.606 280.361C107.606 280.361 108.63 274.05 111.034 258.615C112.638 248.271 116.058 235.658 118.567 231.002C118.567 231.002 82.7663 236.292 67.7336 230.573C53.3691 225.105 51.3241 209.482 51.0655 205.421C51.0417 205.048 51.0283 204.773 51.0242 204.606C51.0211 204.476 51.02 204.415 51.02 204.415C55.6706 197.748 62.6093 193.877 80.1824 194.572C80.442 194.581 80.7089 194.59 80.9758 194.607C84.2103 194.755 87.7831 195.057 91.7634 195.516C91.7634 195.516 124.426 201.052 135.129 207.373C148.62 215.348 145.552 225.634 137.73 241.084L137.729 241.083Z" fill="#454256"/>
<path d="M137.518 242.817L137.497 241.545C142.346 230.864 147.739 216.919 141.315 210.868C128.394 198.701 92.0976 195.92 91.7324 195.893L91.7872 195.133C92.1555 195.16 128.72 197.96 141.836 210.313C148.63 216.711 143.922 230.472 137.518 242.819V242.817Z" fill="#302F3F"/>
<path d="M118.319 231.479L117.701 231.114C117.75 230.991 119.328 228.093 121.409 226.519L121.868 227.128C119.954 228.576 118.33 231.451 118.319 231.479Z" fill="#302F3F"/>
<path d="M178.715 154.513C178.715 154.513 180.731 152.622 180.306 151.556C179.986 150.754 178.925 151.158 178.925 151.158C179.492 150.55 180.326 148.872 179.531 148.353C178.852 147.909 177.486 149.325 177.486 149.325C177.486 149.325 178.243 147.995 177.359 147.642C176.602 147.34 175.854 148.651 172.27 150.607C168.876 152.459 166.274 152.714 166.111 151.997C165.766 150.479 168.691 147.588 167.683 146.912C166.822 146.334 159.11 150.528 156.975 154.868L145.433 162.874C145.56 167.566 149.958 168.26 149.958 168.26C152.987 166.634 158.187 164.045 161.378 162.47C161.378 162.47 166.713 162.515 170.317 161.557C176.728 159.852 180.262 156.546 180.259 155.323C180.256 154.099 178.715 154.513 178.715 154.513Z" fill="#FCA192"/>
<path d="M171.704 153.4L171.566 153.045C171.609 153.028 175.173 151.769 177.682 148.878L177.851 148.987C176.179 151.585 171.88 153.331 171.704 153.4Z" fill="#EA8A7D"/>
<path d="M171.61 155.803L171.526 155.432C171.569 155.421 176.063 154.301 179.184 150.832L179.417 151.059C176.212 154.62 171.655 155.793 171.611 155.803H171.61Z" fill="#EA8A7D"/>
<path d="M173.199 157.875L173.089 157.51C173.124 157.5 177.024 156.281 178.959 154.236L179.161 154.449C177.155 156.568 173.346 157.831 173.199 157.876V157.875Z" fill="#EA8A7D"/>
<path d="M159.358 164.588C159.358 164.588 133.624 182.511 120.989 180.773C115.119 179.959 109.092 175.272 104.187 170.286C103.954 170.047 103.719 169.801 103.493 169.561C97.6252 163.429 93.528 157.09 93.528 157.09L89.3149 119.836C89.3149 119.836 101.052 121.961 109.127 137.778C117.209 153.603 121.424 160.444 124.77 161.482C128.714 162.713 153.983 155.941 153.983 155.941L159.358 164.587V164.588Z" fill="#F76B6B"/>
<path d="M72.8022 120.564C72.8022 120.564 75.2051 128.514 83.6312 129.405C92.0501 130.288 90.5068 121.603 90.5068 121.603C90.5068 121.603 89.3855 120.567 88.5849 118.011C88.2218 116.878 87.926 115.451 87.8298 113.675C87.685 111.32 87.8784 108.362 88.7018 104.703L73.6587 105.742C73.6587 105.742 74.0859 106.902 73.8904 111.237C73.578 118.147 72.8022 120.564 72.8022 120.564Z" fill="#FCA192"/>
<path d="M74.0654 105.744C74.0654 105.744 75.9439 112.096 82.7987 115.994C84.9678 117.224 87.049 117.772 88.584 118.012C88.221 116.879 87.9251 115.451 87.8289 113.675L74.0654 105.743V105.744Z" fill="#EA8A7D"/>
<path d="M70.4519 96.2098C70.4519 96.2098 66.5864 96.1042 66.605 99.667C66.6278 103.998 71.8535 106.433 73.7899 105.754L70.4519 96.2098Z" fill="#FCA192"/>
<path d="M75.4429 108.545C75.4429 108.545 83.1015 118.626 92.1006 116.551C97.2984 114.907 99.9413 109.843 101.245 105.973C101.344 105.675 101.438 105.378 101.522 105.095C102.1 103.134 102.323 101.614 102.377 101.258C102.381 101.209 102.381 101.179 102.381 101.179C102.42 100.766 102.446 100.35 102.467 99.9459C103.217 84.9748 93.4236 74.3744 81.5003 77.6628C69.7476 81.1914 66.3445 95.7844 75.4429 108.544V108.545Z" fill="#FCA192"/>
<path d="M99.5846 104.011C99.9384 104.699 100.67 105.071 101.521 105.096C101.978 103.704 102.456 101.544 102.466 99.9468C102.054 100.016 101.631 100.159 101.221 100.389C99.7191 101.221 98.9826 102.845 99.5836 104.011H99.5846Z" fill="#F78984"/>
<path d="M85.1946 106.591C85.4767 105.313 84.3434 103.976 82.6633 103.604C80.9832 103.232 79.3925 103.966 79.1104 105.243C78.8283 106.521 79.9616 107.858 81.6417 108.23C83.3218 108.602 84.9124 107.868 85.1946 106.591Z" fill="#F78984"/>
<path d="M93.552 104.198C94.0061 104.067 94.4612 103.774 94.7157 103.345C94.9505 102.952 95.1801 102.14 94.0847 101.13C91.8991 99.1153 92.0046 95.7047 92.0056 95.6705C92.0108 95.5431 91.9115 95.4365 91.7842 95.4313C91.658 95.4271 91.5505 95.5255 91.5453 95.6529C91.5391 95.801 91.4325 99.3121 93.7723 101.468C94.2212 101.883 94.6805 102.503 94.3195 103.109C94.0051 103.637 93.1962 103.925 92.7793 103.782C92.6593 103.741 92.528 103.805 92.4866 103.925C92.4452 104.045 92.5093 104.177 92.6293 104.217C92.8838 104.305 93.2169 104.295 93.551 104.198H93.552Z" fill="#EA8A7D"/>
<path d="M85.8139 71.436C85.8139 71.436 65.6889 73.407 70.3995 96.21C70.3995 96.21 70.746 97.3917 71.1608 98.1374C71.797 99.2808 72.8913 100.495 73.3516 100.153C73.8192 99.8049 72.6969 98.1416 72.7476 95.8195C75.4804 95.1349 80.042 93.2427 83.3696 87.9793C85.6443 84.3823 86.4976 80.6931 86.7738 77.7932C87.3975 78.9231 88.3471 80.2954 89.7963 81.9028C95.1906 87.885 101.257 87.1921 101.257 87.1921C100.495 72.5794 85.8139 71.4371 85.8139 71.4371V71.436Z" fill="#46374C"/>
<path d="M98.1424 82.3153C99.6474 82.7658 100.688 82.7648 100.78 82.7627C100.942 82.7606 101.073 82.627 101.071 82.4644C101.069 82.3018 100.935 82.1713 100.773 82.1734C100.725 82.1734 96.0219 82.1672 91.9682 77.5417C91.8606 77.4195 91.6744 77.4071 91.5523 77.5148C91.4303 77.6225 91.4179 77.8079 91.5254 77.9311C93.8425 80.5753 96.3302 81.7736 98.1424 82.3153Z" fill="#332738"/>
<path d="M72.8705 82.7834C74.2287 81.9931 74.9393 81.2319 75.0014 81.1646C75.111 81.0444 75.1027 80.859 74.9828 80.7482C74.8628 80.6384 74.6766 80.6467 74.5669 80.7658C74.5349 80.801 71.3107 84.2302 65.1685 84.0252C65.0061 84.02 64.8696 84.1474 64.8644 84.31C64.8592 84.4726 64.9865 84.6093 65.1489 84.6145C68.6596 84.7315 71.2341 83.7362 72.8705 82.7834Z" fill="#332738"/>
<path d="M70.6495 91.0367C70.6568 91.0357 70.664 91.0336 70.6723 91.0326C80.5558 88.5832 82.2522 79.064 82.2688 78.9687C82.2957 78.8082 82.1871 78.657 82.0267 78.6301C81.8664 78.6031 81.7143 78.7119 81.6874 78.8724C81.6719 78.9646 80.0314 88.1067 70.5306 90.4619C70.3723 90.5013 70.2761 90.6608 70.3154 90.8192C70.3527 90.9694 70.4995 91.0647 70.6495 91.0388V91.0367Z" fill="#332738"/>
<path d="M68.4124 99.4434C68.43 99.317 68.5458 99.228 68.672 99.2466C72.0286 99.7096 72.2944 102.995 72.2975 103.028C72.3058 103.147 72.222 103.251 72.1072 103.271C72.1 103.272 72.0917 103.273 72.0845 103.274C71.9572 103.283 71.8476 103.187 71.8393 103.061C71.8393 103.049 71.7948 102.546 71.5383 101.932C71.5238 101.91 71.0211 101.151 69.7157 101.67C69.5978 101.718 69.4644 101.659 69.4168 101.541C69.3702 101.423 69.4282 101.288 69.5461 101.241C70.1926 100.986 70.6922 100.994 71.0656 101.099C70.5918 100.461 69.8336 99.8722 68.6089 99.7033C68.4827 99.6857 68.3948 99.5697 68.4124 99.4434Z" fill="#EA8A7D"/>
<path d="M96.3345 108.765C96.5186 108.973 96.4989 109.203 96.201 109.179C93.8044 108.989 91.3839 109.298 89.2779 110.038C88.9086 110.169 88.8052 109.893 88.9531 109.669C89.5096 108.825 90.7819 107.705 92.5062 107.494C94.093 107.299 95.7438 108.095 96.3345 108.765Z" fill="white"/>
<path d="M81.2354 97.5976C81.2354 97.5976 83.2038 98.449 85.0502 97.8856C87.3321 97.1906 88.3013 95.3491 88.3013 95.3491C88.2992 95.4537 88.2899 95.6764 88.2423 95.9726C87.9661 97.6836 86.8076 99.0704 85.4702 99.4826C84.17 99.8824 82.7032 99.348 81.6078 98.101C81.4433 97.9135 81.3171 97.7385 81.2344 97.5987L81.2354 97.5976Z" fill="#443038"/>
<path d="M101.532 94.2163C101.532 94.2163 100.05 95.6 98.2438 95.6601C96.0116 95.7346 94.5903 94.3603 94.5903 94.3603C94.6245 94.4545 94.701 94.6544 94.8334 94.9092C95.6009 96.3799 97.0511 97.283 98.3607 97.2426C99.634 97.2043 100.769 96.2629 101.355 94.7901C101.444 94.5684 101.501 94.3696 101.531 94.2173L101.532 94.2163Z" fill="#443038"/>
<path d="M80.1765 94.1366C80.2489 94.5696 82.2815 94.4939 83.9851 93.7099C86.0022 92.783 87.018 91.7369 86.3642 91.1569C85.9474 90.7872 85.1737 91.5173 83.29 92.5582C80.9337 93.8611 80.1393 93.9119 80.1765 94.1366Z" fill="#46374C"/>
<path d="M100.91 90.6523C100.982 91.0852 99.0365 91.6776 97.1705 91.4943C94.9621 91.2778 93.6598 90.6212 94.0901 89.8589C94.3642 89.3732 95.3334 89.8102 97.4529 90.1779C100.105 90.6388 100.873 90.4275 100.911 90.6512L100.91 90.6523Z" fill="#46374C"/>
<path d="M89.3153 119.839C89.3153 119.839 90.5576 126.181 84.8571 126.57C77.7271 127.054 73.2058 118.628 73.2058 118.628C73.2058 118.628 61.0622 119.294 53.8153 129.454C44.4665 142.561 43.0339 183.837 50.8528 201.746C50.8528 201.746 66.5899 202.972 81.7912 199.566C97.3442 196.081 102.057 189.5 102.057 189.5C102.057 189.5 101.622 178.423 103.133 171.625C104.643 164.826 108.712 157.645 107.146 149.241C105.082 138.167 104.516 132.126 100.462 126.613C96.5684 121.317 89.3153 119.839 89.3153 119.839Z" fill="#F76B6B"/>
<path d="M104.188 170.287C103.954 170.047 103.846 169.934 103.62 169.695C104.008 165.91 104.674 156.305 103.932 149.051C103.251 142.489 100.01 134.558 99.9776 134.475C99.8969 134.287 99.9911 134.063 100.188 133.982C100.376 133.901 100.599 133.996 100.68 134.185C100.712 134.268 104.001 142.305 104.685 148.973C105.492 156.752 104.534 167.028 104.189 170.287H104.188Z" fill="#DD5252"/>
<path d="M74.306 194.983C74.306 194.983 80.3293 194.042 84.1627 193.41C88.0654 192.767 89.9035 191.226 92.7853 191.501C96.2702 191.833 99.6505 192.515 101.8 193.999C103.949 195.483 105.296 196.955 105.084 197.394C104.872 197.833 103.701 197.554 103.701 197.554C103.701 197.554 104.271 198.084 103.594 198.451C102.923 198.815 101.47 198.544 101.47 198.544C101.47 198.544 101.616 199.201 100.17 199.275C99.0423 199.333 98.1734 198.834 98.1734 198.834C98.1734 198.834 98.5044 200.184 95.4261 199.788C91.3237 199.261 91.1365 199.135 89.1277 199.921C85.1081 201.494 75.3839 203.014 75.3839 203.014C75.3839 203.014 71.898 199.173 74.3071 194.983H74.306Z" fill="#FCA192"/>
<path d="M98.1777 199.03C96.3747 196.983 91.8917 196.847 91.8462 196.844L91.8721 196.51C92.0634 196.522 96.5526 196.47 98.4549 198.966L98.1777 199.029V199.03Z" fill="#EA8A7D"/>
<path d="M101.426 198.763C101.068 198.209 99.1241 196.565 97.3294 195.945C95.5079 195.315 92.9809 194.884 92.9561 194.879L93.0212 194.551C93.0471 194.555 95.602 194.991 97.4515 195.631C99.3465 196.286 101.325 197.981 101.713 198.581L101.426 198.763Z" fill="#EA8A7D"/>
<path d="M103.879 197.807C103.867 197.79 102.489 196.257 100.552 195.028C98.6181 193.801 95.1674 193.209 95.1333 193.202L95.1985 192.874C95.3422 192.898 98.7547 193.484 100.748 194.749C102.737 196.011 104.056 197.553 104.109 197.622L103.879 197.807Z" fill="#EA8A7D"/>
<path d="M60.5023 174.202C58.841 196.408 80.3831 193.796 80.3831 193.796L82.4447 202.247C82.4447 202.247 79.3498 204.443 69.4507 205.402C59.1824 206.397 49.4426 209.128 42.052 194.951C34.6613 180.775 35.1133 153.001 46.7294 134.779C55.8393 120.488 73.2055 118.627 73.2055 118.627L60.5023 174.201V174.202Z" fill="#F76B6B"/>
<path d="M82.897 202.491L82.5794 202.604C82.4356 202.661 71.9976 206.437 61.4335 206.675C57.8618 206.756 54.2724 206.431 51.0648 205.421C51.041 205.048 51.0276 204.773 51.0234 204.605C62.5703 208.427 79.4607 202.881 81.9939 202.001L80.1807 194.572L80.0803 194.154C78.0271 193.995 65.9631 192.916 61.7335 189.158C58.1566 185.989 53.8732 174.061 63.2447 151.616C63.3316 151.423 63.5509 151.334 63.7433 151.414C63.9429 151.494 64.0319 151.712 63.9522 151.913C55.4123 172.355 58.2424 185.048 62.2382 188.59C66.5764 192.437 80.2696 193.411 80.4062 193.416L80.6885 193.432L80.974 194.609L82.8959 202.493L82.897 202.491Z" fill="#DD5252"/>
<path d="M129.056 305.535C128.6 305.944 127.997 306.263 127.254 306.448C124.336 307.183 117.963 305.402 114.531 302.756C110.68 299.802 109.025 299.468 104.442 297.556C100.216 295.795 100.043 294.008 100.801 291.88C100.867 291.692 100.942 291.507 101.015 291.323C101.696 289.64 104.056 287.078 104.907 284.844C105.3 283.797 105.793 283.714 106.302 284.154C106.87 284.656 107.976 285.674 109.092 286.418C111.771 288.205 113.823 288.215 113.823 288.215L113.954 288.011C114.395 287.366 115.889 285.533 117.742 287.105C118.799 288.015 119.847 290.789 122.255 293.776C123.469 295.278 124.72 296.351 125.888 297.318C127.223 298.432 128.445 299.411 129.372 300.771C130.51 302.441 130.369 304.362 129.056 305.535Z" fill="#F6CC7D"/>
<path d="M129.056 305.535C128.6 305.944 127.967 306.328 127.231 306.533C124.117 307.398 118.117 305.645 114.687 302.998C110.658 299.889 108.905 299.581 104.32 297.668C100.094 295.908 100.042 294.009 100.801 291.88C101.152 293.988 104.432 296.313 108.806 297.362C113.94 298.592 114.16 301.614 120.965 304.502C125.523 306.436 128.139 306.135 129.056 305.535Z" fill="#E5A55A"/>
<path d="M117.033 291.822C116.818 291.822 116.638 291.655 116.623 291.438C116.61 291.211 116.781 291.016 117.006 291.002C117.026 291.001 118.872 290.863 119.538 289.506C119.639 289.304 119.886 289.223 120.088 289.319C120.291 289.419 120.375 289.666 120.276 289.87C119.398 291.656 117.154 291.816 117.059 291.821C117.051 291.822 117.041 291.822 117.033 291.822Z" fill="#FCF7F7"/>
<path d="M118.645 294.218C118.43 294.218 118.25 294.052 118.236 293.834C118.222 293.607 118.393 293.413 118.618 293.398C118.638 293.397 120.484 293.259 121.15 291.903C121.251 291.701 121.498 291.62 121.701 291.715C121.904 291.816 121.987 292.062 121.888 292.266C121.01 294.053 118.766 294.212 118.671 294.217C118.663 294.218 118.653 294.218 118.645 294.218Z" fill="#FCF7F7"/>
<path d="M120.2 296.148C119.985 296.148 119.805 295.981 119.79 295.764C119.777 295.537 119.948 295.342 120.173 295.328C120.193 295.327 122.039 295.189 122.705 293.832C122.807 293.628 123.056 293.548 123.254 293.644C123.458 293.744 123.542 293.99 123.443 294.193C122.565 295.982 120.321 296.142 120.226 296.147C120.218 296.148 120.208 296.148 120.2 296.148Z" fill="#FCF7F7"/>
<path d="M122.799 298.979C121.349 298.979 119.524 298.321 117.435 296.161C113.8 292.407 113.139 288.587 113.112 288.426C113.076 288.202 113.227 287.992 113.45 287.954C113.691 287.925 113.885 288.07 113.922 288.292C113.928 288.329 114.578 292.031 118.025 295.591C121.934 299.63 124.629 297.935 125.606 297.019C125.772 296.862 126.032 296.872 126.186 297.037C126.341 297.203 126.332 297.463 126.167 297.618C125.681 298.074 124.498 298.981 122.799 298.981V298.979Z" fill="#FCF7F7"/>
<path d="M160.377 305.566C159.93 305.948 159.345 306.239 158.631 306.393C155.826 307.011 149.799 305.063 146.606 302.373C143.021 299.37 141.453 298.99 137.137 296.975C133.158 295.12 133.048 293.377 133.835 291.33C133.904 291.15 133.98 290.972 134.056 290.795C134.755 289.18 137.083 286.768 137.961 284.623C138.367 283.617 138.84 283.553 139.313 283.997C139.839 284.505 140.864 285.533 141.906 286.293C144.407 288.123 146.364 288.2 146.364 288.2L146.496 288.007C146.935 287.395 148.414 285.662 150.136 287.254C151.117 288.174 152.034 290.908 154.241 293.896C155.354 295.397 156.515 296.483 157.6 297.464C158.84 298.591 159.976 299.586 160.82 300.94C161.855 302.603 161.664 304.467 160.377 305.564V305.566Z" fill="#F6CC7D"/>
<path d="M160.377 305.566C159.93 305.948 159.315 306.301 158.605 306.475C155.61 307.211 149.939 305.305 146.746 302.615C142.996 299.455 141.333 299.096 137.018 297.081C133.038 295.226 133.047 293.378 133.834 291.332C134.106 293.394 137.165 295.767 141.305 296.934C146.165 298.304 146.285 301.252 152.689 304.29C156.977 306.324 159.482 306.12 160.375 305.567L160.377 305.566Z" fill="#E5A55A"/>
<path d="M149.236 291.842C149.031 291.832 148.867 291.662 148.864 291.45C148.862 291.23 149.035 291.047 149.25 291.043C149.269 291.043 151.036 290.991 151.737 289.703C151.842 289.511 152.081 289.444 152.27 289.546C152.459 289.652 152.527 289.896 152.422 290.089C151.498 291.787 149.35 291.841 149.259 291.842C149.251 291.842 149.243 291.842 149.235 291.842H149.236Z" fill="#FCF7F7"/>
<path d="M150.656 294.243C150.451 294.233 150.288 294.062 150.285 293.851C150.283 293.631 150.455 293.448 150.671 293.444C150.689 293.444 152.457 293.392 153.157 292.104C153.263 291.912 153.502 291.845 153.691 291.946C153.879 292.053 153.947 292.297 153.842 292.49C152.918 294.188 150.771 294.242 150.681 294.243C150.673 294.243 150.664 294.243 150.656 294.243Z" fill="#FCF7F7"/>
<path d="M152.045 296.189C151.84 296.179 151.677 296.008 151.674 295.797C151.672 295.577 151.845 295.394 152.06 295.39C152.078 295.39 153.846 295.338 154.546 294.05C154.653 293.856 154.894 293.79 155.079 293.891C155.268 293.998 155.337 294.242 155.231 294.434C154.306 296.134 152.16 296.188 152.069 296.189C152.061 296.189 152.052 296.189 152.044 296.189H152.045Z" fill="#FCF7F7"/>
<path d="M154.385 299.057C153.003 298.992 151.295 298.27 149.409 296.077C146.126 292.264 145.682 288.521 145.664 288.363C145.64 288.144 145.794 287.945 146.009 287.919C146.24 287.902 146.418 288.051 146.442 288.269C146.446 288.306 146.886 291.933 149.997 295.548C153.527 299.65 156.18 298.124 157.155 297.277C157.322 297.133 157.569 297.154 157.707 297.32C157.847 297.488 157.826 297.741 157.662 297.884C157.177 298.305 156.004 299.134 154.384 299.057H154.385Z" fill="#FCF7F7"/>
<path d="M21.6787 247.617L22.4224 202.242C37.2462 198.579 80.8641 200.286 92.1917 218.875C102.3 235.462 101.355 252.415 101.355 252.415L21.6787 247.617Z" fill="#FCF7F7"/>
<path d="M100.891 246.017C100.869 246.314 100.626 246.535 100.351 246.535H100.306C99.9982 246.513 99.7779 246.248 99.7996 245.939C99.811 245.807 100.681 232.045 90.7033 217.788C79.5474 201.876 45.992 201.402 42.203 201.402H42.1586C31.0027 201.402 19.7703 203.552 19.6597 203.574L19.1197 203.673L19.009 203.144C12.3135 170.913 18.3946 139.307 28.122 127.214C28.122 127.214 27.6761 128.523 27.2583 130.744C20.4624 140.712 13.954 172.898 19.9783 202.383C22.3573 201.965 32.2905 200.299 42.1689 200.299H42.202C48.4797 200.299 80.3718 201.126 91.5939 217.159C101.824 231.748 100.899 245.883 100.889 246.016L100.891 246.017Z" fill="#E8D4D4"/>
</g>
<defs>
<clipPath id="clip0_277_45365">
<rect width="381" height="315" fill="white"/>
</clipPath>
</defs>
</svg>
