<svg width="15" height="15" viewBox="0 0 15 15" fill="none" xmlns="http://www.w3.org/2000/svg">
<path d="M10.75 1H4.25C2.45507 1 1 2.45507 1 4.25V10.75C1 12.5449 2.45507 14 4.25 14H10.75C12.5449 14 14 12.5449 14 10.75V4.25C14 2.45507 12.5449 1 10.75 1Z" stroke="black" stroke-width="0.8" stroke-linecap="round" stroke-linejoin="round"/>
<path d="M10.0995 7.09045C10.1797 7.63141 10.0873 8.18389 9.83543 8.66931C9.58356 9.15473 9.18504 9.54837 8.69655 9.79424C8.20806 10.0401 7.65448 10.1257 7.11455 10.0388C6.57462 9.95192 6.07584 9.697 5.68914 9.3103C5.30244 8.92361 5.04752 8.42482 4.96064 7.88489C4.87375 7.34496 4.95933 6.79138 5.2052 6.30289C5.45107 5.81441 5.84471 5.41588 6.33013 5.16401C6.81555 4.91213 7.36803 4.81973 7.90899 4.89995C8.46079 4.98178 8.97164 5.2389 9.36609 5.63335C9.76054 6.0278 10.0177 6.53865 10.0995 7.09045Z" stroke="black" stroke-width="0.8" stroke-linecap="round" stroke-linejoin="round"/>
<path d="M11.0758 3.92505H11.0858" stroke="black" stroke-width="0.8" stroke-linecap="round" stroke-linejoin="round"/>
</svg>
