<svg width="12" height="13" viewBox="0 0 12 13" fill="none" xmlns="http://www.w3.org/2000/svg">
<path d="M-7.78848e-08 6.5C-7.6074e-08 6.65112 0.058649 6.8024 0.175799 6.91777L6.17578 12.8268C6.41023 13.0577 6.78988 13.0577 7.02418 12.8268C7.25848 12.5959 7.25863 12.222 7.02418 11.9913L1.44839 6.5L7.02418 1.00871C7.25863 0.777817 7.25863 0.40392 7.02418 0.173172C6.78973 -0.0575771 6.41008 -0.0577249 6.17578 0.173172L0.175799 6.08223C0.058649 6.1976 -7.96956e-08 6.34888 -7.78848e-08 6.5ZM4.97578 6.08223L10.9758 0.173172C11.2102 -0.0577249 11.5899 -0.0577249 11.8242 0.173172C12.0585 0.404068 12.0586 0.777965 11.8242 1.00871L6.24838 6.5L11.8242 11.9913C12.0586 12.2222 12.0586 12.5961 11.8242 12.8268C11.5897 13.0576 11.2101 13.0577 10.9758 12.8268L4.97578 6.91777C4.85863 6.8024 4.79999 6.65112 4.79999 6.5C4.79999 6.34888 4.85863 6.1976 4.97578 6.08223Z" fill="#0A2540"/>
</svg>
