<svg width="20" height="19" viewBox="0 0 20 19" fill="none" xmlns="http://www.w3.org/2000/svg">
<path d="M15.8804 8.7085H4.79711C3.92266 8.7085 3.21378 9.41738 3.21378 10.2918V15.8335C3.21378 16.7079 3.92266 17.4168 4.79711 17.4168H15.8804C16.7549 17.4168 17.4638 16.7079 17.4638 15.8335V10.2918C17.4638 9.41738 16.7549 8.7085 15.8804 8.7085Z" stroke="#40658B" stroke-linecap="round" stroke-linejoin="round"/>
<path d="M6.38043 8.7085V5.54183C6.38043 4.49201 6.79747 3.4852 7.5398 2.74287C8.28213 2.00053 9.28895 1.5835 10.3388 1.5835C11.3886 1.5835 12.3954 2.00053 13.1377 2.74287C13.8801 3.4852 14.2971 4.49201 14.2971 5.54183V8.7085" stroke="#40658B" stroke-linecap="round" stroke-linejoin="round"/>
</svg>
