<svg width="192" height="61" viewBox="0 0 192 61" fill="none" xmlns="http://www.w3.org/2000/svg">
<path d="M6.21517 33V32.4967L9.392 31.2386V13.9705H4.42231L2.18909 18.72H1.68583V12.2405H20.3694V18.72H19.8661L17.6643 13.9705H12.6632V31.2386L15.8715 32.4967V33H6.21517ZM22.2689 33V32.4967L24.2819 31.4902V22.117L22.3632 20.5129V20.2612L26.7038 18.4998H26.9555L27.2386 21.2048H27.3644C27.8467 20.408 28.287 19.8209 28.6854 19.4434C29.0838 19.045 29.4613 18.7934 29.8178 18.6885C30.1742 18.5627 30.5412 18.4998 30.9186 18.4998C31.1074 18.4998 31.3066 18.5313 31.5163 18.5942C31.7469 18.6361 31.9356 18.6885 32.0824 18.7515C32.3341 18.8563 32.5542 18.9821 32.743 19.1289C32.9317 19.2757 33.026 19.4434 33.026 19.6322C33.026 19.8209 32.9841 20.0096 32.9002 20.1983L32.2397 21.8654H32.0195L30.9186 21.425C30.667 21.3411 30.4259 21.2887 30.1952 21.2678C29.9645 21.2258 29.7339 21.2048 29.5032 21.2048C28.6016 21.2048 27.8571 21.6347 27.27 22.4944V31.4902L29.5661 32.4967V33H22.2689ZM40.5214 33.3145C39.2842 33.3145 38.2672 33 37.4704 32.3709C36.6945 31.7419 36.3066 30.8192 36.3066 29.603V20.2927L34.2935 19.3176V18.8144H39.2632V28.1561C39.2632 29.0368 39.5253 29.7078 40.0496 30.1692C40.5948 30.6305 41.2972 30.8611 42.157 30.8611C42.6812 30.8611 43.2578 30.7773 43.8869 30.6095C44.516 30.4208 45.0193 30.1482 45.3967 29.7917V20.2927L43.2578 19.3176V18.8144H48.3848V31.5846L50.5551 32.4967V33H45.3967V31.0184H45.2394C44.4636 31.7943 43.7087 32.3709 42.9748 32.7484C42.2408 33.1258 41.423 33.3145 40.5214 33.3145ZM59.5307 33.3145C57.4758 33.3145 55.8506 32.6959 54.6554 31.4588C53.4602 30.2216 52.8625 28.5755 52.8625 26.5205C52.8625 24.9688 53.1771 23.5848 53.8062 22.3686C54.4562 21.1524 55.3054 20.2088 56.3539 19.5378C57.4233 18.8458 58.5766 18.4998 59.8138 18.4998C61.4914 18.4998 62.8019 19.0765 63.7455 20.2298C64.6891 21.3621 65.1714 22.9977 65.1924 25.1366L65.0351 25.2938H55.7563C55.7773 26.2584 55.9555 27.1496 56.291 27.9674C56.6475 28.7852 57.2032 29.4457 57.958 29.949C58.7339 30.4522 59.7719 30.7039 61.072 30.7039C62.2672 30.7039 63.6197 30.3055 65.1295 29.5086H65.2239V29.8861C64.7206 30.8507 63.9762 31.6685 62.9906 32.3395C62.0051 32.9895 60.8518 33.3145 59.5307 33.3145ZM59.2477 19.8838C58.325 19.8838 57.5596 20.2298 56.9515 20.9218C56.3644 21.6137 55.9869 22.5888 55.8192 23.847H62.5188C62.3091 22.4211 61.9317 21.4041 61.3865 20.7959C60.8413 20.1878 60.1284 19.8838 59.2477 19.8838ZM69.4146 40.5804C68.9323 40.5804 68.6282 40.507 68.5024 40.3602C68.3976 40.2344 68.3452 40.0037 68.3452 39.6682V37.9697L68.471 37.8124H69.9178C70.4421 37.8124 70.851 37.7705 71.1445 37.6866C71.4381 37.6027 71.7107 37.3721 71.9623 36.9946C72.214 36.6381 72.5285 36.03 72.906 35.1703L73.9439 32.8113L68.0621 20.2612L65.9861 19.3176V18.8144H73.7867V19.3176L71.3333 20.2612V20.4185L75.3593 29.0997H75.4852L78.7878 20.5758V20.4185L76.5546 19.3176V18.8144H82.6881V19.3176L80.3605 20.3556L74.1326 35.4848C73.9439 35.9671 73.7762 36.3656 73.6294 36.6801C73.5036 37.0156 73.3568 37.3301 73.189 37.6237C73.0213 37.9382 72.7801 38.3157 72.4656 38.756C72.0462 39.3641 71.5639 39.815 71.0187 40.1085C70.4735 40.4231 69.9388 40.5804 69.4146 40.5804ZM90.4097 33.3145C89.0048 33.3145 87.7676 32.9895 86.6982 32.3395C85.6497 31.6685 84.8214 30.7773 84.2133 29.6659C83.6262 28.5336 83.3326 27.2754 83.3326 25.8915C83.3326 24.5075 83.6262 23.2598 84.2133 22.1485C84.8214 21.0161 85.6497 20.1249 86.6982 19.4749C87.7676 18.8248 89.0048 18.4998 90.4097 18.4998C91.8146 18.4998 93.0413 18.8248 94.0898 19.4749C95.1383 20.1249 95.9561 21.0161 96.5432 22.1485C97.1513 23.2598 97.4554 24.5075 97.4554 25.8915C97.4554 27.2754 97.1513 28.5336 96.5432 29.6659C95.9561 30.7773 95.1383 31.6685 94.0898 32.3395C93.0413 32.9895 91.8146 33.3145 90.4097 33.3145ZM90.8186 31.9306C91.6154 31.9306 92.2655 31.6685 92.7687 31.1442C93.272 30.62 93.639 29.949 93.8696 29.1312C94.1003 28.3134 94.2156 27.4432 94.2156 26.5205C94.2156 25.4092 94.0688 24.3502 93.7753 23.3437C93.5027 22.3162 93.0623 21.4774 92.4542 20.8274C91.8461 20.1774 91.0493 19.8523 90.0637 19.8523C89.2669 19.8523 88.6064 20.1145 88.0821 20.6387C87.5579 21.1419 87.17 21.8025 86.9183 22.6203C86.6877 23.4381 86.5724 24.3083 86.5724 25.2309C86.5724 26.3423 86.7191 27.4117 87.0127 28.4392C87.3063 29.4667 87.7676 30.3055 88.3967 30.9555C89.0257 31.6056 89.8331 31.9306 90.8186 31.9306ZM105.948 33.3145C104.71 33.3145 103.693 33 102.897 32.3709C102.121 31.7419 101.733 30.8192 101.733 29.603V20.2927L99.7198 19.3176V18.8144H104.689V28.1561C104.689 29.0368 104.952 29.7078 105.476 30.1692C106.021 30.6305 106.723 30.8611 107.583 30.8611C108.107 30.8611 108.684 30.7773 109.313 30.6095C109.942 30.4208 110.445 30.1482 110.823 29.7917V20.2927L108.684 19.3176V18.8144H113.811V31.5846L115.981 32.4967V33H110.823V31.0184H110.666C109.89 31.7943 109.135 32.3709 108.401 32.7484C107.667 33.1258 106.849 33.3145 105.948 33.3145ZM120.805 33.1573C120.26 33.1573 119.788 32.9581 119.39 32.5596C118.991 32.1612 118.792 31.6894 118.792 31.1442C118.792 30.599 118.991 30.1272 119.39 29.7288C119.788 29.3304 120.26 29.1312 120.805 29.1312C121.35 29.1312 121.822 29.3304 122.22 29.7288C122.619 30.1272 122.818 30.599 122.818 31.1442C122.818 31.6894 122.619 32.1612 122.22 32.5596C121.822 32.9581 121.35 33.1573 120.805 33.1573ZM136.426 33.3145C134.266 33.3145 132.4 32.8742 130.827 31.9935C129.255 31.1128 128.038 29.907 127.179 28.3763C126.319 26.8456 125.889 25.1051 125.889 23.155C125.889 21.6452 126.183 20.2193 126.77 18.8773C127.357 17.5352 128.154 16.34 129.16 15.2915C130.188 14.2431 131.362 13.4253 132.683 12.8382C134.004 12.23 135.409 11.926 136.898 11.926C137.967 11.926 138.869 11.9994 139.603 12.1462C140.337 12.272 140.987 12.4502 141.553 12.6809C142.14 12.8906 142.727 13.1422 143.314 13.4358L143.503 19.0345H142.937L140.767 14.9456C140.054 14.4423 139.404 14.0753 138.817 13.8447C138.25 13.614 137.611 13.4987 136.898 13.4987C135.451 13.4987 134.151 13.8761 132.998 14.631C131.844 15.3859 130.932 16.4344 130.261 17.7764C129.611 19.0974 129.286 20.6282 129.286 22.3686C129.286 24.3188 129.601 25.9963 130.23 27.4012C130.88 28.7852 131.75 29.8441 132.84 30.5781C133.931 31.312 135.136 31.6789 136.457 31.6789C137.548 31.6789 138.46 31.5322 139.194 31.2386C139.949 30.945 140.62 30.599 141.207 30.2006L143.314 26.6778H143.849L143.472 31.7419C142.549 32.2032 141.563 32.5806 140.515 32.8742C139.467 33.1678 138.104 33.3145 136.426 33.3145ZM147.834 33V32.4967L149.815 31.4902V12.9954L147.928 11.3913V11.1396L152.552 9.40969H152.803V31.4902L154.753 32.4967V33H147.834ZM163.019 33.3145C161.782 33.3145 160.765 33 159.968 32.3709C159.192 31.7419 158.804 30.8192 158.804 29.603V20.2927L156.791 19.3176V18.8144H161.761V28.1561C161.761 29.0368 162.023 29.7078 162.547 30.1692C163.092 30.6305 163.795 30.8611 164.655 30.8611C165.179 30.8611 165.755 30.7773 166.384 30.6095C167.014 30.4208 167.517 30.1482 167.894 29.7917V20.2927L165.755 19.3176V18.8144H170.882V31.5846L173.053 32.4967V33H167.894V31.0184H167.737C166.961 31.7943 166.206 32.3709 165.472 32.7484C164.738 33.1258 163.921 33.3145 163.019 33.3145ZM177.027 33.2831V12.9954L175.109 11.3913V11.1396L179.764 9.40969H179.984V20.4185H180.11C180.906 19.7475 181.672 19.2652 182.406 18.9716C183.14 18.6571 183.937 18.4998 184.796 18.4998C185.824 18.4998 186.746 18.7724 187.564 19.3176C188.382 19.8628 189.032 20.6387 189.514 21.6452C189.997 22.6307 190.238 23.826 190.238 25.2309C190.238 26.9294 189.902 28.3868 189.231 29.603C188.581 30.7982 187.69 31.7209 186.558 32.3709C185.446 33 184.209 33.3145 182.846 33.3145C181.965 33.3145 181.148 33.2307 180.393 33.0629C179.638 32.9161 178.935 32.6959 178.285 32.4024L177.247 33.2831H177.027ZM182.878 20.7645C181.871 20.7645 180.906 21.0476 179.984 21.6137V30.5466C180.508 30.987 181.043 31.3015 181.588 31.4902C182.133 31.6789 182.741 31.7733 183.412 31.7733C184.104 31.7733 184.733 31.5846 185.3 31.2071C185.887 30.8297 186.358 30.2216 186.715 29.3828C187.071 28.5231 187.25 27.3907 187.25 25.9858C187.25 24.7906 187.05 23.805 186.652 23.0292C186.254 22.2533 185.719 21.6871 185.048 21.3307C184.398 20.9532 183.674 20.7645 182.878 20.7645Z" fill="#006AF2"/>
<path d="M3.07722 54.7095V54.4578L4.20956 54.0804V50.7966L1.42905 46.9844L0.648993 46.6573V46.4057H3.51757V46.6573L2.63687 46.9844V47.0348L4.93928 50.2305L7.02781 47.0473V46.997L6.10936 46.6573V46.4057H8.65083V46.6573L7.85819 46.9593L5.19091 50.8218V54.0804L6.32325 54.4578V54.7095H3.07722ZM13.0405 54.8353C12.3695 54.8353 11.7698 54.6801 11.2413 54.3698C10.7129 54.051 10.2935 53.6191 9.98319 53.0739C9.68123 52.5203 9.53025 51.8912 9.53025 51.1867C9.53025 50.4821 9.68123 49.853 9.98319 49.2994C10.2935 48.7458 10.7129 48.3139 11.2413 48.0035C11.7698 47.6848 12.3695 47.5254 13.0405 47.5254C13.7199 47.5254 14.3238 47.6848 14.8522 48.0035C15.389 48.3139 15.8084 48.7458 16.1104 49.2994C16.4207 49.853 16.5759 50.4821 16.5759 51.1867C16.5759 51.8912 16.4207 52.5203 16.1104 53.0739C15.8084 53.6191 15.389 54.051 14.8522 54.3698C14.3238 54.6801 13.7199 54.8353 13.0405 54.8353ZM13.267 54.2817C13.9967 54.2817 14.5754 54.0301 15.0032 53.5268C15.4394 53.0236 15.6574 52.3483 15.6574 51.5012C15.6574 50.8134 15.5358 50.2137 15.2926 49.702C15.0577 49.182 14.7306 48.7794 14.3112 48.4942C13.8918 48.209 13.4095 48.0664 12.8643 48.0664C12.1346 48.0664 11.5475 48.3181 11.1029 48.8213C10.6584 49.3246 10.4361 49.9956 10.4361 50.8344C10.4361 51.5222 10.5577 52.1261 10.801 52.6461C11.0442 53.1661 11.3797 53.5688 11.8075 53.8539C12.2353 54.1391 12.7218 54.2817 13.267 54.2817ZM21.8907 54.8353C21.3455 54.8353 20.859 54.743 20.4312 54.5585C20.0035 54.374 19.6638 54.0804 19.4121 53.6778C19.1689 53.2668 19.0473 52.7342 19.0473 52.0799V48.23L18.154 47.9155V47.6638H20.8464V47.9155L19.9531 48.23V51.9667C19.9531 52.8222 20.1419 53.4178 20.5193 53.7533C20.8967 54.0888 21.4126 54.2565 22.0668 54.2565C22.4359 54.2565 22.7714 54.1852 23.0733 54.0427C23.3837 53.8917 23.6269 53.6694 23.8031 53.3758C23.9876 53.0739 24.0799 52.6922 24.0799 52.2309V48.2048L23.0104 47.9155V47.6638H25.5645V47.9155L24.6838 48.2174V52.0799C24.6838 52.7342 24.5622 53.2668 24.3189 53.6778C24.0757 54.0804 23.7444 54.374 23.325 54.5585C22.9056 54.743 22.4275 54.8353 21.8907 54.8353ZM27.1969 54.7095V54.4578L28.0902 54.1433V48.23L27.1969 47.9155V47.6638H29.7384C30.5184 47.6638 31.1307 47.8232 31.5753 48.1419C32.0198 48.4607 32.2421 48.8884 32.2421 49.4252C32.2421 49.853 32.1079 50.2137 31.8395 50.5073C31.5795 50.8008 31.223 51.0273 30.7701 51.1867L32.7705 54.181L33.5506 54.4578V54.7095H31.9779L29.8768 51.4383H28.9835V54.1307L29.8139 54.4578V54.7095H27.1969ZM29.6755 48.2048H28.9835V50.8973H29.7384C30.2081 50.8973 30.5814 50.7757 30.8581 50.5324C31.1349 50.2892 31.2733 49.9662 31.2733 49.5636C31.2733 49.1275 31.1349 48.792 30.8581 48.5571C30.5814 48.3223 30.1871 48.2048 29.6755 48.2048ZM37.4685 54.7095V54.4578L38.4625 54.0804V47.0348L37.4685 46.6573V46.4057H40.5762V46.6573L39.4438 47.0348V54.1181H42.6395L43.3944 51.9667H43.6083V54.7095H37.4685ZM45.3074 54.7095V54.4578L46.1881 54.1433V48.23L45.3074 47.9155V47.6638H50.5036V49.4252H50.2771L49.7487 48.2048H47.094V50.7966H49.0315L49.3587 49.9285H49.5725V52.1806H49.3587L49.0315 51.325H47.094V54.1685H50.0381L50.5916 52.7845H50.8055V54.7095H45.3074ZM52.1048 54.7095V54.4578L52.7213 54.2188L55.5143 47.6009H55.9295L58.6975 54.181L59.402 54.4578V54.7095H56.8228V54.4578L57.7287 54.1936L56.8857 52.168H54.2184L53.3881 54.2062L54.3317 54.4578V54.7095H52.1048ZM54.4323 51.6396H56.6718L55.5395 48.9094L54.4323 51.6396ZM60.6411 54.7095V54.4578L61.5344 54.1433V48.23L60.6411 47.9155V47.6638H63.1826C63.9626 47.6638 64.5749 47.8232 65.0195 48.1419C65.464 48.4607 65.6863 48.8884 65.6863 49.4252C65.6863 49.853 65.5521 50.2137 65.2837 50.5073C65.0237 50.8008 64.6672 51.0273 64.2143 51.1867L66.2147 54.181L66.9948 54.4578V54.7095H65.4221L63.321 51.4383H62.4277V54.1307L63.2581 54.4578V54.7095H60.6411ZM63.1197 48.2048H62.4277V50.8973H63.1826C63.6523 50.8973 64.0255 50.7757 64.3023 50.5324C64.5791 50.2892 64.7175 49.9662 64.7175 49.5636C64.7175 49.1275 64.5791 48.792 64.3023 48.5571C64.0255 48.3223 63.6313 48.2048 63.1197 48.2048ZM67.7296 54.7095V54.4578L68.6103 54.1433V48.2174L67.7296 47.9155V47.6638H69.3778L73.6681 53.0739V48.2174L72.6615 47.9155V47.6638H75.1401V47.9155L74.272 48.2174V54.7598H73.8694L69.2016 48.9471V54.1056L70.2585 54.4578V54.7095H67.7296ZM76.7258 54.7095V54.4578L77.5561 54.1433V48.23L76.7258 47.9155V47.6638H79.305V47.9155L78.462 48.23V54.1433L79.305 54.4578V54.7095H76.7258ZM80.9623 54.7095V54.4578L81.843 54.1433V48.2174L80.9623 47.9155V47.6638H82.6105L86.9008 53.0739V48.2174L85.8942 47.9155V47.6638H88.3728V47.9155L87.5047 48.2174V54.7598H87.1021L82.4343 48.9471V54.1056L83.4912 54.4578V54.7095H80.9623ZM93.6317 54.8353C92.9271 54.8353 92.298 54.6885 91.7444 54.3949C91.1992 54.093 90.7673 53.6862 90.4485 53.1745C90.1382 52.6545 89.983 52.059 89.983 51.388C89.983 50.8344 90.0795 50.3269 90.2724 49.8656C90.4737 49.3959 90.7505 48.9891 91.1028 48.6452C91.4551 48.2929 91.8577 48.0203 92.3106 47.8274C92.7719 47.6345 93.2668 47.538 93.7952 47.538C94.3572 47.538 94.8059 47.5883 95.1414 47.689C95.4769 47.7813 95.7957 47.9029 96.0976 48.0539L96.1605 49.7775H95.9467L95.3679 48.6074C95.0576 48.3978 94.785 48.251 94.5501 48.1671C94.3153 48.0748 94.051 48.0287 93.7575 48.0287C93.1703 48.0287 92.6545 48.1587 92.2099 48.4187C91.7738 48.6704 91.4299 49.0142 91.1783 49.4504C90.935 49.8866 90.8134 50.373 90.8134 50.9099C90.8134 51.6228 90.9476 52.2309 91.216 52.7342C91.4844 53.2374 91.8451 53.6233 92.298 53.8917C92.7593 54.1601 93.2668 54.2943 93.8204 54.2943C94.0804 54.2943 94.332 54.2775 94.5753 54.244C94.8185 54.202 95.0743 54.1265 95.3427 54.0175V52.1806L94.3362 51.8409V51.6018H96.9783V51.8409L96.1857 52.1932V53.9923C95.8754 54.2523 95.4811 54.4578 95.003 54.6088C94.5249 54.7598 94.0678 54.8353 93.6317 54.8353ZM101.568 54.7095V54.4578L102.574 54.0804V47.0348L101.568 46.6573V46.4057H104.524C105.514 46.4057 106.307 46.586 106.902 46.9467C107.506 47.3074 107.808 47.8777 107.808 48.6578C107.808 49.1191 107.657 49.5301 107.355 49.8908C107.053 50.243 106.634 50.524 106.097 50.7337C105.569 50.9434 104.965 51.0483 104.285 51.0483H103.556V54.0804L104.688 54.4578V54.7095H101.568ZM103.556 46.997V50.4569H104.575C105.237 50.4569 105.766 50.3018 106.16 49.9914C106.554 49.6727 106.751 49.2617 106.751 48.7584C106.751 48.1377 106.55 47.689 106.147 47.4122C105.753 47.1354 105.2 46.997 104.487 46.997H103.556ZM108.205 54.7095V54.4578L108.822 54.2188L111.615 47.6009H112.03L114.798 54.181L115.503 54.4578V54.7095H112.924V54.4578L113.829 54.1936L112.986 52.168H110.319L109.489 54.2062L110.432 54.4578V54.7095H108.205ZM110.533 51.6396H112.773L111.64 48.9094L110.533 51.6396ZM116.742 54.7095V54.4578L117.635 54.1433V48.23L116.742 47.9155V47.6638H119.283C120.063 47.6638 120.676 47.8232 121.12 48.1419C121.565 48.4607 121.787 48.8884 121.787 49.4252C121.787 49.853 121.653 50.2137 121.384 50.5073C121.124 50.8008 120.768 51.0273 120.315 51.1867L122.315 54.181L123.095 54.4578V54.7095H121.523L119.422 51.4383H118.528V54.1307L119.359 54.4578V54.7095H116.742ZM119.22 48.2048H118.528V50.8973H119.283C119.753 50.8973 120.126 50.7757 120.403 50.5324C120.68 50.2892 120.818 49.9662 120.818 49.5636C120.818 49.1275 120.68 48.792 120.403 48.5571C120.126 48.3223 119.732 48.2048 119.22 48.2048ZM125.203 54.7095V54.4578L126.311 54.1433V48.2048H124.323L123.769 49.702H123.543V47.6638H130.01V49.702H129.783L129.217 48.2048H127.216V54.1433L128.336 54.4578V54.7095H125.203ZM131.35 54.7095V54.4578L132.23 54.1433V48.2174L131.35 47.9155V47.6638H132.998L137.288 53.0739V48.2174L136.282 47.9155V47.6638H138.76V47.9155L137.892 48.2174V54.7598H137.489L132.822 48.9471V54.1056L133.879 54.4578V54.7095H131.35ZM140.283 54.7095V54.4578L141.164 54.1433V48.23L140.283 47.9155V47.6638H145.479V49.4252H145.253L144.724 48.2048H142.07V50.7966H144.007L144.334 49.9285H144.548V52.1806H144.334L144.007 51.325H142.07V54.1685H145.014L145.567 52.7845H145.781V54.7095H140.283ZM147.483 54.7095V54.4578L148.376 54.1433V48.23L147.483 47.9155V47.6638H150.024C150.804 47.6638 151.417 47.8232 151.861 48.1419C152.306 48.4607 152.528 48.8884 152.528 49.4252C152.528 49.853 152.394 50.2137 152.126 50.5073C151.865 50.8008 151.509 51.0273 151.056 51.1867L153.057 54.181L153.837 54.4578V54.7095H152.264L150.163 51.4383H149.27V54.1307L150.1 54.4578V54.7095H147.483ZM149.961 48.2048H149.27V50.8973H150.024C150.494 50.8973 150.867 50.7757 151.144 50.5324C151.421 50.2892 151.559 49.9662 151.559 49.5636C151.559 49.1275 151.421 48.792 151.144 48.5571C150.867 48.3223 150.473 48.2048 149.961 48.2048Z" fill="#0A2540"/>
</svg>
