<svg width="164" height="34" viewBox="0 0 164 34" fill="none" xmlns="http://www.w3.org/2000/svg">
<path d="M34.918 17C34.918 14.5312 32.0029 12.9581 28.5655 13.2082C27.8977 13.2556 27.1317 13.3664 26.3373 13.512C27.0019 13.0499 27.6191 12.5878 28.1287 12.151C30.7368 9.90058 31.6832 6.72277 29.9392 4.97877C28.1952 3.23478 25.0174 4.18116 22.767 6.78924C22.3302 7.29566 21.8649 7.91603 21.406 8.58071C21.5516 7.78626 21.6592 7.02029 21.7098 6.35245C21.9599 2.91826 20.3836 0 17.918 0C15.4523 0 13.8761 2.9151 14.1261 6.35245C14.1736 7.02029 14.2844 7.78626 14.43 8.58071C13.9679 7.91603 13.5058 7.29883 13.069 6.78924C10.8185 4.18432 7.64074 3.23478 5.89674 4.97877C4.15275 6.72277 5.09913 9.90058 7.70721 12.151C8.21363 12.5878 8.834 13.0531 9.49868 13.512C8.70423 13.3664 7.93826 13.2588 7.27042 13.2082C3.83623 12.9581 0.917969 14.5344 0.917969 17C0.917969 19.4656 3.83307 21.0419 7.27042 20.7918C7.93826 20.7444 8.70423 20.6336 9.49868 20.488C8.834 20.9501 8.2168 21.4122 7.70721 21.849C5.10229 24.0994 4.15275 27.2772 5.89674 29.0212C7.64074 30.7652 10.8185 29.8188 13.069 27.2108C13.5058 26.7043 13.971 26.084 14.43 25.4193C14.2844 26.2137 14.1768 26.9797 14.1261 27.6476C13.8761 31.0817 15.4523 34 17.918 34C20.3836 34 21.9599 31.0849 21.7098 27.6476C21.6623 26.9797 21.5516 26.2137 21.406 25.4193C21.8681 26.084 22.3302 26.7012 22.767 27.2108C25.0174 29.8157 28.1952 30.7652 29.9392 29.0212C31.6832 27.2772 30.7368 24.0994 28.1287 21.849C27.6223 21.4122 27.0019 20.9469 26.3373 20.488C27.1317 20.6336 27.8977 20.7412 28.5655 20.7918C31.9997 21.0419 34.918 19.4656 34.918 17Z" fill="#006AF2"/>
<path d="M51.959 8.14746V22.3662H49.2832V8.14746H51.959ZM56.373 8.14746V10.2666H44.918V8.14746H56.373Z" fill="#0A2540"/>
<path d="M59.8594 13.958V22.3662H57.2812V11.7998H59.7227L59.8594 13.958ZM63.0723 11.7314L63.0332 14.1338C62.89 14.1077 62.7272 14.0882 62.5449 14.0752C62.3691 14.0622 62.2031 14.0557 62.0469 14.0557C61.6497 14.0557 61.3014 14.111 61.002 14.2217C60.7025 14.3258 60.4518 14.4788 60.25 14.6807C60.0547 14.8825 59.9049 15.1299 59.8008 15.4229C59.6966 15.7093 59.638 16.0348 59.625 16.3994L59.0684 16.3311C59.0684 15.6605 59.1367 15.0387 59.2734 14.4658C59.4102 13.8929 59.6087 13.3916 59.8691 12.9619C60.1296 12.5322 60.4551 12.2002 60.8457 11.9658C61.2428 11.7249 61.6986 11.6045 62.2129 11.6045C62.3561 11.6045 62.5091 11.6175 62.6719 11.6436C62.8411 11.6631 62.9746 11.6924 63.0723 11.7314Z" fill="#0A2540"/>
<path d="M70.7773 19.8564V11.7998H73.375V22.3662H70.9336L70.7773 19.8564ZM71.1094 17.6689L71.9102 17.6494C71.9102 18.359 71.832 19.0133 71.6758 19.6123C71.5195 20.2113 71.2754 20.7321 70.9434 21.1748C70.6178 21.611 70.2044 21.9528 69.7031 22.2002C69.2018 22.4411 68.6094 22.5615 67.9258 22.5615C67.4049 22.5615 66.9297 22.4899 66.5 22.3467C66.0703 22.1969 65.6992 21.9658 65.3867 21.6533C65.0807 21.3343 64.8431 20.9274 64.6738 20.4326C64.5046 19.9313 64.4199 19.3291 64.4199 18.626V11.7998H66.998V18.6455C66.998 18.9971 67.0371 19.29 67.1152 19.5244C67.1999 19.7588 67.3138 19.9508 67.457 20.1006C67.6068 20.2438 67.7793 20.348 67.9746 20.4131C68.1764 20.4717 68.3913 20.501 68.6191 20.501C69.2441 20.501 69.7357 20.3773 70.0938 20.1299C70.4583 19.876 70.7188 19.5374 70.875 19.1143C71.0312 18.6846 71.1094 18.2028 71.1094 17.6689Z" fill="#0A2540"/>
<path d="M80.4062 22.5615C79.6055 22.5615 78.8861 22.4313 78.248 22.1709C77.61 21.9105 77.0664 21.5492 76.6172 21.0869C76.1745 20.6182 75.8327 20.0745 75.5918 19.4561C75.3574 18.8311 75.2402 18.1605 75.2402 17.4443V17.0537C75.2402 16.2399 75.3574 15.501 75.5918 14.8369C75.8262 14.1663 76.1582 13.5902 76.5879 13.1084C77.0176 12.6266 77.5319 12.2555 78.1309 11.9951C78.7298 11.7347 79.3906 11.6045 80.1133 11.6045C80.862 11.6045 81.5228 11.7314 82.0957 11.9854C82.6686 12.2327 83.1471 12.5843 83.5312 13.04C83.9154 13.4958 84.2051 14.0426 84.4004 14.6807C84.5957 15.3122 84.6934 16.012 84.6934 16.7803V17.8643H76.4121V16.0869H82.1543V15.8916C82.1413 15.4814 82.0632 15.1071 81.9199 14.7686C81.7767 14.4235 81.5553 14.1501 81.2559 13.9482C80.9564 13.7399 80.569 13.6357 80.0938 13.6357C79.7096 13.6357 79.3743 13.7204 79.0879 13.8896C78.8079 14.0524 78.5736 14.2868 78.3848 14.5928C78.2025 14.8923 78.0658 15.2503 77.9746 15.667C77.8835 16.0837 77.8379 16.5459 77.8379 17.0537V17.4443C77.8379 17.887 77.8965 18.2972 78.0137 18.6748C78.1374 19.0524 78.3164 19.3812 78.5508 19.6611C78.7917 19.9346 79.0781 20.1494 79.4102 20.3057C79.7487 20.4554 80.1328 20.5303 80.5625 20.5303C81.1029 20.5303 81.5911 20.4261 82.0273 20.2178C82.4701 20.0029 82.8542 19.6872 83.1797 19.2705L84.4785 20.6182C84.2572 20.9437 83.9577 21.2562 83.5801 21.5557C83.209 21.8551 82.7598 22.0993 82.2324 22.2881C81.7051 22.4704 81.0964 22.5615 80.4062 22.5615Z" fill="#0A2540"/>
<path d="M89.3809 21.1943L92.2129 11.7998H94.9766L90.7383 23.9678C90.6406 24.2282 90.5137 24.5114 90.3574 24.8174C90.2077 25.1234 90.0059 25.4131 89.752 25.6865C89.498 25.9665 89.179 26.1943 88.7949 26.3701C88.4173 26.5459 87.9583 26.6338 87.418 26.6338C87.1836 26.6338 86.9753 26.6175 86.793 26.585C86.6107 26.5524 86.4186 26.5101 86.2168 26.458V24.5244C86.2819 24.5309 86.3568 24.5342 86.4414 24.5342C86.5326 24.5407 86.6107 24.5439 86.6758 24.5439C87.0534 24.5439 87.3659 24.4984 87.6133 24.4072C87.8607 24.3226 88.0592 24.1826 88.209 23.9873C88.3652 23.7985 88.4954 23.5511 88.5996 23.2451L89.3809 21.1943ZM87.9844 11.7998L90.377 19.583L90.7969 22.3076L89.0195 22.6299L85.2012 11.7998H87.9844Z" fill="#0A2540"/>
<path d="M95.6113 17.1904V16.9854C95.6113 16.2106 95.722 15.4977 95.9434 14.8467C96.1647 14.1891 96.487 13.6195 96.9102 13.1377C97.3333 12.6559 97.8509 12.2816 98.4629 12.0146C99.0749 11.7412 99.7715 11.6045 100.553 11.6045C101.347 11.6045 102.05 11.7412 102.662 12.0146C103.281 12.2816 103.801 12.6559 104.225 13.1377C104.648 13.6195 104.97 14.1891 105.191 14.8467C105.413 15.4977 105.523 16.2106 105.523 16.9854V17.1904C105.523 17.9587 105.413 18.6715 105.191 19.3291C104.97 19.9801 104.648 20.5498 104.225 21.0381C103.801 21.5199 103.284 21.8942 102.672 22.1611C102.06 22.4281 101.36 22.5615 100.572 22.5615C99.791 22.5615 99.0911 22.4281 98.4727 22.1611C97.8542 21.8942 97.3333 21.5199 96.9102 21.0381C96.487 20.5498 96.1647 19.9801 95.9434 19.3291C95.722 18.6715 95.6113 17.9587 95.6113 17.1904ZM98.1895 16.9854V17.1904C98.1895 17.6527 98.235 18.0856 98.3262 18.4893C98.4173 18.8929 98.5573 19.2477 98.7461 19.5537C98.9349 19.8597 99.179 20.1006 99.4785 20.2764C99.7845 20.4456 100.149 20.5303 100.572 20.5303C100.989 20.5303 101.347 20.4456 101.646 20.2764C101.946 20.1006 102.19 19.8597 102.379 19.5537C102.574 19.2477 102.717 18.8929 102.809 18.4893C102.9 18.0856 102.945 17.6527 102.945 17.1904V16.9854C102.945 16.5296 102.9 16.1032 102.809 15.7061C102.717 15.3024 102.574 14.9476 102.379 14.6416C102.19 14.3291 101.943 14.085 101.637 13.9092C101.337 13.7269 100.976 13.6357 100.553 13.6357C100.136 13.6357 99.778 13.7269 99.4785 13.9092C99.179 14.085 98.9349 14.3291 98.7461 14.6416C98.5573 14.9476 98.4173 15.3024 98.3262 15.7061C98.235 16.1032 98.1895 16.5296 98.1895 16.9854Z" fill="#0A2540"/>
<path d="M113.688 19.8564V11.7998H116.285V22.3662H113.844L113.688 19.8564ZM114.02 17.6689L114.82 17.6494C114.82 18.359 114.742 19.0133 114.586 19.6123C114.43 20.2113 114.186 20.7321 113.854 21.1748C113.528 21.611 113.115 21.9528 112.613 22.2002C112.112 22.4411 111.52 22.5615 110.836 22.5615C110.315 22.5615 109.84 22.4899 109.41 22.3467C108.98 22.1969 108.609 21.9658 108.297 21.6533C107.991 21.3343 107.753 20.9274 107.584 20.4326C107.415 19.9313 107.33 19.3291 107.33 18.626V11.7998H109.908V18.6455C109.908 18.9971 109.947 19.29 110.025 19.5244C110.11 19.7588 110.224 19.9508 110.367 20.1006C110.517 20.2438 110.689 20.348 110.885 20.4131C111.087 20.4717 111.301 20.501 111.529 20.501C112.154 20.501 112.646 20.3773 113.004 20.1299C113.368 19.876 113.629 19.5374 113.785 19.1143C113.941 18.6846 114.02 18.2028 114.02 17.6689Z" fill="#0A2540"/>
<path d="M118.678 21.1064C118.678 20.7158 118.811 20.387 119.078 20.1201C119.345 19.8532 119.706 19.7197 120.162 19.7197C120.618 19.7197 120.979 19.8532 121.246 20.1201C121.513 20.387 121.646 20.7158 121.646 21.1064C121.646 21.4906 121.513 21.8161 121.246 22.083C120.979 22.3434 120.618 22.4736 120.162 22.4736C119.706 22.4736 119.345 22.3434 119.078 22.083C118.811 21.8161 118.678 21.4906 118.678 21.1064Z" fill="#0A2540"/>
<path d="M132.77 17.6885H135.455C135.383 18.639 135.12 19.4821 134.664 20.2178C134.208 20.9469 133.574 21.5199 132.76 21.9365C131.946 22.3532 130.96 22.5615 129.801 22.5615C128.909 22.5615 128.105 22.4053 127.389 22.0928C126.679 21.7738 126.07 21.3213 125.562 20.7354C125.061 20.1429 124.677 19.4333 124.41 18.6064C124.143 17.7731 124.01 16.8389 124.01 15.8037V14.7197C124.01 13.6846 124.146 12.7503 124.42 11.917C124.693 11.0837 125.084 10.374 125.592 9.78809C126.106 9.19564 126.721 8.73991 127.438 8.4209C128.16 8.10189 128.967 7.94238 129.859 7.94238C131.018 7.94238 131.998 8.15723 132.799 8.58691C133.6 9.01009 134.221 9.59277 134.664 10.335C135.107 11.0771 135.374 11.93 135.465 12.8936H132.779C132.727 12.2946 132.597 11.7868 132.389 11.3701C132.187 10.9535 131.881 10.6377 131.471 10.4229C131.067 10.2015 130.53 10.0908 129.859 10.0908C129.339 10.0908 128.88 10.1885 128.482 10.3838C128.092 10.5791 127.766 10.8721 127.506 11.2627C127.245 11.6468 127.05 12.1286 126.92 12.708C126.79 13.2809 126.725 13.945 126.725 14.7002V15.8037C126.725 16.5264 126.783 17.1742 126.9 17.7471C127.018 18.32 127.2 18.805 127.447 19.2021C127.695 19.5993 128.014 19.902 128.404 20.1104C128.795 20.3187 129.26 20.4229 129.801 20.4229C130.458 20.4229 130.992 20.3187 131.402 20.1104C131.819 19.902 132.135 19.596 132.35 19.1924C132.571 18.7887 132.711 18.2874 132.77 17.6885Z" fill="#0A2540"/>
<path d="M140.074 7.36621V22.3662H137.486V7.36621H140.074Z" fill="#0A2540"/>
<path d="M148.824 19.8564V11.7998H151.422V22.3662H148.98L148.824 19.8564ZM149.156 17.6689L149.957 17.6494C149.957 18.359 149.879 19.0133 149.723 19.6123C149.566 20.2113 149.322 20.7321 148.99 21.1748C148.665 21.611 148.251 21.9528 147.75 22.2002C147.249 22.4411 146.656 22.5615 145.973 22.5615C145.452 22.5615 144.977 22.4899 144.547 22.3467C144.117 22.1969 143.746 21.9658 143.434 21.6533C143.128 21.3343 142.89 20.9274 142.721 20.4326C142.551 19.9313 142.467 19.3291 142.467 18.626V11.7998H145.045V18.6455C145.045 18.9971 145.084 19.29 145.162 19.5244C145.247 19.7588 145.361 19.9508 145.504 20.1006C145.654 20.2438 145.826 20.348 146.021 20.4131C146.223 20.4717 146.438 20.501 146.666 20.501C147.291 20.501 147.783 20.3773 148.141 20.1299C148.505 19.876 148.766 19.5374 148.922 19.1143C149.078 18.6846 149.156 18.2028 149.156 17.6689Z" fill="#0A2540"/>
<path d="M153.697 7.36621H156.285V20.0322L156.031 22.3662H153.697V7.36621ZM163.082 16.9756V17.1807C163.082 17.9684 162.994 18.6911 162.818 19.3486C162.649 20.0062 162.392 20.5758 162.047 21.0576C161.702 21.5329 161.272 21.904 160.758 22.1709C160.25 22.4313 159.654 22.5615 158.971 22.5615C158.32 22.5615 157.753 22.4346 157.271 22.1807C156.796 21.9268 156.396 21.5687 156.07 21.1064C155.745 20.6377 155.484 20.0876 155.289 19.4561C155.094 18.818 154.947 18.1214 154.85 17.3662V16.8096C154.947 16.0479 155.094 15.3512 155.289 14.7197C155.484 14.0882 155.745 13.5381 156.07 13.0693C156.396 12.6006 156.796 12.2393 157.271 11.9854C157.747 11.7314 158.307 11.6045 158.951 11.6045C159.641 11.6045 160.243 11.738 160.758 12.0049C161.279 12.2653 161.708 12.6364 162.047 13.1182C162.392 13.5934 162.649 14.1598 162.818 14.8174C162.994 15.4684 163.082 16.1878 163.082 16.9756ZM160.494 17.1807V16.9756C160.494 16.5264 160.458 16.1032 160.387 15.7061C160.315 15.3024 160.198 14.9476 160.035 14.6416C159.872 14.3356 159.651 14.0947 159.371 13.9189C159.091 13.7432 158.74 13.6553 158.316 13.6553C157.913 13.6553 157.568 13.7236 157.281 13.8604C157.001 13.9971 156.767 14.1859 156.578 14.4268C156.396 14.6676 156.253 14.9508 156.148 15.2764C156.051 15.6019 155.986 15.9535 155.953 16.3311V17.8545C155.999 18.3558 156.106 18.8083 156.275 19.2119C156.445 19.609 156.695 19.9248 157.027 20.1592C157.366 20.3936 157.802 20.5107 158.336 20.5107C158.753 20.5107 159.101 20.4294 159.381 20.2666C159.661 20.0973 159.882 19.863 160.045 19.5635C160.208 19.2575 160.322 18.9027 160.387 18.499C160.458 18.0954 160.494 17.6559 160.494 17.1807Z" fill="#0A2540"/>
</svg>
