<svg width="32" height="32" viewBox="0 0 32 32" fill="none" xmlns="http://www.w3.org/2000/svg">
<path d="M20.0663 6.66683C21.3686 6.92092 22.5654 7.55784 23.5037 8.49608C24.4419 9.43432 25.0788 10.6312 25.3329 11.9335M20.0663 1.3335C22.772 1.63408 25.295 2.84573 27.2212 4.76951C29.1474 6.69328 30.3623 9.21484 30.6663 11.9202M29.3329 22.5602V26.5602C29.3344 26.9315 29.2584 27.2991 29.1096 27.6393C28.9608 27.9795 28.7427 28.2849 28.469 28.536C28.1954 28.787 27.8724 28.9781 27.5206 29.0971C27.1688 29.2161 26.7961 29.2603 26.4263 29.2268C22.3234 28.781 18.3823 27.379 14.9196 25.1335C11.698 23.0864 8.9667 20.3551 6.91959 17.1335C4.66622 13.6551 3.26391 9.69482 2.82625 5.5735C2.79293 5.20479 2.83675 4.83318 2.95492 4.48233C3.07309 4.13148 3.26301 3.80908 3.51261 3.53566C3.7622 3.26223 4.06599 3.04378 4.40464 2.89419C4.74329 2.74461 5.10937 2.66718 5.47959 2.66683H9.47959C10.1267 2.66046 10.754 2.8896 11.2446 3.31154C11.7352 3.73348 12.0557 4.31943 12.1463 4.96016C12.3151 6.24025 12.6282 7.49713 13.0796 8.70683C13.259 9.18406 13.2978 9.70272 13.1915 10.2013C13.0851 10.7 12.8381 11.1576 12.4796 11.5202L10.7863 13.2135C12.6843 16.5516 15.4482 19.3154 18.7863 21.2135L20.4796 19.5202C20.8421 19.1617 21.2998 18.9146 21.7984 18.8083C22.297 18.7019 22.8157 18.7408 23.2929 18.9202C24.5026 19.3716 25.7595 19.6847 27.0396 19.8535C27.6873 19.9449 28.2788 20.2711 28.7016 20.7702C29.1245 21.2692 29.3491 21.9063 29.3329 22.5602Z" stroke="#0A2540" stroke-width="2" stroke-linecap="round" stroke-linejoin="round"/>
</svg>
