<svg width="12" height="13" viewBox="0 0 12 13" fill="none" xmlns="http://www.w3.org/2000/svg">
<path d="M12 6.5C12 6.65112 11.9414 6.8024 11.8242 6.91777L5.82422 12.8268C5.58977 13.0577 5.21012 13.0577 4.97582 12.8268C4.74152 12.5959 4.74137 12.222 4.97582 11.9913L10.5516 6.5L4.97582 1.00871C4.74137 0.777817 4.74137 0.403921 4.97582 0.173172C5.21027 -0.0575768 5.58992 -0.0577246 5.82422 0.173172L11.8242 6.08223C11.9414 6.1976 12 6.34888 12 6.5ZM7.02422 6.08223L1.02423 0.173172C0.789785 -0.0577246 0.410136 -0.0577246 0.175837 0.173172C-0.0584622 0.404068 -0.0586122 0.777965 0.175837 1.00871L5.75162 6.5L0.175837 11.9913C-0.0586123 12.2222 -0.0586123 12.5961 0.175837 12.8268C0.410286 13.0576 0.789935 13.0577 1.02423 12.8268L7.02422 6.91777C7.14137 6.8024 7.20001 6.65112 7.20001 6.5C7.20001 6.34888 7.14137 6.1976 7.02422 6.08223Z" fill="#0A2540"/>
</svg>
