<svg width="218" height="329" viewBox="0 0 218 329" fill="none" xmlns="http://www.w3.org/2000/svg">
<ellipse cx="109" cy="325" rx="109" ry="4" fill="#F0F2F4"/>
<path opacity="0.4" d="M11.3408 0L27.3159 324.275H195.047L211.022 0H11.3408Z" fill="#C5F1FC"/>
<path opacity="0.5" d="M27.1562 318.525L27.3163 324.275H195.047L195.207 318.205C171.133 313.491 142.614 306.064 111.342 306.064C80.0701 306.064 51.2928 313.776 27.1562 318.525Z" fill="#C5F1FC"/>
<g style="mix-blend-mode:screen" opacity="0.5">
<path d="M169.182 0L155.91 324.275H177.145L190.417 0H169.182Z" fill="#C5F1FC"/>
</g>
<g style="mix-blend-mode:multiply" opacity="0.4">
<path d="M11.3408 0L27.3159 324.275H69.807L53.832 0H11.3408Z" fill="#C5F1FC"/>
</g>
<path d="M26.1602 177.891L32.081 287.097C32.7464 300.658 43.8776 311.309 57.3846 311.309H164.106C177.613 311.309 188.748 300.658 189.41 287.097L195.331 177.891H26.1602Z" fill="#26DBF0"/>
<g style="mix-blend-mode:screen">
<path d="M143.947 248.561C146.171 246.326 146.171 242.701 143.947 240.466C141.723 238.231 138.117 238.231 135.892 240.466C133.668 242.701 133.668 246.326 135.892 248.561C138.117 250.797 141.723 250.797 143.947 248.561Z" fill="#7FDAEF"/>
</g>
<g style="mix-blend-mode:screen">
<path d="M141.013 245.395C142.344 245.395 143.423 244.311 143.423 242.973C143.423 241.636 142.344 240.551 141.013 240.551C139.682 240.551 138.604 241.636 138.604 242.973C138.604 244.311 139.682 245.395 141.013 245.395Z" fill="#7FDAEF"/>
</g>
<g style="mix-blend-mode:screen">
<path d="M86.4505 228.801C87.0638 226.189 85.4544 223.572 82.8558 222.956C80.2573 222.339 77.6535 223.957 77.0402 226.569C76.4269 229.181 78.0362 231.798 80.6348 232.414C83.2334 233.03 85.8372 231.413 86.4505 228.801Z" fill="#7FDAEF"/>
</g>
<g style="mix-blend-mode:screen">
<path d="M122.521 175.961C123.134 173.349 121.525 170.732 118.926 170.116C116.328 169.5 113.724 171.117 113.111 173.729C112.497 176.341 114.107 178.958 116.705 179.574C119.304 180.191 121.907 178.573 122.521 175.961Z" fill="#7FDAEF"/>
</g>
<g style="mix-blend-mode:screen">
<path d="M84.7219 226.375C84.7219 227.509 83.8047 228.43 82.6769 228.43C81.5491 228.43 80.6318 227.509 80.6318 226.375C80.6318 225.242 81.5491 224.32 82.6769 224.32C83.8047 224.32 84.7219 225.242 84.7219 226.375Z" fill="#7FDAEF"/>
</g>
<g style="mix-blend-mode:screen">
<path d="M120.793 173.535C120.793 174.669 119.876 175.591 118.748 175.591C117.62 175.591 116.703 174.669 116.703 173.535C116.703 172.402 117.62 171.48 118.748 171.48C119.876 171.48 120.793 172.402 120.793 173.535Z" fill="#7FDAEF"/>
</g>
<g style="mix-blend-mode:screen">
<path d="M139.228 282.159C141.039 282.159 142.506 280.684 142.506 278.864C142.506 277.044 141.039 275.569 139.228 275.569C137.418 275.569 135.95 277.044 135.95 278.864C135.95 280.684 137.418 282.159 139.228 282.159Z" fill="#7FDAEF"/>
</g>
<g style="mix-blend-mode:screen">
<path d="M141.247 277.98C141.247 278.751 140.627 279.374 139.86 279.374C139.093 279.374 138.473 278.751 138.473 277.98C138.473 277.209 139.093 276.586 139.86 276.586C140.627 276.586 141.247 277.209 141.247 277.98Z" fill="#7FDAEF"/>
</g>
<path d="M17.4404 7.84814H204.051L195.331 177.891H26.1606L17.4404 7.84814Z" fill="white" fill-opacity="0.2"/>
</svg>
