<svg width="526" height="227" viewBox="0 0 526 227" fill="none" xmlns="http://www.w3.org/2000/svg">
<path d="M197.78 67.23H175.17V75.21H197.78V67.23Z" stroke="#7AA0A2" stroke-width="0.5" stroke-miterlimit="10"/>
<path d="M223.05 79.2H200.44V87.18H223.05V79.2Z" stroke="#7AA0A2" stroke-width="0.5" stroke-miterlimit="10"/>
<path d="M22.86 117.78H0.25V125.76H22.86V117.78Z" stroke="#7AA0A2" stroke-width="0.5" stroke-miterlimit="10"/>
<path d="M379.34 107.8H356.73V115.78H379.34V107.8Z" stroke="#7AA0A2" stroke-width="0.5" stroke-miterlimit="10"/>
<path d="M525.66 51.9299H503.05V59.9099H525.66V51.9299Z" stroke="#7AA0A2" stroke-width="0.5" stroke-miterlimit="10"/>
<path d="M38.6701 190.71L34.4901 213.1C34.1401 213.8 33.4201 214.25 32.6401 214.25C31.2201 214.25 30.2301 212.86 30.6901 211.52L31.2201 190.41L38.6801 190.71H38.6701Z" fill="#FFBB57"/>
<path d="M85.2394 190.71L81.0594 213.1C80.7094 213.8 79.9894 214.25 79.2094 214.25C77.7894 214.25 76.7994 212.86 77.2594 211.52L77.7894 190.41L85.2494 190.71H85.2394Z" fill="#FFBB57"/>
<path d="M176.21 190.71L180.39 213.1C180.74 213.8 181.46 214.25 182.24 214.25C183.66 214.25 184.65 212.86 184.19 211.52L183.66 190.41L176.2 190.71H176.21Z" fill="#FFBB57"/>
<path d="M125.5 190.71L129.68 213.1C130.03 213.8 130.75 214.25 131.53 214.25C132.95 214.25 133.94 212.86 133.48 211.52L132.95 190.41L125.49 190.71H125.5Z" fill="#FFBB57"/>
<g style="mix-blend-mode:multiply" opacity="0.5">
<path d="M30.9395 200.79L31.1995 190.41L38.6695 190.71L36.7795 200.79H30.9395Z" fill="#FFBB57"/>
</g>
<g style="mix-blend-mode:multiply" opacity="0.5">
<path d="M77.5195 200.79L77.7795 190.41L85.2395 190.71L83.3595 200.79H77.5195Z" fill="#FFBB57"/>
</g>
<g style="mix-blend-mode:multiply" opacity="0.5">
<path d="M178.099 200.79L176.209 190.71L183.679 190.41L183.939 200.79H178.099Z" fill="#FFBB57"/>
</g>
<g style="mix-blend-mode:multiply" opacity="0.5">
<path d="M127.389 200.79L125.499 190.71L132.969 190.41L133.229 200.79H127.389Z" fill="#FFBB57"/>
</g>
<path d="M117.26 130.64H146.03C155.94 130.64 163.99 138.69 163.99 148.6V174.46H117.26V130.64Z" fill="#7EABD8"/>
<path d="M129.04 190.89H35.7098C27.4198 190.89 20.6898 184.17 20.6798 175.88L20.5498 87.3501C20.5498 78.5001 28.1698 71.3301 37.5598 71.3301H115.81C123.12 71.3301 129.04 76.9101 129.04 83.7901V190.89Z" fill="#BFD2DB" stroke="#BFD2DB" stroke-width="0.44" stroke-miterlimit="10"/>
<path d="M190.12 191.18H142.21V130.64H176.6C196.88 130.68 195.84 142.54 195.84 157.21V185.46C195.84 188.62 193.28 191.17 190.13 191.17L190.12 191.18Z" fill="#86B3A7"/>
<path d="M134.979 130.64H163.749C173.659 130.64 181.71 138.69 181.71 148.6V174.46H134.979V130.64Z" fill="#BFD2DB" stroke="#BFD2DB" stroke-width="0.44" stroke-miterlimit="10"/>
<path d="M146.76 190.89H38.4195L38.2695 87.3501C38.2695 78.5001 45.8895 71.3301 55.2795 71.3301H133.53C140.84 71.3301 146.76 76.9101 146.76 83.7901V190.89Z" fill="#FFF9F0"/>
<g style="mix-blend-mode:multiply">
<path d="M56.4395 153.43L102.909 174.46H146.759V129.52L56.4395 153.43Z" fill="#F5F5F5" stroke="#F5F5F5" stroke-width="0.15" stroke-miterlimit="10"/>
</g>
<path d="M20.6494 174.81H181.859V185.13C181.859 188.4 179.199 191.06 175.929 191.06H35.8894C27.4794 191.06 20.6494 184.23 20.6494 175.82V174.82V174.81Z" fill="#86B3A7"/>
<path d="M181.739 153.56H20.6494V175.02H181.739V153.56Z" fill="white"/>
<path d="M42.8994 131.07H68.6494C80.2594 131.07 89.6794 140.49 89.6794 152.1V191.11H42.8994V131.06V131.07Z" fill="#86B3A7"/>
<path d="M20.6494 131.07H46.3594C57.9594 131.07 67.3794 140.49 67.3794 152.09V191.12H35.8894C27.4794 191.12 20.6494 184.29 20.6494 175.88V131.07Z" fill="#BFD2DB" stroke="#BFD2DB" stroke-width="0.44" stroke-miterlimit="10"/>
<path d="M76.4805 65.7302L79.3405 71.2102L76.4805 71.6802L80.3205 77.6302L71.7205 71.4502L75.5605 70.7302L70.7705 65.7302H76.4805Z" fill="#FFBB57"/>
<path d="M97.3701 66.4501C97.2201 64.2001 95.3501 62.4201 93.0701 62.4201C92.5001 62.4201 91.9501 62.5301 91.4501 62.7401C90.5101 60.6701 88.4301 59.2401 86.0201 59.2401C85.1701 59.2401 84.3701 59.4201 83.6401 59.7301C82.5101 56.0401 79.0801 53.3601 75.0201 53.3601C70.9601 53.3601 67.6401 55.9601 66.4601 59.5601C65.8601 59.3601 65.2201 59.2401 64.5501 59.2401C61.2501 59.2401 58.5801 61.9101 58.5801 65.2101C58.5801 65.6401 58.6301 66.0501 58.7101 66.4501H97.3901H97.3701Z" fill="#BFD2DB" stroke="#BFD2DB" stroke-width="0.36" stroke-miterlimit="10"/>
<path d="M163.53 121.58C163.82 120.79 159.72 121.01 160.7 120.6C161.67 120.19 166.35 119.64 166.26 118.83C166.18 118.15 160.94 119.38 160.69 118.84C160.44 118.3 166.61 117.65 166.71 117.07C166.99 115.45 160.22 117.44 159.92 116.48C159.85 116.63 165.92 115.38 165.36 114.34C165.1 113.86 160.51 114.67 156.16 115.55C155.85 115.61 155.64 115.25 155.85 115.01C157.1 113.59 158.45 112.03 157.22 111.95C149.67 115.41 148.36 117.24 148.36 117.24C148.36 117.24 148.36 117.26 148.36 117.28L118.83 123.48C117.9 123.66 116.22 115.36 115.95 114.41C111.85 99.6601 114.17 93.7601 103.7 91.8901C102.53 91.6801 104.3 103.88 105.24 104.1C99.8802 118.35 109.08 135.6 109.08 135.6C119.12 139.53 150.76 123.83 150.76 123.83V123.79C152.89 123.92 163.27 122.28 163.54 121.57L163.53 121.58Z" fill="#FF976A"/>
<path d="M142.811 116.79L125.611 120.1C124.681 120.28 123.001 111.98 122.731 111.03C118.631 96.2801 119.791 87.3001 109.321 85.4301C108.151 85.2201 111.081 100.5 112.021 100.72C106.661 114.97 115.861 132.22 115.861 132.22C122.281 134.73 134.841 133.22 145.001 128.92C144.501 125.87 143.281 119.84 142.801 116.79H142.811Z" fill="#BE85FF"/>
<path d="M155.7 190.37C157.81 201.03 155.13 209.93 156.41 212.45C157.7 214.97 175.5 212.67 174.27 212.28C170.94 211.22 166.56 206.46 166.56 206.46C166.56 206.46 166.43 199.64 166.56 191.56L155.7 190.38V190.37Z" fill="#F59252"/>
<path d="M166.94 207.15C171.56 207.54 177.19 211.23 177.19 211.23C177.79 211.6 178.29 213.15 177.49 213.23L161.48 215.02C161.09 215.06 155.04 215.61 155.12 215.26C155.68 212.93 155.67 211.24 155.84 209.19C155.86 209.01 164.14 211.75 166.56 211.92C166.24 209.06 166.75 207.15 166.93 207.16L166.94 207.15Z" fill="#BE85FF"/>
<path d="M173.59 200.64L154.53 206.17L146.6 152.41C146.6 152.41 109.86 159.21 106.95 150.37C104.03 141.53 104.64 127.13 104.64 127.13L121.03 125.28L122.76 129.93C122.76 129.93 156.4 125.49 159.38 131.12C162.36 136.75 163.41 161.38 173.59 200.63V200.64Z" fill="#0F182E"/>
<path d="M112.079 123.97C112.079 124.7 104.289 136.87 113.049 139.06C121.809 141.25 148.589 137.36 150.289 142.47C151.989 147.58 160.989 194.82 160.989 194.82" stroke="white" stroke-width="0.25" stroke-miterlimit="10"/>
<path d="M106.019 123.86C106.019 123.86 134.489 131.74 144.849 138.94C155.199 146.14 136.589 207.91 136.589 207.91C136.589 207.91 135.839 212.79 141.129 215.15C142.309 215.68 130.549 213.06 127.839 212.25C125.529 211.56 124.519 212.3 126.439 204.95C129.159 194.52 131.349 147.98 131.809 146.86C132.259 145.74 94.7095 154.02 95.1295 143.73C95.5495 133.44 106.029 123.86 106.029 123.86H106.019Z" fill="#F59252"/>
<path d="M97.2199 119.78C97.2199 119.78 88.3599 136.91 91.1499 145.88C95.3299 159.35 130.75 154.86 130.75 154.86L124.45 202.4L142.35 205.73C142.35 205.73 156.86 145 151.28 136.63C146.87 130.02 128.4 129.81 126.06 129.08C122.71 128.03 122.32 119.11 122.32 119.11L97.2299 119.78H97.2199Z" fill="#0F182E"/>
<path d="M106.24 120.57C106 121.3 96.9903 138.83 106.97 141.5C116.95 144.18 140.32 140.28 141.78 145.39C143.24 150.5 132.53 196.99 132.53 196.99" stroke="white" stroke-width="0.25" stroke-miterlimit="10"/>
<path d="M136.77 208.09C144.04 210.82 145.27 214.74 145.27 214.74C145.79 215.22 145.99 216.83 145.19 216.77C145.19 216.77 122.63 214.88 122.84 214.59C122.85 214.57 125.51 207.88 125.51 207.73C125.54 207.68 132.35 212.63 135.69 212.82C134.74 215.68 136.58 208.02 136.78 208.1L136.77 208.09Z" fill="#BE85FF"/>
<path d="M80.7903 84.1001C81.8203 78.5601 89.2103 73.4201 86.5103 69.9501C83.8103 66.4801 91.0503 62.6401 91.5803 58.3901C92.1103 54.1401 95.6103 53.9201 95.6103 53.9201C99.5003 52.8001 108.71 52.4101 111.28 55.7901C112.22 57.0301 112.63 62.5301 111.96 63.9101C111.96 63.9101 111.28 72.8801 113.5 74.7601C115.72 76.6401 117.48 82.5501 117.01 83.7301C116.77 84.3401 102.88 82.7701 97.1403 83.4901L80.7803 84.1001H80.7903Z" fill="#0F182E"/>
<path d="M98.1206 66.6502C98.0606 66.8502 96.6306 65.7502 96.4506 65.6702C95.6906 65.3402 94.3206 65.2402 93.9106 67.4402C93.5206 69.5602 94.1506 70.7402 96.7606 70.5002C97.4306 72.7002 98.8006 73.3602 98.9406 73.7102C99.3506 74.8102 97.6006 84.0702 97.7006 86.6102C97.8306 89.8702 97.7906 90.7402 97.7906 90.7402C97.7906 90.7402 123.721 111.93 109.051 87.2402C109.051 87.2402 106.841 76.5402 107.591 76.3102C111.761 76.0102 113.381 70.4102 112.181 62.7702C108.421 62.6002 109.951 58.7202 108.551 58.4102C109.221 62.7402 98.8106 68.6002 98.1306 66.6502H98.1206Z" fill="#FF976A"/>
<path d="M107.621 76.3202C107.621 76.3202 104.021 76.0202 103.021 75.2202C103.021 75.2202 107.131 79.6602 107.621 76.3202Z" fill="#000307"/>
<path d="M97.09 76.16C98.7966 76.16 100.18 74.7765 100.18 73.07C100.18 71.3634 98.7966 69.98 97.09 69.98C95.3834 69.98 94 71.3634 94 73.07C94 74.7765 95.3834 76.16 97.09 76.16Z" fill="#FFF9F0"/>
<path d="M89.1506 89.7602C89.1506 89.7602 94.7106 86.2502 98.0006 84.9502C99.9406 86.1602 105.611 91.5702 107.691 90.6402C110.011 89.6102 108.421 86.5402 108.661 84.9502C108.661 84.9502 121.051 97.8702 122.131 103.26C123.151 108.36 121.991 126.44 121.991 128.44L90.9006 128.67C90.9006 128.67 86.8906 96.6302 89.1506 89.7702V89.7602Z" fill="#BE85FF"/>
<g style="mix-blend-mode:multiply" opacity="0.39">
<path d="M89.1504 89.7603L125.08 125.74L93.8004 126.03C93.8004 126.03 88.5104 98.3502 89.1504 89.7702V89.7603Z" fill="#BE85FF"/>
</g>
<path d="M96.8499 68.51C95.2099 65.57 94.3799 68.15 94.3799 68.15L96.8499 68.51Z" fill="#CC5E47"/>
<path d="M104.95 68.6201C105.76 68.7201 106.34 69.4601 106.24 70.2701C106.14 71.0801 105.4 71.6601 104.59 71.5601C103.78 71.4601 103.2 70.7201 103.3 69.9101C103.4 69.1001 104.14 68.5201 104.95 68.6201Z" fill="#F57C3E"/>
<path d="M111.95 71.15C111.23 70.91 110.76 70.19 110.85 69.41C110.92 68.81 111.91 68.22 112.43 68C112.43 68 112.39 70 111.94 71.15H111.95Z" fill="#F57C3E"/>
<path d="M108.51 67.5801L108.46 69.7101L109.54 69.5901C109.74 69.5701 109.84 69.3401 109.73 69.1801L108.51 67.5801Z" fill="#CC5E47"/>
<path d="M105.45 65.8102C105.11 66.0602 105.61 64.9602 106.08 64.8102C106.55 64.6702 107.26 64.6802 107.27 65.0802C107.28 65.5302 106.26 65.1902 105.44 65.8002L105.45 65.8102Z" fill="black"/>
<path d="M111.36 65.2801C111.72 65.5101 111.15 64.4401 110.67 64.3201C110.19 64.2001 109.53 64.3001 109.62 64.8701C109.69 65.3101 110.5 64.7201 111.36 65.2801Z" fill="black"/>
<path d="M106.69 67.7401C106.72 68.1101 106.88 68.3901 107.06 68.3801C107.24 68.3701 107.36 68.0601 107.33 67.6901C107.3 67.3201 107.14 67.0401 106.96 67.0501C106.78 67.0601 106.66 67.3701 106.69 67.7401Z" fill="black"/>
<path d="M109.59 67.3202C109.62 67.6702 109.78 67.9402 109.95 67.9302C110.12 67.9202 110.24 67.6202 110.21 67.2702C110.18 66.9202 110.02 66.6502 109.85 66.6602C109.68 66.6702 109.56 66.9702 109.59 67.3202Z" fill="black"/>
<path d="M110.02 70.9202C110.02 70.9202 110 71.8702 109.44 72.0002C108.43 72.2202 107.59 71.1702 107.59 71.1702L110.01 70.9202H110.02Z" fill="#EC6D76"/>
<path d="M107.52 71.1501C107.52 71.1501 109.38 71.8001 110.02 70.9101C109.99 70.8101 109.57 70.4501 109.19 70.5501C108.76 70.6701 107.52 71.1401 107.52 71.1401V71.1501Z" fill="#C9535B"/>
<path d="M128.27 127.32C128.27 127.32 134.09 125.32 133.95 124.69C133.76 123.81 127.91 125.96 127.91 125.96C127.91 125.96 134.25 123.92 134.09 123.32C133.73 121.96 127.55 124.32 127.51 124.09C127.46 123.77 133.27 122.88 133.27 121.46C133.27 120.64 124.32 122.05 124.32 122.05C124.32 122.05 127.64 120.01 126.64 119.23C126.14 118.84 120.6 122.59 120.6 122.59C114.31 122.49 102.38 121.8 98.6699 118.1C97.7399 117.17 95.2299 106.28 95.2499 100.08C96.1199 96.06 96.8099 88.77 96.7399 86.5C96.7399 86.5 91.3299 88.73 89.8499 89.23L89.8699 89.29C88.6799 89.75 89.0999 89.62 88.3099 90.07C83.4799 92.81 84.7599 106.62 84.5299 111.79C84.3099 116.55 83.1499 129.09 95.2599 129.29C104.06 129.44 119.99 128.98 128.15 128.87C131.69 127.97 132.56 126.87 132.56 126.87C132.11 125.78 128.29 127.32 128.29 127.32H128.27Z" fill="#FF976A"/>
<path d="M114 122C108.21 121.58 101.47 120.91 98.6603 118.1C97.7303 117.17 95.2203 106.28 95.2403 100.08C96.1103 96.0601 97.5703 87.3501 97.5103 85.0701C97.5103 85.0701 91.3203 88.7301 89.8503 89.2301L89.8703 89.2901C88.6803 89.7501 89.1003 89.6301 88.3103 90.0701C83.4803 92.8101 83.7003 105.83 83.4603 111C83.2403 115.76 81.3803 128.12 93.3903 129.66C100.02 130.51 105.71 132.13 111.8 132.08C112.5 129.8 113.36 124.3 114 122.01V122Z" fill="#BE85FF"/>
<path d="M129.22 51.6499L126.94 56.0199L129.22 56.3999L126.16 61.1599L133.02 56.2099L129.96 55.6399L133.79 51.6499H129.22Z" fill="#FFBB57"/>
<path d="M109 53.77C109.14 51.75 110.81 50.15 112.87 50.15C113.39 50.15 113.88 50.25 114.33 50.44C115.17 48.58 117.04 47.29 119.22 47.29C119.98 47.29 120.7 47.45 121.36 47.73C122.38 44.41 125.46 42 129.11 42C132.76 42 135.74 44.34 136.81 47.57C137.35 47.39 137.93 47.28 138.53 47.28C141.5 47.28 143.9 49.68 143.9 52.65C143.9 53.03 143.86 53.4 143.78 53.76H109.01L109 53.77Z" fill="#BFD2DB" stroke="#BFD2DB" stroke-width="0.32" stroke-miterlimit="10"/>
<path d="M132.45 36.64H114.24L105.31 47.71V18.43C105.31 8.36997 113.47 0.219971 123.52 0.219971H132.45C142.51 0.219971 150.66 8.36997 150.66 18.43C150.66 28.49 142.51 36.64 132.45 36.64Z" fill="#98AFFA" stroke="#98AFFA" stroke-width="0.44" stroke-miterlimit="10"/>
<path d="M491.43 190.71L495.61 213.1C495.96 213.8 496.68 214.25 497.46 214.25C498.88 214.25 499.87 212.86 499.41 211.52L498.88 190.41L491.42 190.71H491.43Z" fill="#FFBB57"/>
<path d="M444.85 190.71L449.03 213.1C449.38 213.8 450.1 214.25 450.88 214.25C452.3 214.25 453.29 212.86 452.83 211.52L452.3 190.41L444.84 190.71H444.85Z" fill="#FFBB57"/>
<path d="M353.88 190.71L349.7 213.1C349.35 213.8 348.63 214.25 347.85 214.25C346.43 214.25 345.44 212.86 345.9 211.52L346.43 190.41L353.89 190.71H353.88Z" fill="#FFBB57"/>
<path d="M404.59 190.71L400.41 213.1C400.06 213.8 399.34 214.25 398.56 214.25C397.14 214.25 396.15 212.86 396.61 211.52L397.14 190.41L404.6 190.71H404.59Z" fill="#FFBB57"/>
<g style="mix-blend-mode:multiply" opacity="0.5">
<path d="M499.15 200.79L498.89 190.41L491.43 190.71L493.31 200.79H499.15Z" fill="#FFBB57"/>
</g>
<g style="mix-blend-mode:multiply" opacity="0.5">
<path d="M452.581 200.79L452.321 190.41L444.851 190.71L446.741 200.79H452.581Z" fill="#FFBB57"/>
</g>
<g style="mix-blend-mode:multiply" opacity="0.5">
<path d="M352 200.79L353.88 190.71L346.42 190.41L346.16 200.79H352Z" fill="#FFBB57"/>
</g>
<g style="mix-blend-mode:multiply" opacity="0.5">
<path d="M402.71 200.79L404.59 190.71L397.13 190.41L396.87 200.79H402.71Z" fill="#FFBB57"/>
</g>
<path d="M412.83 174.45H366.1V148.59C366.1 138.68 374.15 130.63 384.06 130.63H412.83V174.45Z" fill="#7EABD8"/>
<path d="M401.061 190.89H494.391C502.681 190.89 509.411 184.17 509.421 175.88L509.551 87.3498C509.551 78.4998 501.931 71.3298 492.541 71.3298H414.291C406.981 71.3298 401.061 76.9098 401.061 83.7898V190.89Z" fill="#BFD2DB" stroke="#BFD2DB" stroke-width="0.44" stroke-miterlimit="10"/>
<path d="M339.97 191.18H387.88V130.64H353.49C333.21 130.68 334.25 142.54 334.25 157.21V185.46C334.25 188.62 336.81 191.17 339.96 191.17L339.97 191.18Z" fill="#86B3A7"/>
<path d="M395.11 174.45H348.38V148.59C348.38 138.68 356.43 130.63 366.34 130.63H395.11V174.45Z" fill="#BFD2DB" stroke="#BFD2DB" stroke-width="0.44" stroke-miterlimit="10"/>
<path d="M383.34 190.89H491.68L491.83 87.3498C491.83 78.4998 484.21 71.3298 474.82 71.3298H396.57C389.26 71.3298 383.34 76.9098 383.34 83.7898V190.89Z" fill="#FFF9F0"/>
<g style="mix-blend-mode:multiply">
<path d="M473.66 153.43L427.19 174.46H383.34V129.52L473.66 153.43Z" fill="#F5F5F5" stroke="#F5F5F5" stroke-width="0.15" stroke-miterlimit="10"/>
</g>
<path d="M494.21 191.05L354.17 191.05C350.9 191.05 348.24 188.39 348.24 185.12V174.8L509.45 174.8V175.8C509.45 184.21 502.62 191.04 494.21 191.04V191.05Z" fill="#86B3A7"/>
<path d="M348.35 175.02L509.44 175.02V153.56L348.35 153.56V175.02Z" fill="white"/>
<path d="M487.2 191.11H440.42V152.1C440.42 140.49 449.84 131.07 461.45 131.07H487.2V191.12V191.11Z" fill="#86B3A7"/>
<path d="M494.21 191.11H462.72V152.08C462.72 140.48 472.14 131.06 483.74 131.06H509.45V175.87C509.45 184.28 502.62 191.11 494.21 191.11Z" fill="#BFD2DB" stroke="#BFD2DB" stroke-width="0.44" stroke-miterlimit="10"/>
<path d="M271.77 215.56C270.24 215.56 269.12 214.12 269.5 212.64L283.8 156.63H292.41L274 213.93C273.69 214.9 272.79 215.56 271.77 215.56Z" fill="#EC7C84"/>
<g style="mix-blend-mode:multiply">
<path d="M292.351 156.63H283.801L279.371 173.98C283.851 168.31 288.231 162.57 292.351 156.63Z" fill="#ECA484"/>
</g>
<path d="M370.38 215.56C371.91 215.56 373.03 214.12 372.65 212.64L358.35 156.63H349.74L368.15 213.93C368.46 214.9 369.36 215.56 370.38 215.56Z" fill="#EC7C84"/>
<g style="mix-blend-mode:multiply">
<path d="M361.55 169.16L358.35 156.63H350.07C353.95 160.76 357.77 164.94 361.55 169.16Z" fill="#ECA484"/>
</g>
<path d="M365.64 153.62H273.59V157.06H365.64V153.62Z" fill="#CE6370"/>
<path d="M370.59 154.48H268.65C267.22 154.48 266.07 153.32 266.07 151.9C266.07 150.47 267.23 149.32 268.65 149.32H370.59C372.02 149.32 373.17 150.48 373.17 151.9C373.17 153.33 372.01 154.48 370.59 154.48Z" fill="#EC7C84"/>
<path d="M316.69 149.13H313.77C309.81 149.13 306.6 145.92 306.6 141.96V129.6H323.86V141.96C323.86 145.92 320.65 149.13 316.69 149.13Z" fill="#FFBB57"/>
<path d="M310.65 135.4C312.91 135.4 312.91 131.89 310.65 131.89C308.39 131.89 308.39 135.4 310.65 135.4Z" fill="white"/>
<path d="M319.05 139.13C321.31 139.13 321.31 135.62 319.05 135.62C316.79 135.62 316.79 139.13 319.05 139.13Z" fill="white"/>
<path d="M312.98 145.2C315.24 145.2 315.24 141.69 312.98 141.69C310.72 141.69 310.72 145.2 312.98 145.2Z" fill="white"/>
<path d="M318.14 129.91C319.64 129.6 320.92 128.57 321.83 127.34C322.74 126.1 323.32 124.66 323.85 123.22C324.12 122.5 324.38 121.74 324.3 120.98C324.28 120.8 324.23 120.61 324.08 120.52C323.94 120.44 323.75 120.48 323.59 120.52C319.96 121.62 316.51 125.91 315.9 129.66" fill="#9BBDBC"/>
<path d="M315.33 129.89C315.99 128.7 316.22 127.31 316.21 125.94C316.17 123 314.96 120.09 312.89 118C310.82 115.91 307.93 114.66 304.99 114.59C303.32 118.52 304.71 123.2 307.31 126.59C308.05 127.56 308.94 128.49 310.09 128.87C311.33 129.28 312.81 129.04 313.87 129.81" fill="#5C9C9B"/>
<path d="M317.61 129.14C319.62 126.67 321.63 124.21 323.65 121.74C323.8 121.55 323.53 121.28 323.38 121.47C321.37 123.94 319.36 126.4 317.34 128.87C317.19 129.06 317.46 129.33 317.61 129.14Z" fill="white"/>
<path d="M314.67 128.92C311.61 124.26 308.56 119.6 305.5 114.94C305.37 114.73 305.03 114.93 305.17 115.13C308.23 119.79 311.28 124.45 314.34 129.11C314.47 129.32 314.81 129.12 314.67 128.92Z" fill="white"/>
<path d="M311.86 124.27C312.8 121.57 312.49 118.54 311.04 116.07C310.91 115.86 310.58 116.05 310.71 116.26C312.11 118.64 312.4 121.55 311.49 124.16C311.41 124.39 311.78 124.49 311.86 124.26V124.27Z" fill="white"/>
<path d="M309.31 121.58C307.74 122.26 305.9 122.2 304.37 121.43C304.15 121.32 303.95 121.65 304.18 121.76C305.84 122.59 307.8 122.64 309.5 121.91C309.73 121.81 309.53 121.48 309.31 121.58Z" fill="white"/>
<path d="M319.45 126.01C319.09 125.3 318.94 124.5 319.01 123.7C319.01 123.6 318.91 123.51 318.82 123.51C318.71 123.51 318.64 123.6 318.63 123.7C318.55 124.56 318.73 125.43 319.12 126.2C319.23 126.42 319.56 126.23 319.45 126.01Z" fill="white"/>
<path d="M406.571 57.4299C406.081 59.4599 399.721 67.9999 401.611 68.1099C407.101 68.4399 428.341 69.8199 433.581 68.3599C433.721 68.3199 434.351 68.0699 435.001 67.8399C434.901 67.5799 434.781 67.3199 434.681 67.0599C433.661 64.2599 429.971 59.2099 429.341 56.3099C428.721 53.4999 428.301 50.2099 426.791 47.7099C425.351 45.3099 423.301 41.3399 412.951 42.4999C409.121 42.9299 408.361 42.2299 406.431 45.7999C405.731 47.0999 404.751 54.0599 405.591 55.2599L406.571 57.4299Z" fill="#18293D"/>
<path d="M421.09 53.9598C421.15 54.1498 421.34 54.2398 421.51 54.1598C422.23 53.8398 424.02 53.2998 424.97 55.2098C425.93 57.1398 423.42 58.6598 422.35 59.1998C422.04 59.3598 421.8 59.6298 421.68 59.9798C421.3 61.0298 421.06 72.8498 420.53 76.8598C419.37 85.5698 425.19 77.5098 425.19 77.5098C425.19 77.5098 416.58 103.49 410.27 103.56C407.39 103.59 409.28 77.6698 407.96 77.3498C407.96 77.3498 412.11 67.5698 411.56 64.9798C411.55 64.9198 405.1 66.0298 405.29 56.5998C404.94 48.5398 410.16 47.0598 411.5 46.7498C412.63 46.4898 416.16 59.8698 421.09 53.9698V53.9598Z" fill="#EC7C84"/>
<path d="M411.431 64.9899C411.431 64.9899 415.831 64.0599 415.531 64.3599C415.531 64.3599 414.841 66.3799 413.391 66.4499C412.251 66.4999 412.021 65.9299 411.431 64.9799V64.9899Z" fill="#18293D"/>
<path d="M424.05 56.2398C424.05 56.2398 423.29 53.4598 421.32 56.7498L424.05 56.2398Z" fill="#C9535B"/>
<path d="M412.511 56.2799C411.461 56.7099 410.951 57.9099 411.371 58.9599C411.801 60.0099 413.001 60.5199 414.051 60.0999C415.101 59.6699 415.611 58.4699 415.191 57.4199C414.761 56.3699 413.561 55.8599 412.511 56.2799Z" fill="#EC6D76"/>
<path d="M407.741 56.2798L408.171 58.5398H406.981C406.761 58.5298 406.621 58.2898 406.731 58.0998L407.741 56.2898V56.2798Z" fill="#C9535B"/>
<path d="M410.47 53.6898C410.93 53.8898 410.18 52.7098 409.61 52.5998C409.04 52.4898 408.5 52.7998 408.4 53.2898C408.4 53.2898 409.28 53.1698 410.47 53.6898Z" fill="#18293D"/>
<path d="M405.421 52.9699C405.981 52.7999 406.581 53.0599 406.721 53.5399C406.721 53.5399 406.031 53.4599 405.261 53.8099" fill="#18293D"/>
<path d="M409.541 56.3897C409.551 56.8997 409.321 57.1297 409.071 57.1297C408.821 57.1297 408.651 56.9197 408.641 56.4097C408.631 55.8997 408.821 55.4797 409.071 55.4697C409.321 55.4697 409.531 55.8797 409.541 56.3897Z" fill="#18293D"/>
<path d="M406.801 56.4398C406.811 56.9298 406.611 57.1898 406.381 57.1898C406.141 57.1898 405.961 56.9498 405.941 56.4598C405.931 55.9698 406.111 55.5698 406.351 55.5598C406.591 55.5598 406.791 55.9498 406.801 56.4398Z" fill="#18293D"/>
<path d="M406.421 59.9C406.421 59.9 406.631 60.99 407.301 61.02C408.511 61.08 409.261 59.71 409.261 59.71L406.431 59.9H406.421Z" fill="#EC6D76"/>
<path d="M409.341 59.6699C409.341 59.6699 407.331 60.7799 406.421 59.8899C406.441 59.7699 406.851 59.2699 407.311 59.3199C407.821 59.3699 409.351 59.6699 409.351 59.6699H409.341Z" fill="#C9535B"/>
<path d="M407.23 46.02C407.23 46.02 405.67 50.8 410.39 49.03C411.83 48.49 413.07 47.44 413.73 46.05C414.51 44.38 414.25 42.76 407.23 46.02Z" fill="#18293D"/>
<path d="M424.281 62.3099C424.281 61.1299 422.141 58.1199 422.141 58.1199C422.141 58.1199 420.001 61.1299 420.001 62.3099C420.001 63.4899 420.961 64.4499 422.141 64.4499C423.321 64.4499 424.281 63.4899 424.281 62.3099Z" fill="#98AFFA" stroke="#98AFFA" stroke-width="0.43" stroke-miterlimit="10"/>
<path d="M375.261 102.02C392.921 120.26 407.621 118.22 407.621 118.22C414.601 108.13 415.731 88.2099 415.731 88.2099C415.731 88.2099 418.561 74.7899 407.971 74.6799C403.001 75.2999 400.971 100.82 399.511 104.69L384.261 98.4599C383.471 98.0099 380.491 90.8099 379.841 91.4399C378.681 92.5799 380.621 96.6399 380.621 96.6399C380.621 96.6399 373.521 88.5799 372.911 89.1899C372.301 89.7999 376.201 95.0799 376.201 95.0799C376.201 95.0799 371.441 90.7499 371.091 91.0099C370.741 91.2699 371.521 92.9199 371.521 92.9199C371.521 92.9199 370.051 91.5299 370.051 92.2299C370.051 92.9299 373.521 97.7699 374.291 98.6399C374.291 98.6399 371.691 94.9999 371.171 95.4299C370.651 95.8599 375.241 102.01 375.241 102.01L375.261 102.02Z" fill="#EC7C84"/>
<path d="M407.971 74.6799C403.001 75.2999 399.641 99.0999 398.191 102.97L388.371 98.4699C387.271 100.7 385.921 104.5 384.901 106.71C384.481 107.62 384.061 108.53 383.641 109.44C397.341 119.64 407.621 118.22 407.621 118.22C414.601 108.13 415.731 88.2099 415.731 88.2099C415.731 88.2099 418.561 74.7899 407.971 74.6799Z" fill="#98AFFA" stroke="#98AFFA" stroke-width="0.43" stroke-miterlimit="10"/>
<path d="M400.031 99.2998L399.451 102.68L411.931 109.66L413.171 106.26L400.031 99.2998Z" fill="#021E2B"/>
<path d="M421.161 73.2898C421.161 73.2898 418.921 75.0398 416.761 75.0198C410.631 74.9598 409.321 73.8298 409.321 73.8298C408.611 74.3698 400.411 90.6698 399.351 95.9198C398.361 100.88 402.471 113.59 402.471 115.54L424.901 115.5C424.901 115.5 429.381 106.98 430.191 95.3298C425.141 98.5098 424.201 90.1798 425.741 76.1498C425.791 75.6998 422.171 73.7098 421.161 73.2898Z" fill="#98AFFA" stroke="#98AFFA" stroke-width="0.43" stroke-miterlimit="10"/>
<path d="M405.83 105.86C405.77 109.15 405.98 112.37 406.39 115.53H409.96C409.8 111.29 409.83 107.04 410.16 102.8C410.9 93.1299 413.64 83.8699 416.7 74.8399C416.23 74.8199 415.19 74.7299 414.86 74.7199C413.49 74.6899 412.44 74.6399 411.53 74.4199C407.49 84.3999 406.06 94.9299 405.85 105.86H405.83Z" fill="white"/>
<g style="mix-blend-mode:multiply">
<path d="M405.401 115.54C405.401 115.54 424.311 102.22 424.561 95.6699L428.861 106.43L425.121 115.14L405.391 115.55L405.401 115.54Z" fill="#98AFFA"/>
</g>
<path d="M366.92 202.36L365.46 215.69C365.46 215.69 357.21 223.77 355.26 220.61C353.31 217.45 357.16 215.62 357.16 215.62L356.5 201.9L366.92 202.36Z" fill="#EC7C84"/>
<path d="M356.921 215.39L346.481 222.56C345.921 222.86 346.201 223.53 346.901 223.55C350.941 223.64 356.041 223.71 362.191 223.35C363.831 223.25 363.191 218.64 364.331 218.66C364.971 218.67 366.971 224.24 367.401 224.25C367.891 224.25 367.591 219.71 367.571 219.33C367.421 216.69 366.411 213.73 366.081 213.67C366.081 213.67 358.541 220.56 356.871 220.04C355.431 219.59 354.521 219.35 354.771 218.62C354.901 218.24 358.551 215.04 356.931 215.39H356.921Z" fill="#98AFFA" stroke="#98AFFA" stroke-width="0.43" stroke-miterlimit="10"/>
<path d="M380.39 148.7L370.17 202.75L354.16 204.54C354.16 204.54 354.65 139.78 362.69 131.58C368.42 125.75 407.06 123.89 407.06 123.89L380.38 148.7H380.39Z" fill="#6A43A8"/>
<path opacity="0.65" d="M388.521 140.09C388.521 140.09 370.901 137.26 368.411 140.97C365.921 144.67 361.031 203.39 361.031 203.39" stroke="white" stroke-width="0.25" stroke-miterlimit="10"/>
<path d="M402.261 197.77L407.301 210.19C407.301 210.19 403.881 221.22 400.661 219.36C397.441 217.5 399.971 214.07 399.971 214.07L392.881 202.31L402.261 197.77Z" fill="#EC7C84"/>
<path d="M399.921 214.44L393.861 225.25C393.511 225.78 394.071 226.24 394.691 225.92C398.291 224.09 402.811 221.72 408.051 218.48C409.451 217.62 406.531 213.8 407.541 213.28C408.111 212.99 412.671 217 413.051 216.8C413.491 216.57 411.431 213.37 411.231 213.05C409.841 210.8 407.181 208.02 406.861 208.12C406.861 208.12 403.501 217.77 401.781 218.1C400.301 218.39 399.381 218.6 399.261 217.85C399.191 217.45 400.081 214.06 399.911 214.43L399.921 214.44Z" fill="#98AFFA" stroke="#98AFFA" stroke-width="0.43" stroke-miterlimit="10"/>
<path d="M425.131 115.13C425.131 115.13 443.661 134.02 434.311 145.32C424.961 156.62 384.961 153.8 384.961 153.8L406.701 200.98L391.701 206.85C391.701 206.85 357.791 151.85 363.441 141.85C367.461 134.73 404.311 122.94 404.311 122.94L404.091 115.77L425.121 115.15L425.131 115.13Z" fill="#9968DD"/>
<path d="M419.091 115.1C419.091 115.75 430.181 134.88 421.921 138.36C413.661 141.84 376.361 140.7 372.791 147.27C368.661 154.88 398.011 203.58 398.011 203.58" stroke="white" stroke-width="0.25" stroke-miterlimit="10"/>
<path d="M371.531 92.9199L375.521 97.5099" stroke="#18293D" stroke-width="0.26" stroke-miterlimit="10"/>
<path d="M376.731 95.8699L374.311 98.6399L372.751 96.4699" stroke="#18293D" stroke-width="0.26" stroke-miterlimit="10"/>
<path d="M406.441 120.51L391.331 102.06C390.671 101.26 389.691 100.8 388.661 100.81L373.121 100.94L386.301 119.1L394.071 120.21C394.561 120.23 406.451 120.52 406.451 120.52L406.441 120.51Z" fill="white"/>
<path d="M405.61 121.73L390.36 103.22C389.84 102.6 389.08 102.24 388.28 102.23L374.11 102.28C373.05 102.28 372.77 103.59 373.44 104.42L386.47 122.2C386.47 122.2 405.87 122.03 405.62 121.73H405.61Z" fill="#0F182E"/>
<path d="M397.15 109.13V112.03L401.03 113.47L397.15 109.13Z" fill="#0A2442"/>
<path d="M389.761 103.67C389.761 104.72 390.611 105.58 391.671 105.58C392.731 105.58 393.581 104.73 393.581 103.67C393.581 102.61 392.731 101.76 391.671 101.76C391.481 101.76 391.291 101.79 391.111 101.84" stroke="#18293D" stroke-width="0.26" stroke-miterlimit="10"/>
<path d="M392.661 106.57C392.661 107.62 393.511 108.48 394.571 108.48C395.631 108.48 396.481 107.63 396.481 106.57C396.481 105.51 395.631 104.66 394.571 104.66C394.381 104.66 394.191 104.69 394.011 104.74" stroke="#18293D" stroke-width="0.26" stroke-miterlimit="10"/>
<path d="M395.131 110.16C395.131 111.21 395.981 112.07 397.041 112.07C398.101 112.07 398.951 111.22 398.951 110.16C398.951 109.1 398.101 108.25 397.041 108.25C396.851 108.25 396.661 108.28 396.481 108.33" stroke="#18293D" stroke-width="0.26" stroke-miterlimit="10"/>
<path d="M413.78 124.45C400.4 121.61 392.21 118.43 390.69 117.9C389.82 117.6 387.28 116.41 387.29 116.03C387.31 115.16 392.42 117.45 392.23 117.24C392.04 117.03 385.95 115 385.95 114.3C385.95 113.25 392.7 115.63 392.81 115.66C394.56 116.19 386.27 113.63 386.09 112.91C385.91 112.19 389.78 113.09 389.92 113.12C389.92 113.12 393.18 114.09 393.3 113.87C393.42 113.65 386.91 109.74 387.59 109.32C388.27 108.9 393.26 111.24 394.44 111.69C395.62 112.14 397.42 112.3 397.87 112.03C398.25 111.8 397.87 109.89 397.08 109.16C397.08 109.16 400.04 110.48 401.42 112.04C402.15 112.86 402.85 114 402.85 114L414.04 116.18L413.78 124.45Z" fill="#EC7C84"/>
<path d="M420.191 84.9099C420.191 84.9099 418.601 74.6199 423.871 75.4599C432.771 76.8699 442.931 97.1799 439.031 124.16C437.761 132.92 402.251 124.38 402.251 124.38L404.531 111.56L423.071 114.64L420.191 84.9199V84.9099Z" fill="#98AFFA" stroke="#98AFFA" stroke-width="0.43" stroke-miterlimit="10"/>
<path d="M363.851 67.0399H382.061L390.991 78.1099V48.8299C390.991 38.7699 382.841 30.6199 372.781 30.6199H363.851C353.791 30.6199 345.641 38.7699 345.641 48.8299C345.641 58.8899 353.791 67.0399 363.851 67.0399Z" fill="#FFBB57"/>
</svg>
