<svg width="17" height="17" viewBox="0 0 17 17" fill="none" xmlns="http://www.w3.org/2000/svg">
<path d="M8.50004 9.03109C6.25462 9.03109 4.42712 7.20359 4.42712 4.95817C4.42712 2.71275 6.25462 0.885254 8.50004 0.885254C10.7455 0.885254 12.573 2.71275 12.573 4.95817C12.573 7.20359 10.7455 9.03109 8.50004 9.03109ZM8.50004 1.94775C6.84254 1.94775 5.48962 3.30067 5.48962 4.95817C5.48962 6.61567 6.84254 7.96859 8.50004 7.96859C10.1575 7.96859 11.5105 6.61567 11.5105 4.95817C11.5105 3.30067 10.1575 1.94775 8.50004 1.94775Z" fill="#0A2540"/>
<path d="M14.5847 16.1146C14.2943 16.1146 14.0534 15.8738 14.0534 15.5833C14.0534 13.1396 11.5601 11.1562 8.50011 11.1562C5.44011 11.1562 2.94678 13.1396 2.94678 15.5833C2.94678 15.8738 2.70594 16.1146 2.41553 16.1146C2.12511 16.1146 1.88428 15.8738 1.88428 15.5833C1.88428 12.5588 4.85219 10.0938 8.50011 10.0938C12.148 10.0938 15.1159 12.5588 15.1159 15.5833C15.1159 15.8738 14.8751 16.1146 14.5847 16.1146Z" fill="#0A2540"/>
</svg>
