<svg width="18" height="18" viewBox="0 0 18 18" fill="none" xmlns="http://www.w3.org/2000/svg">
<path d="M9.66 15.645H5.1075C2.445 15.645 1.5 13.7775 1.5 12.0375V5.96248C1.5 3.36748 2.5125 2.35498 5.1075 2.35498H9.66C12.255 2.35498 13.2675 3.36748 13.2675 5.96248V12.0375C13.2675 14.6325 12.255 15.645 9.66 15.645ZM5.1075 3.49498C3.15 3.49498 2.64 4.00498 2.64 5.96248V12.0375C2.64 12.96 2.9625 14.505 5.1075 14.505H9.66C11.6175 14.505 12.1275 13.995 12.1275 12.0375V5.96248C12.1275 4.00498 11.6175 3.49498 9.66 3.49498H5.1075Z" fill="#0A2540"/>
<path d="M15.5848 13.5826C15.2623 13.5826 14.8498 13.4776 14.3773 13.1476L12.3748 11.7451C12.2248 11.6401 12.1348 11.4676 12.1348 11.2801V6.72012C12.1348 6.53262 12.2248 6.36012 12.3748 6.25512L14.3773 4.85262C15.2698 4.23012 15.9223 4.41012 16.2298 4.56762C16.5373 4.73262 17.0623 5.16012 17.0623 6.24762V11.7451C17.0623 12.8326 16.5373 13.2676 16.2298 13.4251C16.0873 13.5076 15.8623 13.5826 15.5848 13.5826ZM13.2673 10.9801L15.0298 12.2101C15.3673 12.4426 15.6073 12.4651 15.7048 12.4126C15.8098 12.3601 15.9223 12.1501 15.9223 11.7451V6.25512C15.9223 5.84262 15.8023 5.64012 15.7048 5.58762C15.6073 5.53512 15.3673 5.55762 15.0298 5.79012L13.2673 7.02012V10.9801Z" fill="#0A2540"/>
<path d="M8.625 8.8125C7.695 8.8125 6.9375 8.055 6.9375 7.125C6.9375 6.195 7.695 5.4375 8.625 5.4375C9.555 5.4375 10.3125 6.195 10.3125 7.125C10.3125 8.055 9.555 8.8125 8.625 8.8125ZM8.625 6.5625C8.3175 6.5625 8.0625 6.8175 8.0625 7.125C8.0625 7.4325 8.3175 7.6875 8.625 7.6875C8.9325 7.6875 9.1875 7.4325 9.1875 7.125C9.1875 6.8175 8.9325 6.5625 8.625 6.5625Z" fill="#0A2540"/>
</svg>
