<svg width="15" height="12" viewBox="0 0 15 12" fill="none" xmlns="http://www.w3.org/2000/svg">
<path d="M13.728 2.56533C13.6579 2.25835 13.5149 1.97708 13.3136 1.74994C13.1124 1.52279 12.8599 1.35782 12.5817 1.27167C11.5654 1 7.50018 1 7.50018 1C7.50018 1 3.43494 1 2.41863 1.29754C2.14047 1.38369 1.88801 1.54867 1.68674 1.77581C1.48546 2.00296 1.34251 2.28422 1.27232 2.5912C1.08633 3.72028 0.995342 4.86566 1.00052 6.01294C0.993891 7.16885 1.08488 8.32296 1.27232 9.46054C1.34971 9.75799 1.49586 10.0286 1.69666 10.2461C1.89746 10.4637 2.14613 10.6208 2.41863 10.7025C3.43494 11 7.50018 11 7.50018 11C7.50018 11 11.5654 11 12.5817 10.7025C12.8599 10.6163 13.1124 10.4513 13.3136 10.2242C13.5149 9.99704 13.6579 9.71578 13.728 9.4088C13.9126 8.28822 14.0036 7.15157 13.9998 6.01294C14.0065 4.85702 13.9155 3.70291 13.728 2.56533Z" stroke="black" stroke-width="0.8" stroke-linecap="round" stroke-linejoin="round"/>
<path d="M6.17059 8.12798L9.56814 6.01284L6.17059 3.89771V8.12798Z" stroke="black" stroke-width="0.8" stroke-linecap="round" stroke-linejoin="round"/>
</svg>
