<svg width="30" height="30" viewBox="0 0 30 30" fill="none" xmlns="http://www.w3.org/2000/svg">
<path d="M29.9208 11.4879C29.7239 10.8805 29.1838 10.4511 28.5502 10.3929L19.8893 9.60559L16.4657 1.59381C16.2144 1.00467 15.639 0.624268 14.9995 0.624268C14.36 0.624268 13.7846 1.00467 13.5333 1.59381L10.1097 9.60559L1.44877 10.3929C0.813397 10.4511 0.275067 10.8805 0.0782289 11.4879C-0.118609 12.0954 0.0631227 12.761 0.543317 13.183L7.09071 18.9225L5.15941 27.4236C5.01704 28.048 5.26057 28.6948 5.7783 29.0697C6.05571 29.2725 6.38392 29.3737 6.71397 29.3737C6.99504 29.3737 7.27839 29.2986 7.53154 29.1466L14.9995 24.6825L22.4656 29.1466C23.0131 29.473 23.7016 29.4451 24.2189 29.0697C24.7366 28.6948 24.9801 28.048 24.8377 27.4236L22.9064 18.9225L29.4538 13.1812C29.9359 12.761 30.1176 12.0954 29.9208 11.4879Z" fill="#FFB800"/>
</svg>
